<?xml version="1.0" encoding="UTF-8"?> <svg xmlns="http://www.w3.org/2000/svg" width="101" height="101" viewBox="0 0 101 101" fill="none"> <path d="M93.9191 45.1187L52.0151 9.30766C51.4501 8.82366 50.6161 8.82766 50.0561 9.31666L9.0501 44.9997C8.4251 45.5427 8.3601 46.4907 8.9041 47.1157C9.4471 47.7407 10.3951 47.8067 11.0201 47.2617L19.8591 39.5697V87.5517C19.8591 88.3807 20.5301 89.0517 21.3591 89.0517H80.0901C80.9191 89.0517 81.5901 88.3807 81.5901 87.5517V38.5277L91.9701 47.3987C92.2531 47.6407 92.5991 47.7587 92.9441 47.7587C93.3681 47.7587 93.7891 47.5807 94.0861 47.2337C94.6241 46.6037 94.5491 45.6567 93.9191 45.1187ZM78.5901 86.0527H22.8591V36.9607L51.0501 12.4297L78.5911 35.9657L78.5901 86.0527Z" fill="url(#paint0_linear_60_61)"></path> <path d="M49.2251 40.0508V55.0368H34.2441C33.4151 55.0368 32.7441 55.7078 32.7441 56.5368C32.7441 57.3658 33.4151 58.0368 34.2441 58.0368H49.2251V73.0168C49.2251 73.8458 49.8961 74.5168 50.7251 74.5168C51.5541 74.5168 52.2251 73.8458 52.2251 73.0168V58.0368H67.2061C68.0351 58.0368 68.7061 57.3658 68.7061 56.5368C68.7061 55.7078 68.0351 55.0368 67.2061 55.0368H52.2251V40.0508C52.2251 39.2218 51.5541 38.5508 50.7251 38.5508C49.8961 38.5508 49.2251 39.2228 49.2251 40.0508Z" fill="url(#paint1_linear_60_61)"></path> <defs> <linearGradient id="paint0_linear_60_61" x1="8.53516" y1="89.0517" x2="88.4439" y2="3.35144" gradientUnits="userSpaceOnUse"> <stop offset="0.0833333" stop-color="#FDCF2D"></stop> <stop offset="0.5" stop-color="#47B972"></stop> <stop offset="0.916667" stop-color="#05B0FD"></stop> </linearGradient> <linearGradient id="paint1_linear_60_61" x1="8.53516" y1="89.0517" x2="88.4439" y2="3.35144" gradientUnits="userSpaceOnUse"> <stop offset="0.0833333" stop-color="#FDCF2D"></stop> <stop offset="0.5" stop-color="#47B972"></stop> <stop offset="0.916667" stop-color="#05B0FD"></stop> </linearGradient> </defs> </svg> 