<svg width="100" height="100" viewBox="0 0 100 100" fill="none" xmlns="http://www.w3.org/2000/svg">
<path fill-rule="evenodd" clip-rule="evenodd" d="M83.4003 70.66C83.4003 71.4295 84.0214 72.0506 84.7909 72.0506L84.7794 72.0586C85.5489 72.0586 86.17 71.4336 86.17 70.668V37.336C86.17 36.5704 86.795 35.9454 87.5606 35.9454H88.3223C90.2247 35.9454 91.9395 34.8985 92.6856 33.2813C93.3497 31.836 93.2403 30.1797 92.3926 28.8516L83.9199 15.5356C83.1972 14.4028 81.9591 13.7231 80.6152 13.7231C79.2675 13.7231 78.0332 14.4028 77.3066 15.5395L68.8339 28.8515C67.9863 30.1796 67.8769 31.8359 68.541 33.2812C69.2871 34.8984 71.002 35.9453 72.9043 35.9453H73.666C74.4355 35.9453 75.0566 36.5703 75.0566 37.3359V60.9449C75.0566 63.2457 73.1855 65.1129 70.8886 65.1129H59.7796C57.4788 65.1129 55.6116 63.2418 55.6116 60.9449V27.6129C55.6116 26.8473 56.2366 26.2223 57.0022 26.2223H57.7639C59.6663 26.2223 61.3811 25.1754 62.1272 23.5582C62.7913 22.1129 62.6819 20.4566 61.8342 19.1285L53.3615 5.8125C52.6388 4.67969 51.4045 4 50.0568 4C48.7091 4 47.4709 4.6797 46.7482 5.8164L38.2755 19.1284C37.4279 20.4604 37.3224 22.1167 37.9865 23.5581C38.7326 25.1753 40.4475 26.2222 42.3498 26.2222H43.1115C43.8771 26.2222 44.5021 26.8472 44.5021 27.6128V65.1128C44.5021 67.4136 42.631 69.2808 40.3341 69.2808H29.2251C26.9243 69.2808 25.0571 67.4097 25.0571 65.1128V51.2218C25.0571 50.4562 25.6821 49.8312 26.4477 49.8312H27.2094C29.1157 49.8312 30.8266 48.7843 31.5727 47.1671C32.2407 45.7257 32.1313 44.0694 31.2837 42.7374L22.811 29.4254C22.0844 28.2887 20.8501 27.609 19.5024 27.609C18.1547 27.609 16.9164 28.2887 16.1938 29.4254L7.72107 42.7374C6.87342 44.0694 6.76795 45.7257 7.43201 47.1671C8.17811 48.7843 9.89301 49.8312 11.7953 49.8312H12.557C13.3226 49.8312 13.9476 50.4562 13.9476 51.2218V70.6668C13.9476 71.4363 14.5726 72.0574 15.3382 72.0574C16.1077 72.0574 16.7288 71.4324 16.7288 70.6668V51.2218C16.7288 48.921 14.8577 47.0538 12.5608 47.0538H11.7991C10.9866 47.0538 10.2484 46.6319 9.95931 46.003C9.69368 45.421 9.73275 44.757 10.0726 44.2257L18.5453 30.9137C18.9672 30.2535 20.0492 30.2535 20.4711 30.9137L28.9438 44.2257C29.2836 44.7569 29.3266 45.421 29.0571 46.003C28.7681 46.628 28.0298 47.0499 27.2173 47.0499H26.4555C24.1547 47.0499 22.2875 48.921 22.2875 51.2179V65.1089C22.2875 68.937 25.4047 72.0542 29.2328 72.0542H40.3418C44.1699 72.0542 47.2871 68.937 47.2871 65.1089V27.6089C47.2871 25.3081 45.416 23.4409 43.1191 23.4409H42.3574C41.5449 23.4409 40.8067 23.019 40.5176 22.3901C40.252 21.8081 40.2911 21.1441 40.6309 20.6128L49.1036 7.3008C49.5255 6.64064 50.6075 6.64064 51.0294 7.3008L59.5021 20.6128C59.8419 21.144 59.881 21.8081 59.6154 22.3901C59.3264 23.0151 58.5881 23.437 57.7756 23.437H57.0139C54.7131 23.437 52.8459 25.3081 52.8459 27.605V60.937C52.8459 64.7651 55.9631 67.8823 59.7912 67.8823H70.9002C74.7283 67.8823 77.8455 64.7651 77.8455 60.937V37.328C77.8455 35.0272 75.9744 33.16 73.6775 33.16H72.9157C72.1032 33.16 71.365 32.7381 71.0759 32.1131C70.8103 31.5311 70.8533 30.8671 71.1892 30.3358L79.658 17.0238C80.0799 16.3636 81.1619 16.3636 81.5838 17.0238L90.0565 30.3358C90.3964 30.867 90.4354 31.5311 90.1698 32.1131C89.8808 32.7381 89.1425 33.16 88.33 33.16H87.5683C85.2675 33.16 83.4003 35.0311 83.4003 37.328V70.66ZM85.6461 95.6596H75.5991C73.0093 95.6596 70.8999 93.5501 70.8999 90.9604C70.8999 90.1674 71.103 89.3784 71.4897 88.6792L77.3452 78.1402C78.0054 76.9488 79.2632 76.2104 80.6225 76.2104C81.9819 76.2104 83.2397 76.9487 83.8998 78.1402L89.7553 88.6752C90.1421 89.3744 90.3452 90.1635 90.3452 90.9564C90.3452 93.5462 88.2358 95.6556 85.646 95.6556L85.6461 95.6596ZM80.6227 78.9956C80.2711 78.9956 79.943 79.187 79.775 79.4956L73.9195 90.0306C73.7633 90.3157 73.6774 90.636 73.6774 90.9641C73.6774 92.0227 74.5367 92.886 75.5993 92.886H85.6462C86.7048 92.886 87.5682 92.0267 87.5682 90.9641C87.5682 90.6399 87.4822 90.3157 87.326 90.0306L81.4744 79.4956C81.3025 79.187 80.9783 78.9956 80.6267 78.9956H80.6227ZM9.79004 85.9371C9.79004 91.3004 14.1533 95.6598 19.5127 95.6598C24.876 95.6598 29.2354 91.2965 29.2354 85.9371C29.2354 80.5738 24.8721 76.2144 19.5127 76.2144C14.1494 76.2144 9.79004 80.5777 9.79004 85.9371ZM12.5674 85.9411C12.5674 82.113 15.6846 78.9958 19.5127 78.9958C23.3408 78.9958 26.458 82.113 26.458 85.9411C26.458 89.7692 23.3408 92.8864 19.5127 92.8864C15.6846 92.8864 12.5674 89.7692 12.5674 85.9411ZM44.5137 95.6598H55.6227C57.9235 95.6598 59.7907 93.7887 59.7907 91.4918V80.3828C59.7907 78.082 57.9196 76.2148 55.6227 76.2148H44.5137C42.2129 76.2148 40.3457 78.0859 40.3457 80.3828V91.4918C40.3457 93.7926 42.2168 95.6598 44.5137 95.6598ZM43.1231 80.3864C43.1231 79.6208 43.7481 78.9958 44.5137 78.9958H55.6227C56.3922 78.9958 57.0133 79.6208 57.0133 80.3864V91.4954C57.0133 92.261 56.3883 92.886 55.6227 92.886H44.5137C43.7481 92.886 43.1231 92.2611 43.1231 91.4954V80.3864Z" fill="url(#paint0_linear_5283_284)"/>
<defs>
<linearGradient id="paint0_linear_5283_284" x1="7" y1="95.6598" x2="97.9795" y2="17.4485" gradientUnits="userSpaceOnUse">
<stop offset="0.1" stop-color="#FDCF2D"/>
<stop offset="0.5" stop-color="#47B972"/>
<stop offset="0.9" stop-color="#05B0FD"/>
</linearGradient>
</defs>
</svg>
