<?xml version="1.0" encoding="UTF-8"?> <svg xmlns="http://www.w3.org/2000/svg" width="101" height="101" viewBox="0 0 101 101" fill="none"> <path d="M9 38C9.39782 38 9.77936 37.842 10.0607 37.5607C10.342 37.2794 10.5 36.8978 10.5 36.5V27H20C20.3978 27 20.7794 26.842 21.0607 26.5607C21.342 26.2794 21.5 25.8978 21.5 25.5C21.5 25.1022 21.342 24.7206 21.0607 24.4393C20.7794 24.158 20.3978 24 20 24H9C8.60218 24 8.22064 24.158 7.93934 24.4393C7.65804 24.7206 7.5 25.1022 7.5 25.5V36.5C7.5 36.8978 7.65804 37.2794 7.93934 37.5607C8.22064 37.842 8.60218 38 9 38Z" fill="url(#paint0_linear_4_3)"></path> <path d="M20 74H10.5V64.5C10.5 64.1022 10.342 63.7206 10.0607 63.4393C9.77936 63.158 9.39782 63 9 63C8.60218 63 8.22064 63.158 7.93934 63.4393C7.65804 63.7206 7.5 64.1022 7.5 64.5V75.5C7.5 75.8978 7.65804 76.2794 7.93934 76.5607C8.22064 76.842 8.60218 77 9 77H20C20.3978 77 20.7794 76.842 21.0607 76.5607C21.342 76.2794 21.5 75.8978 21.5 75.5C21.5 75.1022 21.342 74.7206 21.0607 74.4393C20.7794 74.158 20.3978 74 20 74Z" fill="url(#paint1_linear_4_3)"></path> <path d="M92.5 63C92.1022 63 91.7206 63.158 91.4393 63.4393C91.158 63.7206 91 64.1022 91 64.5V74H81.5C81.1022 74 80.7206 74.158 80.4393 74.4393C80.158 74.7206 80 75.1022 80 75.5C80 75.8978 80.158 76.2794 80.4393 76.5607C80.7206 76.842 81.1022 77 81.5 77H92.5C92.8978 77 93.2794 76.842 93.5607 76.5607C93.842 76.2794 94 75.8978 94 75.5V64.5C94 64.1022 93.842 63.7206 93.5607 63.4393C93.2794 63.158 92.8978 63 92.5 63Z" fill="url(#paint2_linear_4_3)"></path> <path d="M92.5 24H81.5C81.1022 24 80.7206 24.158 80.4393 24.4393C80.158 24.7206 80 25.1022 80 25.5C80 25.8978 80.158 26.2794 80.4393 26.5607C80.7206 26.842 81.1022 27 81.5 27H91V36.5C91 36.8978 91.158 37.2794 91.4393 37.5607C91.7206 37.842 92.1022 38 92.5 38C92.8978 38 93.2794 37.842 93.5607 37.5607C93.842 37.2794 94 36.8978 94 36.5V25.5C94 25.1022 93.842 24.7206 93.5607 24.4393C93.2794 24.158 92.8978 24 92.5 24Z" fill="url(#paint3_linear_4_3)"></path> <path d="M20.5 33C20.1022 33 19.7206 33.158 19.4393 33.4393C19.158 33.7206 19 34.1022 19 34.5V66.5C19 66.8978 19.158 67.2794 19.4393 67.5607C19.7206 67.842 20.1022 68 20.5 68C20.8978 68 21.2794 67.842 21.5607 67.5607C21.842 67.2794 22 66.8978 22 66.5V34.5C22 34.1022 21.842 33.7206 21.5607 33.4393C21.2794 33.158 20.8978 33 20.5 33Z" fill="url(#paint4_linear_4_3)"></path> <path d="M31.5 33C31.1022 33 30.7206 33.158 30.4393 33.4393C30.158 33.7206 30 34.1022 30 34.5V66.5C30 66.8978 30.158 67.2794 30.4393 67.5607C30.7206 67.842 31.1022 68 31.5 68C31.8978 68 32.2794 67.842 32.5607 67.5607C32.842 67.2794 33 66.8978 33 66.5V34.5C33 34.1022 32.842 33.7206 32.5607 33.4393C32.2794 33.158 31.8978 33 31.5 33Z" fill="url(#paint5_linear_4_3)"></path> <path d="M37.5 33C37.1022 33 36.7206 33.158 36.4393 33.4393C36.158 33.7206 36 34.1022 36 34.5V66.5C36 66.8978 36.158 67.2794 36.4393 67.5607C36.7206 67.842 37.1022 68 37.5 68C37.8978 68 38.2794 67.842 38.5607 67.5607C38.842 67.2794 39 66.8978 39 66.5V34.5C39 34.1022 38.842 33.7206 38.5607 33.4393C38.2794 33.158 37.8978 33 37.5 33Z" fill="url(#paint6_linear_4_3)"></path> <path d="M43.5 33C43.1022 33 42.7206 33.158 42.4393 33.4393C42.158 33.7206 42 34.1022 42 34.5V66.5C42 66.8978 42.158 67.2794 42.4393 67.5607C42.7206 67.842 43.1022 68 43.5 68C43.8978 68 44.2794 67.842 44.5607 67.5607C44.842 67.2794 45 66.8978 45 66.5V34.5C45 34.1022 44.842 33.7206 44.5607 33.4393C44.2794 33.158 43.8978 33 43.5 33Z" fill="url(#paint7_linear_4_3)"></path> <path d="M53.5 33C53.1022 33 52.7206 33.158 52.4393 33.4393C52.158 33.7206 52 34.1022 52 34.5V66.5C52 66.8978 52.158 67.2794 52.4393 67.5607C52.7206 67.842 53.1022 68 53.5 68C53.8978 68 54.2794 67.842 54.5607 67.5607C54.842 67.2794 55 66.8978 55 66.5V34.5C55 34.1022 54.842 33.7206 54.5607 33.4393C54.2794 33.158 53.8978 33 53.5 33Z" fill="url(#paint8_linear_4_3)"></path> <path d="M64.5 33C64.1022 33 63.7206 33.158 63.4393 33.4393C63.158 33.7206 63 34.1022 63 34.5V66.5C63 66.8978 63.158 67.2794 63.4393 67.5607C63.7206 67.842 64.1022 68 64.5 68C64.8978 68 65.2794 67.842 65.5607 67.5607C65.842 67.2794 66 66.8978 66 66.5V34.5C66 34.1022 65.842 33.7206 65.5607 33.4393C65.2794 33.158 64.8978 33 64.5 33Z" fill="url(#paint9_linear_4_3)"></path> <path d="M70.5 33C70.1022 33 69.7206 33.158 69.4393 33.4393C69.158 33.7206 69 34.1022 69 34.5V66.5C69 66.8978 69.158 67.2794 69.4393 67.5607C69.7206 67.842 70.1022 68 70.5 68C70.8978 68 71.2794 67.842 71.5607 67.5607C71.842 67.2794 72 66.8978 72 66.5V34.5C72 34.1022 71.842 33.7206 71.5607 33.4393C71.2794 33.158 70.8978 33 70.5 33Z" fill="url(#paint10_linear_4_3)"></path> <path d="M82 66.5V34.5C82 34.1022 81.842 33.7206 81.5607 33.4393C81.2794 33.158 80.8978 33 80.5 33C80.1022 33 79.7206 33.158 79.4393 33.4393C79.158 33.7206 79 34.1022 79 34.5V66.5C79 66.8978 79.158 67.2794 79.4393 67.5607C79.7206 67.842 80.1022 68 80.5 68C80.8978 68 81.2794 67.842 81.5607 67.5607C81.842 67.2794 82 66.8978 82 66.5Z" fill="url(#paint11_linear_4_3)"></path> <defs> <linearGradient id="paint0_linear_4_3" x1="7.5" y1="77" x2="54.7204" y2="-0.0672659" gradientUnits="userSpaceOnUse"> <stop offset="0.0833333" stop-color="#FDCF2D"></stop> <stop offset="0.5" stop-color="#47B972"></stop> <stop offset="0.916667" stop-color="#05B0FD"></stop> </linearGradient> <linearGradient id="paint1_linear_4_3" x1="7.5" y1="77" x2="54.7204" y2="-0.0672659" gradientUnits="userSpaceOnUse"> <stop offset="0.0833333" stop-color="#FDCF2D"></stop> <stop offset="0.5" stop-color="#47B972"></stop> <stop offset="0.916667" stop-color="#05B0FD"></stop> </linearGradient> <linearGradient id="paint2_linear_4_3" x1="7.5" y1="77" x2="54.7204" y2="-0.0672659" gradientUnits="userSpaceOnUse"> <stop offset="0.0833333" stop-color="#FDCF2D"></stop> <stop offset="0.5" stop-color="#47B972"></stop> <stop offset="0.916667" stop-color="#05B0FD"></stop> </linearGradient> <linearGradient id="paint3_linear_4_3" x1="7.5" y1="77" x2="54.7204" y2="-0.0672659" gradientUnits="userSpaceOnUse"> <stop offset="0.0833333" stop-color="#FDCF2D"></stop> <stop offset="0.5" stop-color="#47B972"></stop> <stop offset="0.916667" stop-color="#05B0FD"></stop> </linearGradient> <linearGradient id="paint4_linear_4_3" x1="7.5" y1="77" x2="54.7204" y2="-0.0672659" gradientUnits="userSpaceOnUse"> <stop offset="0.0833333" stop-color="#FDCF2D"></stop> <stop offset="0.5" stop-color="#47B972"></stop> <stop offset="0.916667" stop-color="#05B0FD"></stop> </linearGradient> <linearGradient id="paint5_linear_4_3" x1="7.5" y1="77" x2="54.7204" y2="-0.0672659" gradientUnits="userSpaceOnUse"> <stop offset="0.0833333" stop-color="#FDCF2D"></stop> <stop offset="0.5" stop-color="#47B972"></stop> <stop offset="0.916667" stop-color="#05B0FD"></stop> </linearGradient> <linearGradient id="paint6_linear_4_3" x1="7.5" y1="77" x2="54.7204" y2="-0.0672659" gradientUnits="userSpaceOnUse"> <stop offset="0.0833333" stop-color="#FDCF2D"></stop> <stop offset="0.5" stop-color="#47B972"></stop> <stop offset="0.916667" stop-color="#05B0FD"></stop> </linearGradient> <linearGradient id="paint7_linear_4_3" x1="7.5" y1="77" x2="54.7204" y2="-0.0672659" gradientUnits="userSpaceOnUse"> <stop offset="0.0833333" stop-color="#FDCF2D"></stop> <stop offset="0.5" stop-color="#47B972"></stop> <stop offset="0.916667" stop-color="#05B0FD"></stop> </linearGradient> <linearGradient id="paint8_linear_4_3" x1="7.5" y1="77" x2="54.7204" y2="-0.0672659" gradientUnits="userSpaceOnUse"> <stop offset="0.0833333" stop-color="#FDCF2D"></stop> <stop offset="0.5" stop-color="#47B972"></stop> <stop offset="0.916667" stop-color="#05B0FD"></stop> </linearGradient> <linearGradient id="paint9_linear_4_3" x1="7.5" y1="77" x2="54.7204" y2="-0.0672659" gradientUnits="userSpaceOnUse"> <stop offset="0.0833333" stop-color="#FDCF2D"></stop> <stop offset="0.5" stop-color="#47B972"></stop> <stop offset="0.916667" stop-color="#05B0FD"></stop> </linearGradient> <linearGradient id="paint10_linear_4_3" x1="7.5" y1="77" x2="54.7204" y2="-0.0672659" gradientUnits="userSpaceOnUse"> <stop offset="0.0833333" stop-color="#FDCF2D"></stop> <stop offset="0.5" stop-color="#47B972"></stop> <stop offset="0.916667" stop-color="#05B0FD"></stop> </linearGradient> <linearGradient id="paint11_linear_4_3" x1="7.5" y1="77" x2="54.7204" y2="-0.0672659" gradientUnits="userSpaceOnUse"> <stop offset="0.0833333" stop-color="#FDCF2D"></stop> <stop offset="0.5" stop-color="#47B972"></stop> <stop offset="0.916667" stop-color="#05B0FD"></stop> </linearGradient> </defs> </svg> 