<svg width="64" height="64" viewBox="0 0 64 64" fill="none" xmlns="http://www.w3.org/2000/svg">
<path d="M27.2001 23.6999C27.2001 23.7999 27.2001 23.9999 27.2001 24.0999C26.2001 24.2999 25.3001 24.8999 24.6001 25.6999C23.5001 26.9999 23.1001 28.7999 23.4001 30.5999C23.8001 32.6999 25.3001 34.3999 27.1001 34.7999C28.9001 35.1999 30.8001 34.3999 32.0001 32.7999C32.9001 34.0999 34.3001 34.8999 35.8001 34.8999C36.1001 34.8999 36.5001 34.8999 36.8001 34.7999C38.6001 34.3999 40.1001 32.6999 40.5001 30.5999C40.8001 28.7999 40.4001 26.9999 39.3001 25.6999C38.6001 24.8999 37.7001 24.2999 36.7001 24.0999C36.8001 23.3999 36.7001 22.5999 36.5001 21.8999C35.9001 19.9999 34.4001 18.5999 32.7001 18.1999C32.4001 18.1999 32.2001 18.0999 31.9001 18.0999C29.3001 18.2999 27.2001 20.6999 27.2001 23.6999ZM29.3001 24.7999C29.2001 24.3999 29.2001 24.0999 29.2001 23.6999C29.2001 21.5999 30.7001 19.8999 32.5001 20.2999C33.5001 20.4999 34.4001 21.3999 34.7001 22.5999C34.9001 23.2999 34.9001 24.0999 34.7001 24.7999C34.6001 25.0999 34.7001 25.3999 34.9001 25.6999C35.1001 25.9999 35.5001 26.0999 35.9001 26.0999C36.6001 26.0999 37.4001 26.4999 37.9001 27.0999C38.6001 27.9999 38.9001 29.1999 38.7001 30.3999C38.5001 31.6999 37.6001 32.6999 36.5001 32.9999C36.2001 32.9999 36.0001 32.9999 35.8001 32.9999C34.9001 32.9999 34.1001 32.4999 33.5001 31.5999C33.1001 30.9999 32.5001 30.6999 31.9001 30.6999C31.3001 30.6999 30.7001 30.9999 30.3001 31.5999C29.6001 32.6999 28.6001 33.0999 27.5001 32.8999C26.4001 32.5999 25.5001 31.5999 25.3001 30.2999C25.1001 29.0999 25.4001 27.8999 26.1001 26.9999C26.6001 26.3999 27.3001 25.9999 28.1001 25.9999C28.1001 25.9999 28.2001 25.9999 28.3001 25.9999C28.6001 25.9999 28.9001 25.8999 29.1001 25.5999C29.3001 25.3999 29.4001 25.0999 29.3001 24.7999Z" fill="url(#paint0_linear_48_475)"/>
<path d="M22.7001 21.8999C24.4001 21.8999 25.8001 20.4999 25.8001 18.7999C25.8001 17.0999 24.4001 15.6999 22.7001 15.6999C21.0001 15.6999 19.6001 17.0999 19.6001 18.7999C19.6001 20.4999 20.9001 21.8999 22.7001 21.8999ZM22.7001 17.6999C23.3001 17.6999 23.8001 18.1999 23.8001 18.7999C23.8001 19.3999 23.3001 19.8999 22.7001 19.8999C22.1001 19.8999 21.6001 19.3999 21.6001 18.7999C21.6001 18.1999 22.1001 17.6999 22.7001 17.6999Z" fill="url(#paint1_linear_48_475)"/>
<path d="M28.6001 17.3999C30.3001 17.3999 31.7001 15.9999 31.7001 14.2999C31.7001 12.5999 30.3001 11.1999 28.6001 11.1999C26.9001 11.1999 25.5001 12.5999 25.5001 14.2999C25.5001 15.9999 26.9001 17.3999 28.6001 17.3999ZM28.6001 13.1999C29.2001 13.1999 29.7001 13.6999 29.7001 14.2999C29.7001 14.8999 29.2001 15.3999 28.6001 15.3999C28.0001 15.3999 27.5001 14.8999 27.5001 14.2999C27.5001 13.6999 28.0001 13.1999 28.6001 13.1999Z" fill="url(#paint2_linear_48_475)"/>
<path d="M41.3001 21.8999C43.0001 21.8999 44.4001 20.4999 44.4001 18.7999C44.4001 17.0999 43.0001 15.6999 41.3001 15.6999C39.6001 15.6999 38.2001 17.0999 38.2001 18.7999C38.2001 20.4999 39.6001 21.8999 41.3001 21.8999ZM41.3001 17.6999C41.9001 17.6999 42.4001 18.1999 42.4001 18.7999C42.4001 19.3999 41.9001 19.8999 41.3001 19.8999C40.7001 19.8999 40.2001 19.3999 40.2001 18.7999C40.2001 18.1999 40.7001 17.6999 41.3001 17.6999Z" fill="url(#paint3_linear_48_475)"/>
<path d="M35.4001 17.3999C37.1001 17.3999 38.5001 15.9999 38.5001 14.2999C38.5001 12.5999 37.1001 11.1999 35.4001 11.1999C33.7001 11.1999 32.3001 12.5999 32.3001 14.2999C32.3001 15.9999 33.7001 17.3999 35.4001 17.3999ZM35.4001 13.1999C36.0001 13.1999 36.5001 13.6999 36.5001 14.2999C36.5001 14.8999 36.0001 15.3999 35.4001 15.3999C34.8001 15.3999 34.3001 14.8999 34.3001 14.2999C34.3001 13.6999 34.8001 13.1999 35.4001 13.1999Z" fill="url(#paint4_linear_48_475)"/>
<path d="M9.4001 50.9999C9.6001 51.2999 10.0001 51.4999 10.4001 51.3999L19.0001 49.1999L22.0001 57.5999C22.1001 57.9999 22.5001 58.1999 22.9001 58.2999C22.9001 58.2999 22.9001 58.2999 23.0001 58.2999C23.4001 58.2999 23.7001 58.0999 23.9001 57.7999L31.3001 43.7999C31.5001 43.7999 31.8001 43.7999 32.0001 43.7999C32.2001 43.7999 32.5001 43.7999 32.7001 43.7999L40.1001 57.7999C40.3001 58.0999 40.6001 58.2999 41.0001 58.2999C41.0001 58.2999 41.0001 58.2999 41.1001 58.2999C41.5001 58.2999 41.8001 57.9999 42.0001 57.5999L45.0001 49.1999L53.6001 51.3999C54.0001 51.4999 54.4001 51.3999 54.6001 50.9999C54.8001 50.6999 54.9001 50.2999 54.7001 49.8999L47.3001 35.8999C49.6001 32.7999 51.0001 28.8999 51.0001 24.7999C51.0001 14.3999 42.5001 5.8999 32.1001 5.8999C21.7001 5.8999 13.2001 14.3999 13.2001 24.7999C13.2001 28.9999 14.6001 32.7999 16.9001 35.8999L9.5001 49.8999C9.1001 50.1999 9.2001 50.6999 9.4001 50.9999ZM51.8001 48.7999L44.6001 46.9999C44.1001 46.8999 43.6001 47.0999 43.4001 47.5999L40.9001 54.6999L34.9001 43.4999C39.2001 42.7999 43.1001 40.6999 45.9001 37.5999L51.8001 48.7999ZM32.0001 7.8999C41.3001 7.8999 48.9001 15.4999 48.9001 24.7999C48.9001 34.0999 41.3001 41.6999 32.0001 41.6999C22.7001 41.6999 15.1001 34.0999 15.1001 24.7999C15.1001 15.4999 22.7001 7.8999 32.0001 7.8999ZM18.1001 37.5999C20.9001 40.6999 24.8001 42.7999 29.1001 43.4999L23.1001 54.6999L20.6001 47.5999C20.4001 47.0999 19.9001 46.7999 19.4001 46.9999L12.1001 48.8999L18.1001 37.5999Z" fill="url(#paint5_linear_48_475)"/>
<defs>
<linearGradient id="paint0_linear_48_475" x1="9.02634" y1="58.1232" x2="61.488" y2="14.1291" gradientUnits="userSpaceOnUse">
<stop offset="0.0833333" stop-color="#FDCF2D"/>
<stop offset="0.5" stop-color="#47B972"/>
<stop offset="0.916667" stop-color="#05B0FD"/>
</linearGradient>
<linearGradient id="paint1_linear_48_475" x1="9.02634" y1="58.1232" x2="61.488" y2="14.1291" gradientUnits="userSpaceOnUse">
<stop offset="0.0833333" stop-color="#FDCF2D"/>
<stop offset="0.5" stop-color="#47B972"/>
<stop offset="0.916667" stop-color="#05B0FD"/>
</linearGradient>
<linearGradient id="paint2_linear_48_475" x1="9.02634" y1="58.1232" x2="61.488" y2="14.1291" gradientUnits="userSpaceOnUse">
<stop offset="0.0833333" stop-color="#FDCF2D"/>
<stop offset="0.5" stop-color="#47B972"/>
<stop offset="0.916667" stop-color="#05B0FD"/>
</linearGradient>
<linearGradient id="paint3_linear_48_475" x1="9.02634" y1="58.1232" x2="61.488" y2="14.1291" gradientUnits="userSpaceOnUse">
<stop offset="0.0833333" stop-color="#FDCF2D"/>
<stop offset="0.5" stop-color="#47B972"/>
<stop offset="0.916667" stop-color="#05B0FD"/>
</linearGradient>
<linearGradient id="paint4_linear_48_475" x1="9.02634" y1="58.1232" x2="61.488" y2="14.1291" gradientUnits="userSpaceOnUse">
<stop offset="0.0833333" stop-color="#FDCF2D"/>
<stop offset="0.5" stop-color="#47B972"/>
<stop offset="0.916667" stop-color="#05B0FD"/>
</linearGradient>
<linearGradient id="paint5_linear_48_475" x1="9.02634" y1="58.1232" x2="61.488" y2="14.1291" gradientUnits="userSpaceOnUse">
<stop offset="0.0833333" stop-color="#FDCF2D"/>
<stop offset="0.5" stop-color="#47B972"/>
<stop offset="0.916667" stop-color="#05B0FD"/>
</linearGradient>
</defs>
</svg>
