<svg width="100" height="100" viewBox="0 0 100 100" fill="none" xmlns="http://www.w3.org/2000/svg">
<path d="M80 53.3002V17.3002C80 12.3002 75.9 8.2002 70.9 8.2002H10.1C5.1 8.2002 1 12.3002 1 17.3002V53.3002C1 58.3002 5.1 62.4002 10.1 62.4002H12.6V73.2002C12.6 75.2002 14.3 76.9002 16.3 76.9002C17.4 76.9002 18.4 76.4002 19.1 75.6002L30.5 62.4002H71C76 62.4002 80 58.3002 80 53.3002ZM29.3 57.4002C28.6 57.4002 27.9 57.7002 27.4 58.3002L17.6 69.7002V60.0002C17.6 58.6002 16.5 57.5002 15.1 57.5002H10.1C7.8 57.5002 6 55.7002 6 53.4002V17.4002C6 15.1002 7.8 13.3002 10.1 13.3002H71C73.3 13.3002 75.1 15.1002 75.1 17.4002V53.4002C75.1 55.7002 73.3 57.5002 71 57.5002H29.3V57.4002ZM69.5 77.2002H33.9C32.5 77.2002 31.4 76.1002 31.4 74.7002C31.4 73.3002 32.5 72.2002 33.9 72.2002H70.7C71.4 72.2002 72.1 72.5002 72.6 73.1002L82.4 84.5002V74.8002C82.4 73.4002 83.5 72.3002 84.9 72.3002H89.9C92.2 72.3002 94 70.5002 94 68.2002V32.2002C94 29.9002 92.2 28.1002 89.9 28.1002C88.5 28.1002 87.4 27.0002 87.4 25.6002C87.4 24.2002 88.5 23.1002 89.9 23.1002C94.9 23.1002 99 27.2002 99 32.2002V68.2002C99 73.2002 94.9 77.3002 89.9 77.3002H87.4V88.0002C87.4 89.6002 86.5 90.9002 85 91.4002C84.6 91.6002 84.1 91.6002 83.7 91.6002C82.7 91.6002 81.7 91.2002 80.9 90.3002L69.5 77.2002ZM43.9 36.2002C43.9 38.1002 42.4 39.6002 40.5 39.6002C38.6 39.6002 37.1 38.1002 37.1 36.2002C37.1 34.3002 38.6 32.8002 40.5 32.8002C42.4 32.8002 43.9 34.4002 43.9 36.2002ZM55.2 36.2002C55.2 38.1002 53.7 39.6002 51.8 39.6002C49.9 39.6002 48.4 38.1002 48.4 36.2002C48.4 34.3002 49.9 32.8002 51.8 32.8002C53.7 32.9002 55.2 34.4002 55.2 36.2002ZM32.6 36.2002C32.6 38.1002 31.1 39.6002 29.2 39.6002C27.3 39.6002 25.8 38.1002 25.8 36.2002C25.8 34.3002 27.3 32.8002 29.2 32.8002C31.1 32.9002 32.6 34.4002 32.6 36.2002Z" fill="url(#paint0_linear_5283_290)"/>
<defs>
<linearGradient id="paint0_linear_5283_290" x1="1" y1="91.6002" x2="84.5098" y2="1.81217" gradientUnits="userSpaceOnUse">
<stop offset="0.15" stop-color="#FDCF2D"/>
<stop offset="0.5" stop-color="#47B972"/>
<stop offset="0.85" stop-color="#05B0FD"/>
</linearGradient>
</defs>
</svg>
