<?xml version="1.0" encoding="UTF-8"?> <svg xmlns="http://www.w3.org/2000/svg" width="128" height="128" viewBox="0 0 128 128" fill="none"> <path d="M86.8943 68.887C64.2292 68.887 45.7897 87.3252 45.7897 109.99C45.7897 111.099 46.6882 111.999 47.7981 111.999H125.991C127.099 111.999 127.999 111.099 127.999 109.99C127.999 87.3265 109.558 68.887 86.8943 68.887ZM49.86 107.983C50.9071 88.4646 67.1173 72.9038 86.8943 72.9038C106.671 72.9038 122.882 88.4646 123.929 107.983H49.86Z" fill="url(#paint0_linear_2147_6974)"></path> <path d="M86.0915 63.3975C99.1593 63.3975 109.79 52.7665 109.79 39.6987C109.79 26.631 99.1593 16 86.0915 16C73.0237 16 62.3928 26.631 62.3928 39.6987C62.3928 52.7665 73.0237 63.3975 86.0915 63.3975ZM86.0915 20.0167C96.9434 20.0167 105.774 28.8455 105.774 39.6987C105.774 50.5506 96.9434 59.3807 86.0915 59.3807C75.2396 59.3807 66.4095 50.552 66.4095 39.6987C66.4095 28.8455 75.2396 20.0167 86.0915 20.0167Z" fill="url(#paint1_linear_2147_6974)"></path> <path d="M31.0628 82.9456C35.9136 82.9456 40.6507 84.2377 44.7652 86.6812C45.7198 87.2475 46.9516 86.9329 47.518 85.9796C48.0843 85.0263 47.7697 83.7945 46.8177 83.2268C42.0833 80.4151 36.6353 78.9289 31.0641 78.9289C13.9341 78.9289 0 92.8643 0 109.992C0 111.1 0.89841 112 2.00837 112H38.159C39.269 112 40.1674 111.1 40.1674 109.992C40.1674 108.883 39.269 107.983 38.159 107.983H4.09038C5.12134 94.0037 16.8248 82.9456 31.0628 82.9456Z" fill="url(#paint2_linear_2147_6974)"></path> <path d="M30.6621 72.7688C40.7026 72.7688 48.8713 64.6001 48.8713 54.5596C48.8713 44.5191 40.7026 36.3504 30.6621 36.3504C20.6216 36.3504 12.4529 44.5191 12.4529 54.5596C12.4529 64.6001 20.6216 72.7688 30.6621 72.7688ZM30.6621 40.3672C38.4881 40.3672 44.8546 46.7337 44.8546 54.5596C44.8546 62.3856 38.4881 68.7521 30.6621 68.7521C22.8362 68.7521 16.4697 62.3856 16.4697 54.5596C16.4697 46.7337 22.8362 40.3672 30.6621 40.3672Z" fill="url(#paint3_linear_2147_6974)"></path> <defs> <linearGradient id="paint0_linear_2147_6974" x1="0.0955366" y1="112.12" x2="98.1582" y2="-8.75942" gradientUnits="userSpaceOnUse"> <stop stop-color="#FDCF2D"></stop> <stop offset="0.510417" stop-color="#47B972"></stop> <stop offset="1" stop-color="#05B0FD"></stop> </linearGradient> <linearGradient id="paint1_linear_2147_6974" x1="0.0955366" y1="112.12" x2="98.1582" y2="-8.75942" gradientUnits="userSpaceOnUse"> <stop stop-color="#FDCF2D"></stop> <stop offset="0.510417" stop-color="#47B972"></stop> <stop offset="1" stop-color="#05B0FD"></stop> </linearGradient> <linearGradient id="paint2_linear_2147_6974" x1="0.0955366" y1="112.12" x2="98.1582" y2="-8.75942" gradientUnits="userSpaceOnUse"> <stop stop-color="#FDCF2D"></stop> <stop offset="0.510417" stop-color="#47B972"></stop> <stop offset="1" stop-color="#05B0FD"></stop> </linearGradient> <linearGradient id="paint3_linear_2147_6974" x1="0.0955366" y1="112.12" x2="98.1582" y2="-8.75942" gradientUnits="userSpaceOnUse"> <stop stop-color="#FDCF2D"></stop> <stop offset="0.510417" stop-color="#47B972"></stop> <stop offset="1" stop-color="#05B0FD"></stop> </linearGradient> </defs> </svg> 