<?xml version="1.0" encoding="UTF-8"?> <svg xmlns="http://www.w3.org/2000/svg" width="101" height="101" viewBox="0 0 101 101" fill="none"> <path d="M88.0082 28.1942H71.8062V27.6112C71.8062 19.8932 65.5272 13.6152 57.8092 13.6152H42.1892C34.4712 13.6152 28.1932 19.8932 28.1932 27.6112V28.1942H11.9902C11.1622 28.1942 10.4902 28.8662 10.4902 29.6942V84.8852C10.4902 85.7132 11.1622 86.3852 11.9902 86.3852H88.0092C88.8372 86.3852 89.5092 85.7132 89.5092 84.8852V29.6942C89.5082 28.8662 88.8362 28.1942 88.0082 28.1942ZM31.1932 27.6112C31.1932 21.5482 36.1262 16.6152 42.1892 16.6152H57.8092C63.8722 16.6152 68.8062 21.5482 68.8062 27.6112V28.1942H31.1932V27.6112ZM86.5082 31.1942V49.0212H56.7682C55.9402 49.0212 55.2682 49.6932 55.2682 50.5212V56.2492C55.2682 59.4412 52.6712 62.0382 49.4792 62.0382C46.2872 62.0382 43.6892 59.4412 43.6892 56.2492V50.5212C43.6892 49.6932 43.0172 49.0212 42.1892 49.0212H13.4902V31.1942H86.5082ZM13.4902 83.3862V52.0222H40.6892V56.2502C40.6892 61.0972 44.6322 65.0392 49.4792 65.0392C54.3262 65.0392 58.2682 61.0972 58.2682 56.2502V52.0222H86.5082V83.3862H13.4902Z" fill="url(#paint0_linear_60_77)"></path> <defs> <linearGradient id="paint0_linear_60_77" x1="10.4902" y1="86.3852" x2="83.0139" y2="7.63361" gradientUnits="userSpaceOnUse"> <stop offset="0.0833333" stop-color="#FDCF2D"></stop> <stop offset="0.5" stop-color="#47B972"></stop> <stop offset="0.916667" stop-color="#05B0FD"></stop> </linearGradient> </defs> </svg> 