<svg width="100" height="100" viewBox="0 0 100 100" fill="none" xmlns="http://www.w3.org/2000/svg">
<g clip-path="url(#clip0_3808_23985)">
<path d="M68.7883 49.592C71.0523 51.851 72.3003 54.87 72.3003 58.085C72.3003 61.301 71.0523 64.319 68.7883 66.578L43.8793 91.493C41.6153 93.752 38.6013 95 35.3863 95C32.1663 95 29.1533 93.752 26.8943 91.493L19.1663 83.764C16.9073 81.505 15.6593 78.492 15.6543 75.272C15.6543 72.057 16.9023 69.038 19.1613 66.779L30.3693 55.569L33.7703 58.965L22.5623 70.175C21.2043 71.529 20.4593 73.339 20.4593 75.272C20.4593 77.204 21.2043 79.015 22.5623 80.369L30.2843 88.092C32.9963 90.804 37.7713 90.804 40.4773 88.092L65.3913 63.182C66.7493 61.828 67.4943 60.018 67.4943 58.085C67.4943 56.153 66.7503 54.342 65.3913 52.988L57.6683 45.26C56.3093 43.906 54.5033 43.162 52.5723 43.162C50.6343 43.162 48.8233 43.907 47.4753 45.26L43.1533 49.582L39.7573 46.186L44.0743 41.859C46.3383 39.6 49.3523 38.357 52.5723 38.357C55.7803 38.357 58.8003 39.6 61.0633 41.859L68.7883 49.592ZM80.8333 16.235L73.1043 8.507C70.8463 6.243 67.8273 5 64.6113 5C61.3913 5 58.3783 6.243 56.1143 8.507L31.2003 33.417C28.9423 35.681 27.6943 38.7 27.6943 41.915C27.6943 45.13 28.9423 48.149 31.2003 50.408L38.9283 58.136C41.1923 60.4 44.2063 61.643 47.4213 61.643C50.6413 61.643 53.6583 60.4 55.9233 58.136L60.2653 53.794L56.8693 50.393L52.5233 54.74C49.8213 57.447 45.0323 57.447 42.3303 54.74L34.5973 47.012C33.2483 45.659 32.4993 43.847 32.4993 41.915C32.4993 39.978 33.2493 38.172 34.5973 36.818L59.5153 11.903C60.8693 10.549 62.6803 9.805 64.6123 9.805C66.5403 9.805 68.3503 10.55 69.7043 11.903L77.4373 19.631C78.7913 20.985 79.5353 22.796 79.5353 24.733C79.5353 26.66 78.7913 28.476 77.4373 29.825L66.2523 41.009L69.6533 44.405L80.8273 33.225C83.0923 30.966 84.3403 27.947 84.3453 24.732C84.3453 21.518 83.0973 18.499 80.8333 16.235Z" fill="url(#paint0_linear_3808_23985)"/>
</g>
<defs>
<linearGradient id="paint0_linear_3808_23985" x1="84.3453" y1="5" x2="-2.46659" y2="71.2577" gradientUnits="userSpaceOnUse">
<stop stop-color="#05B0FD"/>
<stop offset="0.5" stop-color="#47B972"/>
<stop offset="1" stop-color="#FDCF2D"/>
</linearGradient>
<clipPath id="clip0_3808_23985">
<rect width="100" height="100" fill="white"/>
</clipPath>
</defs>
</svg>
