<svg width="90" height="90" viewBox="0 0 90 90" fill="none" xmlns="http://www.w3.org/2000/svg">
<path d="M54.1478 73.4918C53.7558 73.4918 53.3608 73.3778 53.0138 73.1388C52.0998 72.5118 51.8678 71.2618 52.4948 70.3488C53.3398 69.1188 53.9458 67.0328 54.1828 65.2118C53.9538 65.2818 53.7358 65.3508 53.5468 65.4088C50.9348 66.2248 49.9568 66.5308 49.0128 65.4168C48.4918 64.8028 48.3888 63.9028 48.7508 63.1838C50.2848 60.1428 50.8048 55.1458 49.8858 52.2688C49.5478 51.2128 50.1308 50.0838 51.1868 49.7478C52.2398 49.4088 53.3708 49.9918 53.7078 51.0488C54.5868 53.7998 54.5298 57.7088 53.6978 61.1638C55.6568 60.5758 56.4888 60.4538 57.3318 61.0088C57.8338 61.3388 58.1858 61.9158 58.2498 62.5148C58.5368 65.2428 57.6828 69.8828 55.8028 72.6208C55.4158 73.1878 54.7868 73.4918 54.1478 73.4918Z" fill="url(#paint0_linear_49_490)"/>
<path d="M50.1549 84.9962H24.0279C15.5569 84.9962 11.8049 80.2392 11.1189 75.7872C10.3779 70.9872 13.0569 66.3442 17.3489 64.9862C18.4089 64.6542 19.5339 65.2372 19.8679 66.2942C20.2019 67.3512 19.6169 68.4792 18.5599 68.8132C16.1369 69.5802 14.6429 72.3152 15.0839 75.1762C15.6459 78.8122 18.9879 80.9832 24.0269 80.9832H50.1539C50.4589 80.9832 50.6299 80.8002 50.7049 80.6922C50.7899 80.5682 50.8719 80.3692 50.7779 80.1242C50.5779 79.6012 50.2509 79.0432 48.8899 79.0432H45.7989C44.2559 79.0432 42.6419 78.1692 41.8739 76.9192C41.2749 75.9432 41.2189 74.8182 41.7199 73.8322C42.1899 72.9052 42.5549 69.7122 41.1249 67.7342C40.1719 66.4162 38.5629 65.9522 36.2049 66.3072C35.1099 66.4792 34.0859 65.7212 33.9199 64.6252C33.7529 63.5292 34.5059 62.5062 35.6019 62.3402C40.4959 61.5912 43.0759 63.5822 44.3759 65.3822C46.5119 68.3352 46.4549 72.5682 45.5839 74.9792C45.6619 75.0092 45.7399 75.0292 45.7989 75.0292H48.8899C51.6209 75.0292 53.6229 76.3302 54.5259 78.6902C55.0689 80.1102 54.8769 81.7092 54.0099 82.9672C53.1369 84.2372 51.6949 84.9962 50.1549 84.9962Z" fill="url(#paint1_linear_49_490)"/>
<path d="M65.0072 84.9962H59.8932C58.7852 84.9962 57.8862 84.0982 57.8862 82.9892C57.8862 81.8802 58.7842 80.9822 59.8932 80.9822H65.0072C65.3122 80.9822 65.4832 80.7992 65.5582 80.6912C65.6432 80.5672 65.7252 80.3682 65.6312 80.1232C65.4312 79.6002 65.1042 79.0422 63.7442 79.0422H63.5052C61.5122 79.0132 60.1352 78.4452 59.2662 77.3092C57.7532 75.3302 58.4732 72.5282 59.3832 68.9802C60.5272 64.5252 62.0922 58.4242 59.9572 51.7462C59.6192 50.6902 60.2012 49.5602 61.2572 49.2242C62.3152 48.8832 63.4422 49.4682 63.7792 50.5242C66.2662 58.3042 64.4642 65.3302 63.2702 69.9782C62.8022 71.8012 62.1622 74.2952 62.4602 74.8822C62.4602 74.8922 62.7182 75.0192 63.5332 75.0302L63.7432 75.0292C66.4742 75.0292 68.4752 76.3302 69.3782 78.6902C69.9212 80.1102 69.7292 81.7092 68.8622 82.9672C67.9882 84.2372 66.5472 84.9962 65.0072 84.9962Z" fill="url(#paint2_linear_49_490)"/>
<path d="M63.258 18.9789C56.284 13.0489 44.1541 16.6159 40.1671 17.7869C37.2131 18.6549 34.5291 18.7909 32.5691 18.8899C30.5331 18.9939 29.3041 19.0559 28.4391 19.9389C26.9441 21.4659 26.3571 24.0029 26.8701 26.7259C27.4091 29.5909 29.0551 31.8979 31.2701 32.8969L31.5641 33.0289C34.5021 34.3519 41.384 37.4509 42.232 40.9089C42.522 42.0879 40.465 44.0309 38.0861 46.2819C32.6751 51.3979 24.4971 59.1299 23.6631 74.8129C23.6041 75.9189 24.4541 76.8649 25.5601 76.9229C25.5961 76.9249 25.6321 76.9259 25.6681 76.9259C26.7271 76.9259 27.6131 76.0959 27.6701 75.0259C28.4201 60.9429 35.6 54.1539 40.8431 49.1969C44.2701 45.9569 46.9761 43.3979 46.1311 39.9509C44.8171 34.5939 37.2681 31.1949 33.2121 29.3689L32.9211 29.2379C31.9141 28.7839 31.1071 27.5369 30.8141 25.9819C30.8031 25.9249 30.8041 25.8729 30.7951 25.8169C31.1761 26.1879 31.6941 26.4189 32.2681 26.4189C33.4351 26.4189 34.3801 25.4729 34.3801 24.3069C34.3801 23.7369 34.1521 23.2229 33.7861 22.8429C35.7681 22.7259 38.4111 22.4859 41.2981 21.6369C50.7451 18.8629 57.0771 18.9919 60.6581 22.0369C63.8471 24.7489 64.9761 30.0299 64.0131 37.7339C63.7011 40.2249 62.1211 42.5459 60.6301 42.6999C59.3181 42.8229 57.1731 41.0369 55.2921 35.5529C54.9321 34.5049 53.7911 33.9489 52.7421 34.3059C51.6941 34.6649 51.1361 35.8069 51.4951 36.8559C54.4591 45.4959 58.322 46.9749 61.043 46.6929C64.922 46.2919 67.5201 42.0349 67.9951 38.2329C69.1381 29.1019 67.543 22.6239 63.258 18.9789Z" fill="url(#paint3_linear_49_490)"/>
<path d="M67.7088 18.178C67.2328 18.178 66.7558 18.009 66.3728 17.667C65.5468 16.929 65.4758 15.66 66.2138 14.834L73.3178 6.88401C74.0558 6.05801 75.3238 5.98701 76.1508 6.72501C76.9768 7.46301 77.0478 8.73201 76.3098 9.55801L69.2058 17.508C68.8098 17.951 68.2608 18.178 67.7088 18.178Z" fill="url(#paint4_linear_49_490)"/>
<path d="M71.271 23.0618C70.392 23.0618 69.585 22.4798 69.338 21.5918C69.041 20.5248 69.667 19.4178 70.734 19.1208L79.78 16.6068C80.85 16.3118 81.955 16.9358 82.251 18.0028C82.548 19.0698 81.922 20.1768 80.855 20.4738L71.809 22.9878C71.63 23.0378 71.449 23.0618 71.271 23.0618Z" fill="url(#paint5_linear_49_490)"/>
<path d="M62.886 14.7092C62.788 14.7092 62.689 14.7022 62.589 14.6882C61.493 14.5262 60.735 13.5052 60.898 12.4092L62.26 3.19918C62.422 2.10218 63.455 1.34618 64.539 1.50818C65.635 1.67018 66.393 2.69118 66.23 3.78718L64.868 12.9972C64.721 13.9922 63.863 14.7092 62.886 14.7092Z" fill="url(#paint6_linear_49_490)"/>
<path d="M47.5959 28.2489C48.7623 28.2489 49.7079 27.3033 49.7079 26.1369C49.7079 24.9705 48.7623 24.0249 47.5959 24.0249C46.4295 24.0249 45.4839 24.9705 45.4839 26.1369C45.4839 27.3033 46.4295 28.2489 47.5959 28.2489Z" fill="url(#paint7_linear_49_490)"/>
<defs>
<linearGradient id="paint0_linear_49_490" x1="10.6851" y1="84.7146" x2="94.0133" y2="16.1043" gradientUnits="userSpaceOnUse">
<stop offset="0.0833333" stop-color="#FDCF2D"/>
<stop offset="0.5" stop-color="#47B972"/>
<stop offset="0.916667" stop-color="#05B0FD"/>
</linearGradient>
<linearGradient id="paint1_linear_49_490" x1="10.6851" y1="84.7146" x2="94.0133" y2="16.1043" gradientUnits="userSpaceOnUse">
<stop offset="0.0833333" stop-color="#FDCF2D"/>
<stop offset="0.5" stop-color="#47B972"/>
<stop offset="0.916667" stop-color="#05B0FD"/>
</linearGradient>
<linearGradient id="paint2_linear_49_490" x1="10.6851" y1="84.7146" x2="94.0133" y2="16.1043" gradientUnits="userSpaceOnUse">
<stop offset="0.0833333" stop-color="#FDCF2D"/>
<stop offset="0.5" stop-color="#47B972"/>
<stop offset="0.916667" stop-color="#05B0FD"/>
</linearGradient>
<linearGradient id="paint3_linear_49_490" x1="10.6851" y1="84.7146" x2="94.0133" y2="16.1043" gradientUnits="userSpaceOnUse">
<stop offset="0.0833333" stop-color="#FDCF2D"/>
<stop offset="0.5" stop-color="#47B972"/>
<stop offset="0.916667" stop-color="#05B0FD"/>
</linearGradient>
<linearGradient id="paint4_linear_49_490" x1="10.6851" y1="84.7146" x2="94.0133" y2="16.1043" gradientUnits="userSpaceOnUse">
<stop offset="0.0833333" stop-color="#FDCF2D"/>
<stop offset="0.5" stop-color="#47B972"/>
<stop offset="0.916667" stop-color="#05B0FD"/>
</linearGradient>
<linearGradient id="paint5_linear_49_490" x1="10.6851" y1="84.7146" x2="94.0133" y2="16.1043" gradientUnits="userSpaceOnUse">
<stop offset="0.0833333" stop-color="#FDCF2D"/>
<stop offset="0.5" stop-color="#47B972"/>
<stop offset="0.916667" stop-color="#05B0FD"/>
</linearGradient>
<linearGradient id="paint6_linear_49_490" x1="10.6851" y1="84.7146" x2="94.0133" y2="16.1043" gradientUnits="userSpaceOnUse">
<stop offset="0.0833333" stop-color="#FDCF2D"/>
<stop offset="0.5" stop-color="#47B972"/>
<stop offset="0.916667" stop-color="#05B0FD"/>
</linearGradient>
<linearGradient id="paint7_linear_49_490" x1="10.6851" y1="84.7146" x2="94.0133" y2="16.1043" gradientUnits="userSpaceOnUse">
<stop offset="0.0833333" stop-color="#FDCF2D"/>
<stop offset="0.5" stop-color="#47B972"/>
<stop offset="0.916667" stop-color="#05B0FD"/>
</linearGradient>
</defs>
</svg>
