<svg width="100" height="100" viewBox="0 0 100 100" fill="none" xmlns="http://www.w3.org/2000/svg">
<path d="M91.7 25.9999C89.6 24.8999 89.1 23.6999 88.1 21.6999C87.5 20.5999 86.9 19.5999 85.9 18.9999C84.8 18.2999 82.4 18.3999 81.6 17.4999C80.8 16.4999 81.5 14.2999 81.6 13.1999C81.8 11.4999 81.5 9.79987 79.9 9.59987C79.6 9.49987 79.3 9.49986 78.9 9.69986C78.6 9.79986 78.4 9.89986 78.2 9.99986C75 11.5999 72.5 14.6999 70.2 17.1999C66.4 21.2999 62.7 25.5999 58.6 29.5999C55.3 32.7999 52.3 35.5999 47.5 35.2999C40.8 34.8999 34.3 32.9999 27.7 32.7999C23.2 32.5999 18.1 33.0999 14.4 35.8999C11.4 32.5999 9.10001 28.8999 8.50001 24.3999C8.2 22.3999 5.20001 23.1999 5.40001 25.1999C6.10001 30.1999 8.80001 34.3999 12.1 37.9999C8.20001 42.9999 8.60001 50.0999 10.6 55.7999C11.1 57.2999 11.8 58.8999 11.9 60.4999C12 62.4999 11.2 64.6999 10.6 66.5999C9.60001 69.6999 8.8 72.5999 9.2 75.7999C9.8 80.5999 11.4 89.2999 17.4 90.1999C19.5 90.4999 22.2 89.8999 23.1 87.7999C24.2 85.2999 21.7 82.1999 20.9 79.8999C20.2 77.8999 19.4 75.3999 20.5 73.4999C21.4 71.9999 23.3 70.8999 24.5 69.7999C25.6 68.7999 26.7 67.7999 27.5 66.4999C28.4 65.0999 28.4 63.3999 29 61.9999C30.4 58.8999 36.6 58.0999 39.6 57.9999C42.2 57.7999 44.8 58.0999 47.3 58.6999C53.6 60.2999 58.7 63.1999 59.7 69.8999C60.6 75.4999 60.5 83.2999 64.5 87.7999C67 90.5999 75.3 91.7999 74.5 86.0999C74.3 84.7999 73.6 83.5999 72.9 82.5999C72.3 81.6999 71.1 80.9999 70.6 80.0999C69.2 77.5999 70.1 73.0999 70.3 70.3999C70.5 68.2999 70.5 65.9999 71.2 63.9999C71.8 62.4999 72.8 61.1999 73.7 59.8999C75.2 57.6999 75.6 55.4999 75.9 52.8999C76.3 49.3999 76.3 45.8999 76.6 42.3999C76.8 39.4999 76.2 35.1999 80.2 35.2999C82 35.2999 83.4 36.4999 85.1 36.7999C86.5 37.0999 88.1 36.7999 89.5 36.3999C92.3 35.4999 94.6 33.4999 94.9 30.3999C95.2 27.9999 93.7 27.0999 91.7 25.9999ZM73.3 46.4999C73.2 49.1999 73.1 51.9999 72.6 54.6999C72.1 57.3999 70.4 58.9999 69.1 61.2999C67.5 64.2999 67.4 67.6999 67.2 70.9999C67 73.7999 66.7 76.7999 67.3 79.5999C67.7 81.5999 68.7 82.2999 70 83.7999C71.2 85.1999 72.6 87.0999 69.7 86.9999C67.9 86.8999 66.8 85.6999 66 84.1999C62.9 78.4999 64.2 71.3999 62 65.4999C58.9 56.9999 46.7 54.1999 38.6 54.9999C35.5 55.2999 32.4 55.9999 29.6 57.4999C26.9 58.8999 26.4 59.6999 25.8 62.4999C24.3 68.5999 16.2 69.7999 17 76.7999C17.3 79.4999 18.3 81.7999 19.4 84.1999C20 85.3999 21.2 86.6999 18.8 87.1999C18 87.3999 17.2 87.0999 16.6 86.6999C15.3 85.8999 14.6 83.9999 14.1 82.6999C12.8 79.2999 11.8 75.1999 12.5 71.5999C13.1 68.4999 14.7 65.5999 15.1 62.3999C15.5 59.4999 14.4 56.8999 13.4 54.2999C12.1 50.6999 11.8 46.7999 13.1 43.0999C15.4 36.5999 22.6 35.8999 28.6 36.1999C35.2 36.5999 41.6 38.3999 48.2 38.6999C52.5 38.8999 55.6 36.7999 58.7 33.9999C60.1 32.7999 61.4 31.4999 62.7 30.1999C65.2 34.4999 69 37.3999 73.6 39.4999C73.2 41.9999 73.4 44.6999 73.3 46.4999ZM89.8 32.9999C85.2 35.8999 79.6 29.1999 75.3 33.9999C74.7 34.5999 74.3 35.3999 74 36.2999C70.1 34.2999 66.9 31.6999 64.9 27.7999C66.7 25.8999 68.5 23.8999 70.3 21.8999C72.1 19.9999 73.8 17.9999 75.7 16.1999C76.5 15.3999 77.4 14.3999 78.4 13.6999C78.4 13.6999 78.4 13.6999 78.4 13.7999C78.3 14.2999 78.2 14.7999 78.2 15.2999C78.1 16.4999 78.1 17.7999 78.7 18.8999C79.7 20.7999 81.8 20.7999 83.6 21.5999C86.1 22.6999 86.1 26.0999 88.3 27.7999C89.1 28.3999 90 28.5999 90.8 29.1999C91.5 29.6999 91.9 29.3999 92 30.3999C92 31.2999 90.6 32.4999 89.8 32.9999Z" fill="url(#paint0_linear_7_1510)"/>
<defs>
<linearGradient id="paint0_linear_7_1510" x1="5" y1="90" x2="86.9055" y2="2.42914" gradientUnits="userSpaceOnUse">
<stop offset="0.0833333" stop-color="#FDCF2D"/>
<stop offset="0.5" stop-color="#47B972"/>
<stop offset="0.916667" stop-color="#05B0FD"/>
</linearGradient>
</defs>
</svg>
