<svg width="100" height="100" viewBox="0 0 100 100" fill="none" xmlns="http://www.w3.org/2000/svg">
<path fill-rule="evenodd" clip-rule="evenodd" d="M39.4001 11.5C39.4001 12.8 38.3001 13.9 37.0001 13.9C35.7001 13.9 34.6001 12.8 34.6001 11.5V4.9C34.6001 3.6 35.7001 2.5 37.0001 2.5C38.3001 2.5 39.4001 3.6 39.4001 4.9V11.5ZM80.2 47.2998C81.7 47.4998 83.2 48.1998 84.4 49.3998C85.9 50.8998 86.7 52.7998 86.7 54.8998C86.7 56.8998 85.9 58.8998 84.5 60.2998L78.7 66.0998C78.2 66.6998 77.5 67.0998 76.8 67.4998C72.3 74.5998 66.2 81.1998 61.7 85.5998C57.4 89.7998 51.2 91.5998 45.3 90.1998L44 89.8998L37 96.8998C36.5 97.3998 35.9 97.5998 35.3 97.5998C34.7 97.5998 34.1 97.3998 33.6 96.8998C32.7 95.8998 32.7 94.3998 33.6 93.4998L41.6 85.4998C42.2 84.9998 43 84.6998 43.8 84.8998L46.4 85.4998C50.8 86.4998 55.2 85.1998 58.4 82.0998C62 78.4998 66.8 73.3998 70.8 67.7998C69.8 67.3998 68.8 66.7998 68 65.9998C66.8 64.7998 66.1 63.2998 65.9 61.7998C65.6857 61.7998 65.5 61.8285 65.3277 61.8552C65.1785 61.8783 65.0393 61.8998 64.9 61.8998C62.9 61.8998 61 61.1998 59.5 59.6998C58.4 58.4998 57.7 57.0998 57.4 55.5998C57.2608 55.5998 57.1 55.6213 56.9277 55.6444L56.9277 55.6444C56.7287 55.6711 56.5144 55.6998 56.3 55.6998C55.4 55.6998 54.6 55.5998 53.8 55.2998C52.9 62.4998 48.2 67.1998 45.2 68.8998C44.8 69.0998 44.4 69.1998 44 69.1998C43.1 69.1998 42.3 68.7998 41.9 67.9998C41.3 66.7998 41.7 65.3998 42.8 64.6998C42.8074 64.6949 42.8191 64.6874 42.8351 64.6771L42.8359 64.6766L42.8366 64.6762C43.4858 64.2601 50.8447 59.5435 48.7 49.5998C48.2 47.1998 48.9 44.5998 50.8 42.6998L74.1 19.0998C75.2 17.9998 75.2 16.1998 74.1 15.0998C73 13.9998 71.2 13.9998 70.1 15.0998L39.4 45.7998C38.8 46.3998 38 46.6998 37.2 46.4998C36.5 46.3998 35.8 45.7998 35.5 45.0998C35.5 45.0998 33.1 39.4998 29.5 34.9998C28.3 33.4998 26.6 31.8998 24.6 30.4998C22.9 29.1998 20.5 29.1998 18.7 30.4998C18 30.9998 17.8 31.8998 18.3 32.5998L22.5 39.0998C25.2 43.2998 26.6 48.2998 26.5 53.2998L26.2 65.6998C26.1 68.1998 25.1 70.4998 23.4 72.1998L17.7 77.8998C17.2 78.3998 16.6 78.5998 16 78.5998C15.4 78.5998 14.8 78.3998 14.3 77.8998C13.4 76.8998 13.4 75.3998 14.3 74.4998L20 68.7998C20.9 67.8998 21.4 66.7998 21.4 65.5998L21.7 53.1998C21.8 49.0998 20.7 45.0998 18.5 41.6998L14.3 35.1998C12.4 32.2998 13.1 28.5998 15.9 26.5998C19.3 24.0998 23.9 24.0998 27.4 26.5998C29.8 28.2998 31.8 30.0998 33.3 31.9998C35.6 34.7998 37.4 37.8998 38.5 40.0998L66.8 11.7998C69.8 8.7998 74.6 8.7998 77.6 11.7998C80.6 14.7998 80.6 19.5998 77.6 22.5998L69.5 30.6998C70.4 31.0998 71.2 31.5998 71.9 32.2998C73.3 33.6998 74.1 35.6998 74.1 37.6998C74.1 38.0998 74.1 38.3998 74 38.7998C75.5 39.0998 77 39.7998 78.1 40.8998C79.8 42.6998 80.5 44.9998 80.2 47.2998ZM54.2 50.0998C55.3 51.1998 57.1 51.1998 58.2 50.0998L68.5 39.7998C69 39.2998 69.3 38.5998 69.3 37.7998C69.3 37.0998 69 36.2998 68.5 35.7998C67.4 34.6998 65.6 34.6998 64.5 35.7998L54.2 46.0998C53.1 47.1998 53.1 48.9998 54.2 50.0998ZM62.8 56.2998C63.9 57.3998 65.7 57.3998 66.8 56.2998L74.7 48.3998C75.8 47.2998 75.8 45.4998 74.7 44.3998C74.2 43.8998 73.4 43.5998 72.7 43.5998C72 43.5998 71.3 43.7998 70.7 44.3998L62.8 52.2998C61.7 53.3998 61.7 55.1998 62.8 56.2998ZM71.2 62.6998C72.3 63.7998 74.1 63.7998 75.2 62.6998L81 56.8998C81.6 56.2998 81.9 55.5998 81.8 54.8998C81.8 54.1998 81.5 53.3998 81 52.8998C79.9 51.7998 78.1 51.7998 77 52.8998L71.2 58.6998C70.1 59.7998 70.1 61.5998 71.2 62.6998ZM24.8999 17.5001C25.3999 18.0001 25.9999 18.2001 26.5999 18.2001C27.1999 18.2001 27.7999 18.0001 28.2999 17.5001C29.1999 16.6001 29.1999 15.1001 28.2999 14.1001L23.5999 9.4001C22.6999 8.5001 21.0999 8.5001 20.1999 9.4001C19.2999 10.3001 19.2999 11.8001 20.1999 12.8001L24.8999 17.5001ZM49.0999 17.5001C48.5999 18.0001 47.9999 18.2001 47.3999 18.2001C46.7999 18.2001 46.1999 18.0001 45.6999 17.5001C44.7999 16.5001 44.7999 15.0001 45.6999 14.1001L50.3999 9.4001C51.2999 8.5001 52.8999 8.5001 53.7999 9.4001C54.6999 10.4001 54.6999 11.9001 53.7999 12.8001L49.0999 17.5001Z" fill="url(#paint0_linear_5281_5201)"/>
<defs>
<linearGradient id="paint0_linear_5281_5201" x1="13.2329" y1="97.5998" x2="103.237" y2="33.979" gradientUnits="userSpaceOnUse">
<stop offset="0.15" stop-color="#FDCF2D"/>
<stop offset="0.5" stop-color="#47B972"/>
<stop offset="0.85" stop-color="#05B0FD"/>
</linearGradient>
</defs>
</svg>
