<?xml version="1.0" encoding="UTF-8"?> <svg xmlns="http://www.w3.org/2000/svg" width="128" height="128" viewBox="0 0 128 128" fill="none"> <path d="M126.35 0H40.5841V35.3632H2V104.547H23.5516L45.7274 128L45.7387 104.547H91.6975V69.1852H126.35V0ZM86.8727 99.722H40.9171L40.909 115.878L25.6318 99.722H6.82803V40.1912H40.5857V69.1868H59.132V90.9105L81.266 69.1868H86.8727V99.722ZM121.523 64.3604H79.292L63.9568 79.4108V64.3604H45.4105V4.82642H121.523V64.3604Z" fill="url(#paint0_linear_2146_6883)"></path> <path d="M63.3446 26.5606C63.3526 26.5606 63.3607 26.5606 63.3687 26.5606C67.2315 26.5445 70.3654 23.3864 70.351 19.5236C70.3445 17.651 69.6093 15.8925 68.2788 14.5733C66.9483 13.2541 65.1674 12.543 63.314 12.5382C61.4398 12.5446 59.6813 13.2798 58.3621 14.6119C57.0429 15.9424 56.3205 17.7041 56.3302 19.5751C56.3463 23.433 59.4899 26.5606 63.3446 26.5606ZM61.7889 18.0113C62.1991 17.5963 62.7477 17.3678 63.3317 17.3662C63.3349 17.3662 63.3382 17.3662 63.3414 17.3662C63.9205 17.3662 64.4675 17.5914 64.8794 18.0001C65.2929 18.4119 65.5213 18.9589 65.5245 19.5413C65.5277 20.7463 64.5528 21.7293 63.3494 21.7357C63.3462 21.7357 63.3446 21.7357 63.3414 21.7357C62.1396 21.7357 61.1614 20.7608 61.155 19.5574C61.1534 18.9734 61.377 18.4248 61.7889 18.0113Z" fill="url(#paint1_linear_2146_6883)"></path> <path d="M85.074 26.5594C85.082 26.5594 85.09 26.5594 85.0981 26.5594C86.9724 26.5514 88.7292 25.8146 90.0484 24.4857C91.3676 23.1568 92.09 21.3936 92.0803 19.5209C92.0739 17.6499 91.3387 15.8931 90.0098 14.5738C88.6809 13.253 86.9337 12.5162 85.0466 12.5387C83.1707 12.5451 81.4107 13.282 80.0899 14.6124C78.7707 15.9413 78.0499 17.7046 78.058 19.5756C78.0756 23.4319 81.2193 26.5594 85.074 26.5594ZM83.5182 18.0119C83.9301 17.5968 84.4787 17.3683 85.0659 17.3651C85.0691 17.3651 85.0724 17.3651 85.0756 17.3651C85.6531 17.3651 86.1985 17.5903 86.6088 17.999C87.0222 18.4092 87.2507 18.9578 87.2539 19.5402V19.5434C87.2555 20.1258 87.0319 20.6744 86.6216 21.0879C86.2114 21.503 85.6628 21.7314 85.0804 21.7346C85.0772 21.7346 85.0756 21.7346 85.0724 21.7346C83.8706 21.7346 82.8924 20.7597 82.886 19.5563C82.8844 18.9723 83.108 18.4237 83.5182 18.0119Z" fill="url(#paint2_linear_2146_6883)"></path> <defs> <linearGradient id="paint0_linear_2146_6883" x1="2.09281" y1="128.16" x2="134.947" y2="8.83727" gradientUnits="userSpaceOnUse"> <stop stop-color="#FDCF2D"></stop> <stop offset="0.510417" stop-color="#47B972"></stop> <stop offset="1" stop-color="#05B0FD"></stop> </linearGradient> <linearGradient id="paint1_linear_2146_6883" x1="2.09281" y1="128.16" x2="134.947" y2="8.83727" gradientUnits="userSpaceOnUse"> <stop stop-color="#FDCF2D"></stop> <stop offset="0.510417" stop-color="#47B972"></stop> <stop offset="1" stop-color="#05B0FD"></stop> </linearGradient> <linearGradient id="paint2_linear_2146_6883" x1="2.09281" y1="128.16" x2="134.947" y2="8.83727" gradientUnits="userSpaceOnUse"> <stop stop-color="#FDCF2D"></stop> <stop offset="0.510417" stop-color="#47B972"></stop> <stop offset="1" stop-color="#05B0FD"></stop> </linearGradient> </defs> </svg> 