<?xml version="1.0" encoding="UTF-8"?> <svg xmlns="http://www.w3.org/2000/svg" width="101" height="101" viewBox="0 0 101 101" fill="none"> <path d="M91.1282 42.7118C91.1272 42.6928 91.1242 42.6748 91.1222 42.6548C91.1092 42.4748 91.0692 42.3028 90.9992 42.1458C90.9932 42.1328 90.9862 42.1228 90.9802 42.1098C90.8992 41.9428 90.7902 41.7928 90.6562 41.6668C90.6512 41.6618 90.6492 41.6558 90.6442 41.6508L77.2542 29.4148V17.2028C77.2542 16.3738 76.5822 15.7028 75.7542 15.7028H62.2322L50.8042 5.25981C50.2322 4.73681 49.3552 4.73581 48.7812 5.25981L37.3452 15.7028H24.6562C23.8272 15.7028 23.1562 16.3738 23.1562 17.2028V28.6598L8.93922 41.6508C8.93422 41.6558 8.93222 41.6618 8.92722 41.6668C8.79322 41.7928 8.68422 41.9428 8.60322 42.1098C8.59722 42.1228 8.58922 42.1338 8.58322 42.1468C8.51322 42.3038 8.47322 42.4748 8.46022 42.6548C8.45922 42.6748 8.45522 42.6938 8.45422 42.7138C8.45422 42.7298 8.44922 42.7438 8.44922 42.7598V93.6348C8.44922 93.7988 8.48222 93.9548 8.53122 94.1028C8.53822 94.1228 8.54222 94.1418 8.54922 94.1618C8.61422 94.3338 8.71022 94.4888 8.82922 94.6238C8.83622 94.6318 8.83822 94.6418 8.84522 94.6498C8.85122 94.6568 8.85922 94.6608 8.86622 94.6678C8.91522 94.7188 8.96922 94.7638 9.02522 94.8078C9.05022 94.8268 9.07222 94.8498 9.09822 94.8678C9.16422 94.9138 9.23522 94.9508 9.30822 94.9848C9.32622 94.9928 9.34222 95.0058 9.36022 95.0128C9.54122 95.0898 9.74022 95.1338 9.94922 95.1338H89.6312C90.4592 95.1338 91.1312 94.4618 91.1312 93.6338V42.7588C91.1332 42.7428 91.1292 42.7278 91.1282 42.7118ZM11.4512 46.3028L23.5842 57.3848C23.6002 57.4008 23.6182 57.4158 23.6352 57.4308L35.3912 68.1698L11.4512 90.2128V46.3028ZM37.6142 70.2008L49.1932 80.7768C49.4802 81.0388 49.8422 81.1698 50.2052 81.1698C50.5672 81.1698 50.9302 81.0388 51.2162 80.7778L62.7582 70.2498L85.8622 92.1328H13.7952L37.6142 70.2008ZM64.9802 68.2238L88.1332 47.1058V90.1528L64.9802 68.2238ZM87.9272 43.2318L77.2532 52.9668V33.4788L87.9272 43.2318ZM49.7912 8.39881L57.7852 15.7028H41.7942L49.7912 8.39881ZM74.2542 18.7028V30.0948C74.2542 30.1178 74.2532 30.1388 74.2542 30.1608V55.7038L61.7122 67.1438C61.7032 67.1528 61.6912 67.1558 61.6822 67.1648C61.6782 67.1688 61.6772 67.1748 61.6732 67.1798L50.2062 77.6388L26.1562 55.6718V18.7028H74.2542ZM23.1562 52.9318L12.0972 42.8298L23.1562 32.7238V52.9318Z" fill="url(#paint0_linear_60_83)"></path> <path d="M50.2053 61.1043C53.6563 61.1043 56.9713 60.0453 59.7903 58.0423C60.4663 57.5633 60.6253 56.6263 60.1443 55.9513C59.6653 55.2743 58.7253 55.1163 58.0533 55.5973C55.7433 57.2373 53.0303 58.1043 50.2043 58.1043C42.7563 58.1043 36.6973 52.0423 36.6973 44.5903C36.6973 37.1353 42.7563 31.0703 50.2043 31.0703C55.6593 31.0703 60.0523 33.7913 62.3123 38.5393V46.6753C62.3123 48.0243 61.2113 49.1213 59.8593 49.1213C58.5733 49.1213 57.3683 47.9183 57.2653 46.5993C57.4413 45.9583 57.5433 45.2863 57.5433 44.5893C57.5433 40.3893 54.1223 36.9713 49.9183 36.9713C45.7133 36.9713 42.2933 40.3883 42.2933 44.5893C42.2933 48.7903 45.7133 52.2073 49.9183 52.2073C52.0893 52.2073 54.0463 51.2913 55.4363 49.8313C56.4823 51.2013 58.1053 52.1213 59.8583 52.1213C62.8653 52.1213 65.3113 49.6783 65.3113 46.6753V38.1893C65.3113 38.1823 65.3093 38.1753 65.3093 38.1683C65.3083 38.1243 65.3003 38.0803 65.2963 38.0363C65.2903 37.9803 65.2873 37.9233 65.2753 37.8693C65.2703 37.8443 65.2593 37.8203 65.2523 37.7963C65.2323 37.7233 65.2113 37.6513 65.1813 37.5833C65.1793 37.5803 65.1793 37.5763 65.1773 37.5723C62.4893 31.6223 56.8923 28.0703 50.2023 28.0703C41.1003 28.0703 33.6953 35.4813 33.6953 44.5903C33.6983 53.6963 41.1033 61.1043 50.2053 61.1043ZM49.9203 49.2083C47.3703 49.2083 45.2953 47.1363 45.2953 44.5903C45.2953 42.0443 47.3703 39.9723 49.9203 39.9723C52.4703 39.9723 54.5453 42.0433 54.5453 44.5903C54.5453 47.1373 52.4703 49.2083 49.9203 49.2083Z" fill="url(#paint1_linear_60_83)"></path> <defs> <linearGradient id="paint0_linear_60_83" x1="8.44922" y1="95.1338" x2="98.3693" y2="12.7686" gradientUnits="userSpaceOnUse"> <stop offset="0.0833333" stop-color="#FDCF2D"></stop> <stop offset="0.5" stop-color="#47B972"></stop> <stop offset="0.916667" stop-color="#05B0FD"></stop> </linearGradient> <linearGradient id="paint1_linear_60_83" x1="8.44922" y1="95.1338" x2="98.3693" y2="12.7686" gradientUnits="userSpaceOnUse"> <stop offset="0.0833333" stop-color="#FDCF2D"></stop> <stop offset="0.5" stop-color="#47B972"></stop> <stop offset="0.916667" stop-color="#05B0FD"></stop> </linearGradient> </defs> </svg> 