<?xml version="1.0" encoding="UTF-8"?> <svg xmlns="http://www.w3.org/2000/svg" width="101" height="101" viewBox="0 0 101 101" fill="none"> <path d="M96.364 39.436C95.839 37.821 94.469 36.666 92.79 36.423L66.118 32.547L54.19 8.378C53.439 6.856 51.918 5.91 50.22 5.91C48.523 5.91 47.001 6.856 46.249 8.378L34.321 32.547L7.64899 36.423C5.96799 36.667 4.59899 37.821 4.07399 39.436C3.54899 41.051 3.97899 42.79 5.19499 43.976L24.495 62.789L19.92 89.466C19.635 91.125 20.3 92.777 21.654 93.777C22.434 94.353 23.354 94.647 24.28 94.647C24.962 94.647 25.647 94.488 26.283 94.166L50.773 81.771L74.075 94.021C75.578 94.812 77.365 94.683 78.738 93.684C80.112 92.686 80.787 91.026 80.5 89.353L75.943 62.789L95.243 43.977C96.459 42.791 96.889 41.051 96.364 39.436ZM93.15 41.828L72.72 61.742L77.543 89.86C77.637 90.408 77.424 90.93 76.975 91.257C76.526 91.585 75.964 91.626 75.472 91.366L50.8 78.395L24.929 91.489C24.435 91.738 23.879 91.69 23.436 91.364C22.993 91.037 22.784 90.517 22.877 89.974L27.719 61.743L7.28899 41.829C6.89099 41.441 6.75599 40.894 6.92799 40.365C7.09999 39.837 7.53099 39.473 8.08099 39.393L36.314 35.29L48.94 9.707C49.186 9.208 49.665 8.911 50.22 8.911C50.776 8.911 51.254 9.208 51.5 9.707L64.126 35.29L92.359 39.393C92.909 39.473 93.339 39.836 93.511 40.365C93.683 40.894 93.548 41.44 93.15 41.828Z" fill="url(#paint0_linear_4_16)"></path> <defs> <linearGradient id="paint0_linear_4_16" x1="3.85388" y1="94.647" x2="92.505" y2="2.00656" gradientUnits="userSpaceOnUse"> <stop offset="0.0833333" stop-color="#FDCF2D"></stop> <stop offset="0.5" stop-color="#47B972"></stop> <stop offset="0.916667" stop-color="#05B0FD"></stop> </linearGradient> </defs> </svg> 