<?xml version="1.0" encoding="UTF-8"?> <svg xmlns="http://www.w3.org/2000/svg" width="101" height="101" viewBox="0 0 101 101" fill="none"> <path d="M90.298 49.014C92.588 47.54 94.093 45.099 94.093 42.338C94.093 37.86 90.122 34.218 85.241 34.218H61.655C62.77 32.128 63.899 28.703 63.641 23.603C63.134 13.148 56.79 7.724 53.121 6.167C50.957 5.249 48.602 5.467 46.823 6.75C45.037 8.038 43.021 10.996 43.56 17.776C44.118 24.822 35.149 32.465 30.779 35.749V33.067C30.779 32.238 30.108 31.567 29.279 31.567H9.416C8.587 31.567 7.916 32.238 7.916 33.067V87.249C7.916 88.077 8.587 88.749 9.416 88.749H29.279C30.108 88.749 30.779 88.077 30.779 87.249V84.512C36.433 86.545 52.332 92.023 60.189 92.28L75.966 92.39C80.841 92.39 84.807 88.585 84.807 83.909C84.807 81.756 83.963 79.794 82.584 78.295C86.792 77.64 90.018 74.147 90.018 69.936C90.018 67.693 89.097 65.656 87.607 64.138C91.342 63.142 94.094 59.86 94.094 55.966C94.093 53.09 92.589 50.548 90.298 49.014ZM10.916 85.748V34.566H27.779V38.586C27.777 38.626 27.778 38.666 27.779 38.706V82.34C27.778 82.381 27.776 82.422 27.779 82.463V85.749H10.916V85.748ZM85.241 61.454H77.552C77.549 61.454 77.546 61.455 77.542 61.455H75.966C75.138 61.455 74.466 62.127 74.466 62.955C74.466 63.783 75.138 64.455 75.966 64.455H81.161C84.39 64.455 87.017 66.914 87.017 69.935C87.017 72.956 84.39 75.414 81.161 75.414H75.986C75.979 75.414 75.973 75.413 75.966 75.413H70.452C69.624 75.413 68.952 76.085 68.952 76.913C68.952 77.741 69.624 78.413 70.452 78.413H75.956C75.959 78.413 75.962 78.414 75.966 78.414H75.986C79.197 78.425 81.806 80.884 81.806 83.908C81.806 86.93 79.186 89.389 75.976 89.389L60.248 89.28C52.426 89.023 35.079 82.883 30.779 81.319V39.456C34.028 37.221 47.335 27.431 46.55 17.539C46.216 13.334 46.936 10.367 48.577 9.184C49.942 8.201 51.503 8.742 51.95 8.93C54.974 10.214 60.21 14.78 60.645 23.753C61.04 31.551 57.882 34.468 57.761 34.576C57.282 34.984 57.108 35.646 57.324 36.237C57.542 36.827 58.103 37.219 58.732 37.219H85.24C88.467 37.219 91.092 39.516 91.092 42.339C91.092 45.176 88.467 47.485 85.24 47.485H78.827C77.999 47.485 77.327 48.156 77.327 48.985C77.327 49.814 77.999 50.485 78.827 50.485H85.24C88.467 50.485 91.092 52.943 91.092 55.966C91.093 58.991 88.468 61.454 85.241 61.454Z" fill="url(#paint0_linear_4_18)"></path> <defs> <linearGradient id="paint0_linear_4_18" x1="7.916" y1="92.39" x2="94.698" y2="6.21411" gradientUnits="userSpaceOnUse"> <stop offset="0.0833333" stop-color="#FDCF2D"></stop> <stop offset="0.5" stop-color="#47B972"></stop> <stop offset="0.916667" stop-color="#05B0FD"></stop> </linearGradient> </defs> </svg> 