<?xml version="1.0" encoding="UTF-8"?> <svg xmlns="http://www.w3.org/2000/svg" width="100" height="100" viewBox="0 0 100 100" fill="none"> <path d="M64.0768 48.6116C64.6892 47.3741 64.1825 45.8745 62.945 45.2621C61.7076 44.6497 60.208 45.1564 59.5956 46.3939C58.9832 47.6314 59.4899 49.131 60.7273 49.7434C61.9648 50.3558 63.4644 49.8491 64.0768 48.6116Z" fill="url(#paint0_linear_4_20)"></path> <path d="M74.0722 48.6191C74.6846 47.3816 74.1779 45.882 72.9404 45.2696C71.703 44.6572 70.2034 45.1639 69.591 46.4014C68.9786 47.6388 69.4853 49.1385 70.7227 49.7509C71.9602 50.3633 73.4598 49.8565 74.0722 48.6191Z" fill="url(#paint1_linear_4_20)"></path> <path d="M66.83 43C68.2107 43 69.33 41.8807 69.33 40.5C69.33 39.1193 68.2107 38 66.83 38C65.4493 38 64.33 39.1193 64.33 40.5C64.33 41.8807 65.4493 43 66.83 43Z" fill="url(#paint2_linear_4_20)"></path> <path d="M90.74 46.84L85.42 23.16C85.0227 21.6052 84.1863 20.1976 83.0106 19.1053C81.835 18.013 80.3698 17.2821 78.79 17C78.687 16.9891 78.5831 16.9891 78.48 17H69.69C67.92 17 66.52 18.89 64.93 22H37.76C36.32 19.2 34.91 17 33 17H24.21C24.107 16.9891 24.003 16.9891 23.9 17C22.3253 17.2791 20.8636 18.004 19.6885 19.0888C18.5133 20.1735 17.674 21.5726 17.27 23.12L11.94 46.84C10.3783 53.7789 9.95944 60.9262 10.7 68L11.16 72.37C11.1613 74.1225 11.6776 75.836 12.6448 77.2975C13.612 78.7589 14.9874 79.9039 16.6 80.59C17.5072 80.9503 18.4739 81.1368 19.45 81.14C20.595 81.1167 21.7239 80.866 22.7711 80.4025C23.8183 79.9389 24.7629 79.2719 25.55 78.44C25.6167 78.3725 25.677 78.2988 25.73 78.22L36.07 63H48.2C46.34 66 45.2 70.33 48.68 74.46C53.51 80.25 55.33 82.96 55.33 88.46C55.33 88.8578 55.488 89.2394 55.7693 89.5207C56.0506 89.802 56.4322 89.96 56.83 89.96C57.2278 89.96 57.6094 89.802 57.8907 89.5207C58.172 89.2394 58.33 88.8578 58.33 88.46C58.33 81.99 56.09 78.63 50.98 72.46C47.56 68.36 50.79 64.2 51.98 62.92H66.62L77 78.2C77.053 78.2788 77.1133 78.3524 77.18 78.42C78.2854 79.6328 79.7293 80.486 81.3249 80.8692C82.9204 81.2525 84.5943 81.1483 86.13 80.57C87.7426 79.8839 89.118 78.7389 90.0852 77.2775C91.0524 75.816 91.5687 74.1025 91.57 72.35L92 68C92.734 60.9251 92.3084 53.7778 90.74 46.84ZM89 67.67L88.54 72.09C88.54 72.09 88.54 72.16 88.54 72.19C88.561 73.3645 88.2367 74.5193 87.6074 75.5113C86.9781 76.5032 86.0715 77.2886 85 77.77C84.0308 78.1261 82.9773 78.1851 81.9744 77.9392C80.9715 77.6934 80.0647 77.154 79.37 76.39L68.65 60.66C68.5129 60.4571 68.3282 60.2909 68.112 60.1759C67.8959 60.0608 67.6549 60.0004 67.41 60H35.27C35.0251 60.0004 34.7841 60.0608 34.568 60.1759C34.3518 60.2909 34.1671 60.4571 34.03 60.66L23.33 76.39C22.6345 77.156 21.726 77.6966 20.721 77.9425C19.7161 78.1884 18.6606 78.1283 17.69 77.77C16.6169 77.2879 15.7092 76.501 15.0798 75.5071C14.4504 74.5132 14.1271 73.3562 14.15 72.18C14.15 72.18 14.15 72.11 14.15 72.08L13.69 67.66C12.9847 60.9205 13.3832 54.1112 14.87 47.5L20.2 23.8C20.471 22.8405 21.0052 21.9759 21.7422 21.3044C22.4792 20.6328 23.3895 20.1809 24.37 20H32.86C33.38 20.32 34.26 21.72 35.48 24.17C35.6043 24.4191 35.7955 24.6286 36.0322 24.7752C36.2688 24.9218 36.5416 24.9996 36.82 25H65.82C66.1011 25.0006 66.3768 24.9221 66.6155 24.7736C66.8542 24.6251 67.0463 24.4125 67.17 24.16C68.75 20.95 69.5 20.16 69.79 20H78.28C79.2636 20.18 80.1768 20.6326 80.9158 21.3062C81.6548 21.9797 82.1898 22.8473 82.46 23.81L87.81 47.5C89.3012 54.1138 89.7031 60.9267 89 67.67Z" fill="url(#paint3_linear_4_20)"></path> <path d="M32.83 36C31.3466 36 29.8966 36.4399 28.6632 37.264C27.4299 38.0881 26.4686 39.2594 25.9009 40.6299C25.3332 42.0003 25.1847 43.5083 25.4741 44.9632C25.7635 46.418 26.4778 47.7544 27.5267 48.8033C28.5756 49.8522 29.912 50.5665 31.3668 50.8559C32.8217 51.1453 34.3297 50.9968 35.7001 50.4291C37.0706 49.8614 38.2419 48.9001 39.066 47.6668C39.8901 46.4334 40.33 44.9834 40.33 43.5C40.3274 41.5117 39.5363 39.6056 38.1304 38.1996C36.7244 36.7937 34.8183 36.0026 32.83 36ZM32.83 48C31.94 48 31.07 47.7361 30.3299 47.2416C29.5899 46.7471 29.0131 46.0443 28.6725 45.2221C28.3319 44.3998 28.2428 43.495 28.4165 42.6221C28.5901 41.7492 29.0187 40.9474 29.648 40.318C30.2774 39.6887 31.0792 39.2601 31.9521 39.0865C32.825 38.9128 33.7298 39.0019 34.5521 39.3425C35.3743 39.6831 36.0771 40.2599 36.5716 40.9999C37.0661 41.74 37.33 42.61 37.33 43.5C37.33 44.0909 37.2136 44.6761 36.9875 45.2221C36.7613 45.768 36.4298 46.2641 36.012 46.682C35.5941 47.0998 35.098 47.4313 34.5521 47.6575C34.0061 47.8836 33.421 48 32.83 48Z" fill="url(#paint4_linear_4_20)"></path> <path d="M68.84 15H80.43C80.8278 15 81.2094 14.842 81.4907 14.5607C81.772 14.2794 81.93 13.8978 81.93 13.5C81.93 13.1022 81.772 12.7206 81.4907 12.4393C81.2094 12.158 80.8278 12 80.43 12H68.84C68.4422 12 68.0606 12.158 67.7793 12.4393C67.498 12.7206 67.34 13.1022 67.34 13.5C67.34 13.8978 67.498 14.2794 67.7793 14.5607C68.0606 14.842 68.4422 15 68.84 15Z" fill="url(#paint5_linear_4_20)"></path> <path d="M21.84 15H33.43C33.8278 15 34.2094 14.842 34.4907 14.5607C34.772 14.2794 34.93 13.8978 34.93 13.5C34.93 13.1022 34.772 12.7206 34.4907 12.4393C34.2094 12.158 33.8278 12 33.43 12H21.84C21.4422 12 21.0606 12.158 20.7793 12.4393C20.498 12.7206 20.34 13.1022 20.34 13.5C20.34 13.8978 20.498 14.2794 20.7793 14.5607C21.0606 14.842 21.4422 15 21.84 15Z" fill="url(#paint6_linear_4_20)"></path> <defs> <linearGradient id="paint0_linear_4_20" x1="10.3447" y1="89.96" x2="88.2051" y2="8.06046" gradientUnits="userSpaceOnUse"> <stop offset="0.0833333" stop-color="#FDCF2D"></stop> <stop offset="0.5" stop-color="#47B972"></stop> <stop offset="0.916667" stop-color="#05B0FD"></stop> </linearGradient> <linearGradient id="paint1_linear_4_20" x1="10.3447" y1="89.96" x2="88.2051" y2="8.06046" gradientUnits="userSpaceOnUse"> <stop offset="0.0833333" stop-color="#FDCF2D"></stop> <stop offset="0.5" stop-color="#47B972"></stop> <stop offset="0.916667" stop-color="#05B0FD"></stop> </linearGradient> <linearGradient id="paint2_linear_4_20" x1="10.3447" y1="89.96" x2="88.2051" y2="8.06046" gradientUnits="userSpaceOnUse"> <stop offset="0.0833333" stop-color="#FDCF2D"></stop> <stop offset="0.5" stop-color="#47B972"></stop> <stop offset="0.916667" stop-color="#05B0FD"></stop> </linearGradient> <linearGradient id="paint3_linear_4_20" x1="10.3447" y1="89.96" x2="88.2051" y2="8.06046" gradientUnits="userSpaceOnUse"> <stop offset="0.0833333" stop-color="#FDCF2D"></stop> <stop offset="0.5" stop-color="#47B972"></stop> <stop offset="0.916667" stop-color="#05B0FD"></stop> </linearGradient> <linearGradient id="paint4_linear_4_20" x1="10.3447" y1="89.96" x2="88.2051" y2="8.06046" gradientUnits="userSpaceOnUse"> <stop offset="0.0833333" stop-color="#FDCF2D"></stop> <stop offset="0.5" stop-color="#47B972"></stop> <stop offset="0.916667" stop-color="#05B0FD"></stop> </linearGradient> <linearGradient id="paint5_linear_4_20" x1="10.3447" y1="89.96" x2="88.2051" y2="8.06046" gradientUnits="userSpaceOnUse"> <stop offset="0.0833333" stop-color="#FDCF2D"></stop> <stop offset="0.5" stop-color="#47B972"></stop> <stop offset="0.916667" stop-color="#05B0FD"></stop> </linearGradient> <linearGradient id="paint6_linear_4_20" x1="10.3447" y1="89.96" x2="88.2051" y2="8.06046" gradientUnits="userSpaceOnUse"> <stop offset="0.0833333" stop-color="#FDCF2D"></stop> <stop offset="0.5" stop-color="#47B972"></stop> <stop offset="0.916667" stop-color="#05B0FD"></stop> </linearGradient> </defs> </svg> 