<svg width="100" height="100" viewBox="0 0 100 100" fill="none" xmlns="http://www.w3.org/2000/svg">
<g clip-path="url(#clip0_5281_5209)">
<path fill-rule="evenodd" clip-rule="evenodd" d="M87.6941 57.7771C101.406 39.0891 93.2471 10.9001 70.8731 10.9001C70.8481 10.9001 70.8236 10.9004 70.7991 10.9006C70.7746 10.9009 70.7501 10.9011 70.7251 10.9011C56.5731 10.9801 50.0021 22.9041 50.0021 22.9041C50.0021 22.9041 43.4301 10.9801 29.2741 10.9011C29.2502 10.9011 29.2259 10.9009 29.2014 10.9006C29.1766 10.9004 29.1517 10.9001 29.1271 10.9001C6.74912 10.8991 -1.40388 39.0881 12.3091 57.7771C20.7396 69.2734 30.4967 75.5463 43.9745 84.2111C45.905 85.4522 47.9119 86.7424 50.0021 88.1041C52.0929 86.7418 54.1003 85.4511 56.0313 84.2094C69.5054 75.5455 79.2607 69.2727 87.6941 57.7771ZM70.6951 5.74612L70.8731 5.74512C81.7621 5.74512 90.8571 11.3751 95.8311 21.1911C101.963 33.2961 100.363 49.2241 91.8501 60.8271C82.8511 73.0921 72.2471 79.9111 58.8191 88.5451C56.8961 89.7811 54.8971 91.0671 52.8151 92.4231L50.0031 94.2551L47.1871 92.4231C45.3438 91.2211 43.5641 90.0756 41.8451 88.9692C41.6234 88.8265 41.4028 88.6845 41.1831 88.5431C27.7531 79.9111 17.1471 73.0921 8.15212 60.8281C-0.36188 49.2231 -1.96288 33.2931 4.16912 21.1891C9.14212 11.3741 18.2381 5.74512 29.1271 5.74512L29.3051 5.74612C39.1691 5.80112 45.9691 10.5401 50.0021 14.6201C54.0321 10.5401 60.8321 5.80112 70.6951 5.74612ZM81.9479 39.558C81.6769 41.194 82.7799 42.743 84.4179 43.016C86.0599 43.29 87.6059 42.182 87.8779 40.545C89.7859 29.083 82.0149 18.204 70.5539 16.295C68.9119 16.023 67.3649 17.13 67.0939 18.767C66.8219 20.404 67.9259 21.953 69.5639 22.226C77.7569 23.591 83.3139 31.366 81.9479 39.558Z" fill="url(#paint0_linear_5281_5209)"/>
</g>
<defs>
<linearGradient id="paint0_linear_5281_5209" x1="0.469484" y1="94.2551" x2="89.3038" y2="3.28155" gradientUnits="userSpaceOnUse">
<stop offset="0.2" stop-color="#FDCF2D"/>
<stop offset="0.5" stop-color="#47B972"/>
<stop offset="0.8" stop-color="#05B0FD"/>
</linearGradient>
<clipPath id="clip0_5281_5209">
<rect width="100" height="100" fill="white"/>
</clipPath>
</defs>
</svg>
