<svg width="100" height="100" viewBox="0 0 100 100" fill="none" xmlns="http://www.w3.org/2000/svg">
<path d="M73.8 34.7998V14.5998C73.8 13.1998 72.7 12.0998 71.3 12.0998C69.9 12.0998 68.8 13.1998 68.8 14.5998V29.7998L51.8 12.7998C50.8 11.7998 49.2 11.7998 48.3 12.7998L5.69996 55.2998C4.99996 55.9998 4.79996 57.0998 5.19996 57.9998C5.59996 58.8998 6.49996 59.4998 7.49996 59.4998H19.2V85.2998C19.2 86.6998 20.3 87.7998 21.7 87.7998H78.4C79.8 87.7998 80.9 86.6998 80.9 85.2998V59.5998H92.6C93.6 59.5998 94.5 58.9998 94.9 58.0998C95.3 57.1998 95.1 56.0998 94.4 55.3998L73.8 34.7998ZM54.6 82.8998H45.4V59.5998H54.6V82.8998V82.8998ZM78.3 54.5998C76.9 54.5998 75.8 55.6998 75.8 57.0998V82.8998H59.6V57.0998C59.6 55.6998 58.5 54.5998 57.1 54.5998H42.9C41.5 54.5998 40.4 55.6998 40.4 57.0998V82.8998H24.2V57.0998C24.2 55.6998 23.1 54.5998 21.7 54.5998H13.6L50 18.0998L86.5 54.5998H78.3Z" fill="url(#paint0_linear_3808_23992)"/>
<defs>
<linearGradient id="paint0_linear_3808_23992" x1="95.1038" y1="12.0498" x2="20.4807" y2="100.817" gradientUnits="userSpaceOnUse">
<stop stop-color="#05B0FD"/>
<stop offset="0.5" stop-color="#47B972"/>
<stop offset="1" stop-color="#FDCF2D"/>
</linearGradient>
</defs>
</svg>
