<svg width="100" height="100" viewBox="0 0 100 100" fill="none" xmlns="http://www.w3.org/2000/svg">
<path d="M85.2944 17.1919L82.5537 14.4512L74.3294 22.6755L77.0702 25.4162L85.2944 17.1919Z" fill="url(#paint0_linear_3724_23583)"/>
<path d="M27.61 22.6755L19.3857 14.4512L16.645 17.1919L24.8693 25.4162L27.61 22.6755Z" fill="url(#paint1_linear_3724_23583)"/>
<path d="M51.9385 5H48.0615V16.63H51.9385V5Z" fill="url(#paint2_linear_3724_23583)"/>
<path d="M18.9864 43.7676H7.35645V47.6446H18.9864V43.7676Z" fill="url(#paint3_linear_3724_23583)"/>
<path d="M92.6437 43.7676H81.0137V47.6446H92.6437V43.7676Z" fill="url(#paint4_linear_3724_23583)"/>
<path d="M49.9998 20.4492C35.8278 20.4492 24.2988 31.9792 24.2988 46.1492V46.9162C24.2988 53.1782 27.8578 59.8182 30.9978 65.6792C33.5248 70.3942 35.9118 74.8482 35.9118 77.9872L35.8728 80.5822C35.8738 88.5312 42.2618 94.9992 50.1128 94.9992C57.9648 94.9992 64.3528 88.5312 64.3528 80.5822L64.0778 77.8202C63.7478 74.5702 66.3218 69.8732 69.0478 64.9012C72.2398 59.0762 75.5418 53.0552 75.7018 47.0412V46.1492C75.7008 31.9792 64.1718 20.4492 49.9998 20.4492ZM50.1128 91.1222C44.3988 91.1222 39.7508 86.3932 39.7508 80.6112L39.7898 78.0162C39.7898 76.9812 39.6268 75.9002 39.3388 74.7812H60.4458C60.2008 75.9682 60.1088 77.1162 60.2208 78.2172L60.4758 80.6802C60.4238 86.4472 55.7948 91.1222 50.1128 91.1222ZM65.6468 63.0372C64.1588 65.7512 62.7138 68.3912 61.6808 70.9042H37.9608C36.9838 68.6462 35.7178 66.2792 34.4148 63.8472C31.3478 58.1252 28.1758 52.2052 28.1758 46.9162V46.1492C28.1758 34.1162 37.9658 24.3252 49.9998 24.3252C62.0328 24.3252 71.8238 34.1152 71.8238 46.1492L71.8248 46.9892C71.6898 52.0142 68.6178 57.6172 65.6468 63.0372Z" fill="url(#paint5_linear_3724_23583)"/>
<defs>
<linearGradient id="paint0_linear_3724_23583" x1="92.7833" y1="5.00001" x2="8.90454" y2="96.5421" gradientUnits="userSpaceOnUse">
<stop stop-color="#05B0FD"/>
<stop offset="0.5" stop-color="#47B972"/>
<stop offset="1" stop-color="#FDCF2D"/>
</linearGradient>
<linearGradient id="paint1_linear_3724_23583" x1="92.7833" y1="5.00001" x2="8.90454" y2="96.5421" gradientUnits="userSpaceOnUse">
<stop stop-color="#05B0FD"/>
<stop offset="0.5" stop-color="#47B972"/>
<stop offset="1" stop-color="#FDCF2D"/>
</linearGradient>
<linearGradient id="paint2_linear_3724_23583" x1="92.7833" y1="5.00001" x2="8.90454" y2="96.5421" gradientUnits="userSpaceOnUse">
<stop stop-color="#05B0FD"/>
<stop offset="0.5" stop-color="#47B972"/>
<stop offset="1" stop-color="#FDCF2D"/>
</linearGradient>
<linearGradient id="paint3_linear_3724_23583" x1="92.7833" y1="5.00001" x2="8.90454" y2="96.5421" gradientUnits="userSpaceOnUse">
<stop stop-color="#05B0FD"/>
<stop offset="0.5" stop-color="#47B972"/>
<stop offset="1" stop-color="#FDCF2D"/>
</linearGradient>
<linearGradient id="paint4_linear_3724_23583" x1="92.7833" y1="5.00001" x2="8.90454" y2="96.5421" gradientUnits="userSpaceOnUse">
<stop stop-color="#05B0FD"/>
<stop offset="0.5" stop-color="#47B972"/>
<stop offset="1" stop-color="#FDCF2D"/>
</linearGradient>
<linearGradient id="paint5_linear_3724_23583" x1="92.7833" y1="5.00001" x2="8.90454" y2="96.5421" gradientUnits="userSpaceOnUse">
<stop stop-color="#05B0FD"/>
<stop offset="0.5" stop-color="#47B972"/>
<stop offset="1" stop-color="#FDCF2D"/>
</linearGradient>
</defs>
</svg>
