<svg width="100" height="100" viewBox="0 0 100 100" fill="none" xmlns="http://www.w3.org/2000/svg">
<path d="M43.054 63.688H36.623C36.024 63.688 35.447 63.914 35.005 64.317L20.007 78.08V62.998C20.007 62.129 19.535 61.328 18.775 60.906C13.27 57.851 9.295 52.601 7.87 46.498C7.482 44.842 7.286 43.131 7.286 41.413V41.146C7.286 28.863 17.279 18.87 29.561 18.87H52.89C61.575 18.87 69.527 23.974 73.15 31.871C73.7 33.073 75.122 33.6 76.322 33.049C77.523 32.498 78.051 31.077 77.5 29.876C73.101 20.283 63.441 14.084 52.891 14.084H29.562C14.64 14.084 2.5 26.223 2.5 41.146V41.413C2.5 43.498 2.738 45.575 3.208 47.586C3.208 47.586 3.208 47.586 3.208 47.587C4.831 54.54 9.175 60.582 15.22 64.365V83.524C15.22 84.473 15.782 85.333 16.65 85.714C16.96 85.851 17.287 85.916 17.613 85.916C18.201 85.916 18.781 85.699 19.231 85.287L37.555 68.475H43.054C44.375 68.475 45.447 67.403 45.447 66.08C45.447 64.76 44.375 63.688 43.054 63.688Z" fill="url(#paint0_linear_3808_23994)"/>
<path d="M78.684 34.606H63.152C52.775 34.606 44.334 43.047 44.334 53.423V53.601C44.334 63.975 52.775 72.416 63.152 72.416H73.049L85.021 83.4C85.469 83.813 86.051 84.028 86.639 84.028C86.964 84.028 87.291 83.964 87.602 83.828C88.47 83.445 89.031 82.586 89.031 81.636V69.318C93.039 66.674 95.913 62.582 97.008 57.892C97.335 56.492 97.501 55.048 97.501 53.599V53.423C97.499 43.047 89.059 34.606 78.684 34.606ZM92.713 53.602C92.713 54.684 92.589 55.761 92.346 56.805C91.449 60.649 88.945 63.956 85.477 65.879C84.716 66.301 84.245 67.103 84.245 67.973V76.194L75.599 68.261C75.158 67.857 74.579 67.631 73.981 67.631H63.152C55.414 67.631 49.121 61.338 49.121 53.602V53.424C49.121 45.687 55.413 39.393 63.152 39.393H78.683C86.418 39.393 92.712 45.687 92.712 53.424L92.713 53.602Z" fill="url(#paint1_linear_3808_23994)"/>
<defs>
<linearGradient id="paint0_linear_3808_23994" x1="97.501" y1="14.084" x2="28.3873" y2="105.49" gradientUnits="userSpaceOnUse">
<stop stop-color="#05B0FD"/>
<stop offset="0.5" stop-color="#47B972"/>
<stop offset="1" stop-color="#FDCF2D"/>
</linearGradient>
<linearGradient id="paint1_linear_3808_23994" x1="97.501" y1="14.084" x2="28.3873" y2="105.49" gradientUnits="userSpaceOnUse">
<stop stop-color="#05B0FD"/>
<stop offset="0.5" stop-color="#47B972"/>
<stop offset="1" stop-color="#FDCF2D"/>
</linearGradient>
</defs>
</svg>
