<svg width="90" height="90" viewBox="0 0 90 90" fill="none" xmlns="http://www.w3.org/2000/svg">
<path d="M37.385 79.8765C32.207 79.8765 24.635 74.7165 21.432 66.3795C18.823 59.5835 18.688 51.6035 21.065 44.4855C22.814 39.2275 26.32 34.7975 29.71 30.5125C30.976 28.9135 32.285 27.2605 33.472 25.5985L34.201 24.5645C37.695 19.6245 41.308 14.5175 39.405 7.74652C39.243 7.16952 39.411 6.55152 39.842 6.13652C40.272 5.71952 40.899 5.57452 41.467 5.75752C51.196 8.87352 55.23 19.3025 57.165 26.2405C58.404 24.0485 60.082 22.1355 61.42 21.2495C61.93 20.9085 62.588 20.8875 63.122 21.1905C63.654 21.4935 63.972 22.0695 63.943 22.6825C63.668 28.4535 65.21 35.2735 68.067 40.9285C68.495 41.7785 68.934 42.5965 69.367 43.4025C71.267 46.9495 73.064 50.2985 73.332 54.8305C73.852 63.6065 69.638 74.8125 59.151 78.6805C58.313 78.9855 56.381 79.4135 54.688 79.4135C50.804 79.4135 50.501 77.0815 50.501 76.3665C50.507 74.4995 52.257 73.3325 53.303 72.6345L53.677 72.3805C57.208 69.7955 59.157 64.5525 58.295 59.9285C57.966 58.1705 57.212 56.3985 56.411 54.5225C55.56 52.5255 54.693 50.4915 54.295 48.3665C54.17 48.6055 54.053 48.8555 53.943 49.1185C53.141 51.0895 52.66 52.9045 52.519 54.5005C52.412 55.7045 52.645 58.1125 52.992 58.7295C53.627 59.2565 53.772 60.1915 53.301 60.8905C52.798 61.6375 51.789 61.8325 51.044 61.3305C51.044 61.3295 51.044 61.3295 51.042 61.3285C51.041 61.3285 51.04 61.3275 51.039 61.3275C47.565 58.9885 45.428 55.9665 44.856 52.5875C44.542 50.7345 44.525 48.9915 44.509 47.3085C44.504 46.7925 44.498 46.2715 44.486 45.7405C44.47 45.1555 44.468 44.5405 44.465 43.9115C44.456 41.2575 44.373 39.0035 43.766 37.3425C43.359 39.4105 42.423 41.4395 41.808 42.6205C40.914 44.3255 39.931 45.5925 38.979 46.8185C38.332 47.6525 37.662 48.5155 37.018 49.5235C34.937 52.7575 30.607 61.0875 35.284 68.6525C36.816 71.1335 38.486 72.3745 39.705 73.2805C40.885 74.1555 42.22 75.1485 41.801 76.8475C41.356 78.7385 39.703 79.8765 37.385 79.8765ZM43.117 9.99952C43.717 16.7455 39.956 22.0615 36.856 26.4455L36.127 27.4785C34.884 29.2175 33.551 30.9035 32.26 32.5345C28.896 36.7845 25.718 40.8005 24.15 45.5155C22.04 51.8365 22.159 59.2005 24.468 65.2145C27.29 72.5605 33.897 76.6235 37.384 76.6235C37.958 76.6235 38.265 76.5195 38.432 76.3965C38.237 76.2395 37.986 76.0535 37.767 75.8905C36.416 74.8875 34.376 73.3715 32.518 70.3605C28.54 63.9255 29.182 55.6895 34.281 47.7645C35.002 46.6365 35.719 45.7135 36.412 44.8215C37.315 43.6575 38.169 42.5565 38.927 41.1135C40.566 37.9615 41.199 34.9365 40.363 34.2325C39.771 33.7335 39.613 32.8865 39.985 32.2085C40.356 31.5285 41.152 31.2065 41.893 31.4355C47.682 33.2255 47.705 39.3935 47.72 43.8985C47.722 44.5035 47.724 45.0935 47.74 45.6565C47.753 46.2065 47.759 46.7445 47.764 47.2775C47.78 48.9065 47.795 50.4445 48.065 52.0455C48.256 53.1765 48.688 54.1835 49.25 55.0685C49.256 54.5545 49.28 54.2265 49.281 54.2135C49.45 52.2955 50.007 50.1645 50.937 47.8805C51.817 45.7665 53.028 44.3875 54.31 42.9275L54.874 42.2815C55.376 41.6995 56.218 41.5515 56.892 41.9225C57.565 42.2955 57.885 43.0885 57.659 43.8235C56.707 46.9175 58.017 49.9915 59.406 53.2465C60.239 55.2015 61.101 57.2235 61.494 59.3315C62.592 65.2145 60.162 71.6665 55.584 75.0185L55.109 75.3415C54.855 75.5115 54.367 75.8365 54.044 76.1235C54.207 76.1445 54.418 76.1605 54.69 76.1605C56.028 76.1605 57.601 75.7835 58.031 75.6265C66.957 72.3345 70.538 62.6385 70.085 55.0235C69.859 51.2055 68.303 48.3015 66.5 44.9395C66.055 44.1095 65.604 43.2675 65.164 42.3955C62.718 37.5535 61.161 31.9045 60.762 26.6355C59.385 28.6395 58.292 31.1255 58.76 32.3625C58.767 32.3815 58.773 32.3975 58.78 32.4165C58.78 32.4185 58.782 32.4185 58.782 32.4215C58.782 32.4225 58.782 32.4225 58.782 32.4225C58.783 32.4235 58.783 32.4255 58.784 32.4265V32.4275C58.784 32.4295 58.785 32.4305 58.785 32.4315C58.785 32.4315 58.785 32.4335 58.787 32.4355C58.787 32.4375 58.787 32.4385 58.787 32.4405C58.787 32.4415 58.787 32.4435 58.789 32.4455C58.789 32.4465 58.791 32.4475 58.79 32.4505C58.791 32.4525 58.793 32.4565 58.792 32.4545C58.792 32.4565 58.793 32.4575 58.793 32.4595C58.986 33.0875 58.786 33.7665 58.315 34.1855V34.1865C58.313 34.1875 58.312 34.1885 58.311 34.1895C58.31 34.1905 58.309 34.1915 58.307 34.1925C58.306 34.1935 58.306 34.1945 58.304 34.1955C58.304 34.1955 58.303 34.1945 58.3 34.1995L58.298 34.2015C58.297 34.2025 58.298 34.2055 58.294 34.2045C58.293 34.2055 58.293 34.2055 58.292 34.2065C58.292 34.2065 58.292 34.2075 58.291 34.2085L58.29 34.2095C58.289 34.2115 58.287 34.2125 58.286 34.2125C58.284 34.2145 58.282 34.2135 58.282 34.2165C58.28 34.2165 58.28 34.2175 58.278 34.2195C58.277 34.2195 58.277 34.2205 58.277 34.2205C58.274 34.2215 58.273 34.2225 58.273 34.2225C58.271 34.2245 58.268 34.2255 58.269 34.2255C58.268 34.2265 58.267 34.2275 58.266 34.2285C58.141 34.3305 57.998 34.4155 57.84 34.4765C57.095 34.7685 56.269 34.4875 55.869 33.8295C55.869 33.8285 55.869 33.8275 55.868 33.8265C55.868 33.8265 55.869 33.8265 55.866 33.8235V33.8225C55.866 33.8215 55.864 33.8195 55.864 33.8195C55.864 33.8175 55.862 33.8165 55.862 33.8165L55.861 33.8155C55.861 33.8145 55.86 33.8145 55.86 33.8135L55.859 33.8125C55.859 33.8115 55.859 33.8115 55.858 33.8105C55.858 33.8105 55.859 33.8085 55.856 33.8085V33.8075C55.856 33.8065 55.856 33.8055 55.854 33.8045C55.854 33.8035 55.853 33.8025 55.852 33.8015C55.852 33.8005 55.851 33.7995 55.851 33.7985H55.85C55.85 33.7975 55.849 33.7965 55.849 33.7955V33.7945C55.848 33.7925 55.847 33.7895 55.845 33.7885C55.823 33.7485 55.802 33.7055 55.782 33.6635C55.781 33.6605 55.781 33.6585 55.78 33.6565C55.78 33.6565 55.781 33.6565 55.778 33.6535C55.775 33.6495 55.776 33.6475 55.776 33.6475C55.774 33.6465 55.774 33.6445 55.774 33.6425C55.773 33.6415 55.773 33.6405 55.772 33.6395C55.772 33.6395 55.772 33.6395 55.772 33.6385C55.766 33.6245 55.759 33.6105 55.753 33.5955C55.753 33.5945 55.752 33.5935 55.752 33.5925C55.75 33.5865 55.748 33.5815 55.746 33.5765C55.484 32.8855 55.263 31.9655 54.956 30.6995C53.621 25.2155 50.995 14.3675 43.117 9.99952Z" fill="url(#paint0_linear_3724_23593)"/>
<defs>
<linearGradient id="paint0_linear_3724_23593" x1="73.463" y1="5.67969" x2="5.11518" y2="62.9674" gradientUnits="userSpaceOnUse">
<stop stop-color="#05B0FD"/>
<stop offset="0.5" stop-color="#47B972"/>
<stop offset="1" stop-color="#FDCF2D"/>
</linearGradient>
</defs>
</svg>
