<svg width="64" height="64" viewBox="0 0 64 64" fill="none" xmlns="http://www.w3.org/2000/svg">
<path d="M52 44.08V32H32V16H36V24H54V6H36V14H25.941C25.442 9.507 21.625 6 17 6C12.037 6 8 10.037 8 15C8 19.963 12.037 24 17 24C21.625 24 25.442 20.493 25.941 16H30V32H12V44.08C8.614 44.568 6 47.481 6 51C6 54.859 9.141 58 13 58C16.519 58 19.432 55.386 19.92 52H26V58H40V44H26V50H19.92C19.479 46.941 17.059 44.521 14 44.08V34H50V44.08C46.614 44.568 44 47.481 44 51C44 54.859 47.141 58 51 58C54.859 58 58 54.859 58 51C58 47.481 55.386 44.568 52 44.08ZM38 8H52V22H38V8ZM17 22C13.141 22 10 18.859 10 15C10 11.141 13.141 8 17 8C20.859 8 24 11.141 24 15C24 18.859 20.859 22 17 22ZM28 46H38V56H28V46ZM18 51C18 53.757 15.757 56 13 56C10.243 56 8 53.757 8 51C8 48.243 10.243 46 13 46C15.757 46 18 48.243 18 51ZM51 56C48.243 56 46 53.757 46 51C46 48.243 48.243 46 51 46C53.757 46 56 48.243 56 51C56 53.757 53.757 56 51 56Z" fill="url(#paint0_linear_48_483)"/>
<defs>
<linearGradient id="paint0_linear_48_483" x1="5.77327" y1="57.8246" x2="58.6076" y2="6.89312" gradientUnits="userSpaceOnUse">
<stop offset="0.0833333" stop-color="#FDCF2D"/>
<stop offset="0.5" stop-color="#47B972"/>
<stop offset="0.916667" stop-color="#05B0FD"/>
</linearGradient>
</defs>
</svg>
