<?xml version="1.0" encoding="UTF-8"?> <svg xmlns="http://www.w3.org/2000/svg" width="101" height="101" viewBox="0 0 101 101" fill="none"> <path d="M49.2437 67.6096C46.5897 69.2476 42.7257 68.3886 41.1367 65.8126L29.6467 47.1916C28.0317 44.5736 28.8457 41.1306 31.4617 39.5166L41.5117 33.3116L32.6627 18.9746L22.6187 25.1746C12.7657 31.2556 13.0867 47.1796 23.4007 63.8976C28.1207 71.5486 34.0637 77.6336 40.1327 81.0326C43.7067 83.0336 47.2287 84.0386 50.5097 84.0376C53.2647 84.0376 55.8497 83.3296 58.1537 81.9076L67.8207 75.9446L58.9717 61.6036L49.2437 67.6096ZM56.5787 79.3546C51.3507 82.5816 45.5467 80.6256 41.5997 78.4146C35.9677 75.2616 30.4117 69.5466 25.9547 62.3226C16.5687 47.1066 15.8457 32.8806 24.1957 27.7266L31.6857 23.1026L37.3837 32.3346L29.8857 36.9636C25.8617 39.4466 24.6097 44.7416 27.0937 48.7666L38.5827 67.3866C41.0387 71.3696 46.7567 72.6646 50.8177 70.1616L57.9947 65.7316L63.6927 74.9646L56.5787 79.3546Z" fill="url(#paint0_linear_60_72)"></path> <path d="M59.5875 40.5945C61.8125 44.0105 62.3475 48.1955 61.0545 52.0775L63.9015 53.0255C65.4845 48.2715 64.8285 43.1435 62.1025 38.9585C59.2935 34.6325 54.5325 31.8685 49.3665 31.5625L49.1895 34.5575C53.4705 34.8105 57.2605 37.0105 59.5875 40.5945Z" fill="url(#paint1_linear_60_72)"></path> <path d="M51.3957 21.6367L51.0527 24.6167C58.0217 25.4177 64.2077 29.2417 68.0257 35.1057C71.7227 40.7907 72.7707 47.7907 70.8987 54.3137L73.7827 55.1407C75.8937 47.7827 74.7127 39.8837 70.5407 33.4697C66.2327 26.8527 59.2557 22.5397 51.3957 21.6367Z" fill="url(#paint2_linear_60_72)"></path> <path d="M78.0159 28.6046C72.4389 20.0276 63.4279 14.2996 53.2939 12.8906L52.8809 15.8626C62.1529 17.1516 70.3979 22.3926 75.5009 30.2406C80.5009 37.9216 82.0009 47.4076 79.6169 56.2686L82.5139 57.0476C85.1189 47.3656 83.4789 36.9976 78.0159 28.6046Z" fill="url(#paint3_linear_60_72)"></path> <defs> <linearGradient id="paint0_linear_60_72" x1="15.4414" y1="84.0376" x2="86.5284" y2="15.8112" gradientUnits="userSpaceOnUse"> <stop offset="0.0833333" stop-color="#FDCF2D"></stop> <stop offset="0.5" stop-color="#47B972"></stop> <stop offset="0.916667" stop-color="#05B0FD"></stop> </linearGradient> <linearGradient id="paint1_linear_60_72" x1="15.4414" y1="84.0376" x2="86.5284" y2="15.8112" gradientUnits="userSpaceOnUse"> <stop offset="0.0833333" stop-color="#FDCF2D"></stop> <stop offset="0.5" stop-color="#47B972"></stop> <stop offset="0.916667" stop-color="#05B0FD"></stop> </linearGradient> <linearGradient id="paint2_linear_60_72" x1="15.4414" y1="84.0376" x2="86.5284" y2="15.8112" gradientUnits="userSpaceOnUse"> <stop offset="0.0833333" stop-color="#FDCF2D"></stop> <stop offset="0.5" stop-color="#47B972"></stop> <stop offset="0.916667" stop-color="#05B0FD"></stop> </linearGradient> <linearGradient id="paint3_linear_60_72" x1="15.4414" y1="84.0376" x2="86.5284" y2="15.8112" gradientUnits="userSpaceOnUse"> <stop offset="0.0833333" stop-color="#FDCF2D"></stop> <stop offset="0.5" stop-color="#47B972"></stop> <stop offset="0.916667" stop-color="#05B0FD"></stop> </linearGradient> </defs> </svg> 