<?xml version="1.0" encoding="UTF-8"?> <svg xmlns="http://www.w3.org/2000/svg" width="101" height="101" viewBox="0 0 101 101" fill="none"> <path d="M85.5 28H76.41C76.391 27.9352 76.3676 27.8717 76.34 27.81L71.69 18.81C71.5629 18.5647 71.3705 18.3592 71.1341 18.2163C70.8976 18.0734 70.6263 17.9985 70.35 18H49.65C49.3754 18.0004 49.1062 18.0761 48.8717 18.2189C48.6371 18.3617 48.4463 18.5662 48.32 18.81L43.67 27.81C43.6424 27.8717 43.619 27.9352 43.6 28H15.5C13.7769 28.0027 12.1251 28.6883 10.9067 29.9067C9.68831 31.1252 9.00264 32.7769 9 34.5V74.5C9.00264 76.2231 9.68831 77.8749 10.9067 79.0933C12.1251 80.3117 13.7769 80.9974 15.5 81H85.5C87.2231 80.9974 88.8749 80.3117 90.0933 79.0933C91.3117 77.8749 91.9974 76.2231 92 74.5V34.5C91.9974 32.7769 91.3117 31.1252 90.0933 29.9067C88.8749 28.6883 87.2231 28.0027 85.5 28ZM50.56 21H69.44L73.05 28H46.95L50.56 21ZM12 74.5V34.5C12 33.5718 12.3687 32.6815 13.0251 32.0251C13.6815 31.3688 14.5717 31 15.5 31H27V78H15.5C14.5717 78 13.6815 77.6313 13.0251 76.9749C12.3687 76.3185 12 75.4283 12 74.5ZM89 74.5C89 75.4283 88.6313 76.3185 87.9749 76.9749C87.3185 77.6313 86.4283 78 85.5 78H30V31H85.5C86.4283 31 87.3185 31.3688 87.9749 32.0251C88.6313 32.6815 89 33.5718 89 34.5V74.5Z" fill="url(#paint0_linear_60_67)"></path> <path d="M60 36C56.2422 36 52.5687 37.1143 49.4442 39.2021C46.3196 41.2898 43.8844 44.2572 42.4463 47.729C41.0082 51.2008 40.632 55.0211 41.3651 58.7067C42.0982 62.3924 43.9078 65.7778 46.565 68.435C49.2222 71.0922 52.6077 72.9018 56.2933 73.6349C59.9789 74.368 63.7992 73.9918 67.271 72.5537C70.7428 71.1156 73.7102 68.6804 75.7979 65.5558C77.8857 62.4313 79 58.7578 79 55C79 49.9609 76.9982 45.1282 73.435 41.565C69.8718 38.0018 65.0391 36 60 36ZM60 71C56.8355 71 53.7421 70.0616 51.1109 68.3035C48.4797 66.5454 46.4289 64.0466 45.2179 61.1229C44.0069 58.1993 43.6901 54.9823 44.3074 51.8786C44.9248 48.7749 46.4487 45.9239 48.6863 43.6863C50.9239 41.4487 53.7749 39.9248 56.8786 39.3074C59.9823 38.6901 63.1993 39.0069 66.1229 40.2179C69.0466 41.4289 71.5454 43.4797 73.3035 46.1109C75.0616 48.7421 76 51.8355 76 55C76 59.2435 74.3143 63.3131 71.3137 66.3137C68.3131 69.3143 64.2435 71 60 71Z" fill="url(#paint1_linear_60_67)"></path> <path d="M60 44C57.8244 44 55.6977 44.6451 53.8887 45.8538C52.0798 47.0625 50.6699 48.7805 49.8373 50.7905C49.0048 52.8005 48.7869 55.0122 49.2114 57.146C49.6358 59.2798 50.6835 61.2398 52.2218 62.7782C53.7602 64.3166 55.7202 65.3642 57.854 65.7886C59.9878 66.2131 62.1995 65.9952 64.2095 65.1627C66.2195 64.3301 67.9375 62.9202 69.1462 61.1113C70.3549 59.3023 71 57.1756 71 55C71 52.0826 69.8411 49.2847 67.7782 47.2218C65.7153 45.1589 62.9174 44 60 44ZM60 63C58.4178 63 56.871 62.5308 55.5554 61.6518C54.2399 60.7727 53.2145 59.5233 52.609 58.0615C52.0035 56.5997 51.845 54.9911 52.1537 53.4393C52.4624 51.8874 53.2243 50.462 54.3432 49.3431C55.462 48.2243 56.8874 47.4624 58.4393 47.1537C59.9911 46.845 61.5997 47.0035 63.0615 47.609C64.5233 48.2145 65.7727 49.2398 66.6518 50.5554C67.5308 51.871 68 53.4177 68 55C68 57.1217 67.1571 59.1566 65.6569 60.6569C64.1566 62.1571 62.1217 63 60 63Z" fill="url(#paint2_linear_60_67)"></path> <path d="M15.5 23H24.5C24.8978 23 25.2794 22.842 25.5607 22.5607C25.842 22.2794 26 21.8978 26 21.5C26 21.1022 25.842 20.7206 25.5607 20.4393C25.2794 20.158 24.8978 20 24.5 20H15.5C15.1022 20 14.7206 20.158 14.4393 20.4393C14.158 20.7206 14 21.1022 14 21.5C14 21.8978 14.158 22.2794 14.4393 22.5607C14.7206 22.842 15.1022 23 15.5 23Z" fill="url(#paint3_linear_60_67)"></path> <defs> <linearGradient id="paint0_linear_60_67" x1="9" y1="81" x2="69.6792" y2="1.05764" gradientUnits="userSpaceOnUse"> <stop offset="0.0833333" stop-color="#FDCF2D"></stop> <stop offset="0.5" stop-color="#47B972"></stop> <stop offset="0.916667" stop-color="#05B0FD"></stop> </linearGradient> <linearGradient id="paint1_linear_60_67" x1="9" y1="81" x2="69.6792" y2="1.05764" gradientUnits="userSpaceOnUse"> <stop offset="0.0833333" stop-color="#FDCF2D"></stop> <stop offset="0.5" stop-color="#47B972"></stop> <stop offset="0.916667" stop-color="#05B0FD"></stop> </linearGradient> <linearGradient id="paint2_linear_60_67" x1="9" y1="81" x2="69.6792" y2="1.05764" gradientUnits="userSpaceOnUse"> <stop offset="0.0833333" stop-color="#FDCF2D"></stop> <stop offset="0.5" stop-color="#47B972"></stop> <stop offset="0.916667" stop-color="#05B0FD"></stop> </linearGradient> <linearGradient id="paint3_linear_60_67" x1="9" y1="81" x2="69.6792" y2="1.05764" gradientUnits="userSpaceOnUse"> <stop offset="0.0833333" stop-color="#FDCF2D"></stop> <stop offset="0.5" stop-color="#47B972"></stop> <stop offset="0.916667" stop-color="#05B0FD"></stop> </linearGradient> </defs> </svg> 