<svg width="314" height="100" viewBox="0 0 314 100" fill="none" xmlns="http://www.w3.org/2000/svg">
<path d="M0.199997 99.9797V27.6989H41.2105C43.5036 27.6989 45.614 28.267 47.4808 29.4237C49.4289 30.5803 50.9305 32.082 52.0263 33.9691C53.1829 35.8563 53.7511 37.9464 53.7511 40.2394V67.8774C53.7511 70.1907 53.1829 72.2808 52.0263 74.1477C50.9305 76.0349 49.4289 77.5365 47.4808 78.6932C45.5937 79.8498 43.5036 80.418 41.2105 80.418H12.1115V99.9594L0.199997 99.9797ZM13.187 68.5268H40.7438C41.0482 68.5268 41.2917 68.4456 41.4743 68.263C41.7178 68.0195 41.8396 67.7557 41.8396 67.4513V40.7062C41.8396 40.4018 41.7178 40.1583 41.4743 39.9756C41.2917 39.7321 41.0482 39.6104 40.7438 39.6104H13.187C12.8826 39.6104 12.6188 39.7321 12.3753 39.9756C12.1927 40.1583 12.1115 40.4018 12.1115 40.7062V67.431C12.1115 67.7354 12.1927 67.9992 12.3753 68.2427C12.6188 68.4456 12.8826 68.5268 13.187 68.5268Z" fill="white"/>
<path d="M75.2 11.526V27.6989H104.299C106.612 27.6989 108.702 28.267 110.569 29.4237C112.436 30.5804 113.958 32.082 115.115 33.9692C116.271 35.8563 116.84 37.9464 116.84 40.2394V80.418H104.928V40.7062C104.928 40.4018 104.806 40.1583 104.563 39.9756C104.38 39.7321 104.137 39.6104 103.832 39.6104H76.2754C75.971 39.6104 75.7073 39.7321 75.4637 39.9756C75.2811 40.1583 75.2 40.4018 75.2 40.7062V80.4383H63.2884V11.526" fill="white"/>
<path d="M134.474 99.9797V87.987H166.211C166.515 87.987 166.758 87.8652 166.941 87.6217C167.185 87.4391 167.306 87.1956 167.306 86.8912V80.4383H138.207C135.955 80.4383 133.865 79.8701 131.937 78.7134C130.05 77.5568 128.548 76.0552 127.392 74.168C126.235 72.2808 125.667 70.1907 125.667 67.8977V27.8815H137.578V67.431C137.578 67.7354 137.659 67.9992 137.842 68.2427C138.086 68.4253 138.37 68.5065 138.654 68.5065H166.211C166.515 68.5065 166.758 68.4253 166.941 68.2427C167.185 67.9992 167.306 67.7354 167.306 67.431V27.8815H179.218V87.4391C179.218 89.7524 178.67 91.8425 177.574 93.7094C176.478 95.6574 174.977 97.159 173.029 98.2548C171.142 99.4115 169.051 99.9797 166.758 99.9797H134.474V99.9797Z" fill="white"/>
<path d="M244.092 83.7662V87.4391C244.092 89.793 243.544 91.9237 242.448 93.8109C241.353 95.698 239.851 97.1794 237.903 98.2751C236.016 99.4318 233.926 100 231.633 100H199.348V88.0073H231.085C231.389 88.0073 231.633 87.8855 231.815 87.642C232.059 87.4594 232.181 87.2159 232.181 86.9115V83.7865V80.4586H203.081C200.829 80.4586 198.739 79.8904 196.811 78.7338C194.924 77.5771 193.422 76.0755 192.266 74.1883C191.109 72.3011 190.541 70.211 190.541 67.918V40.2597C190.541 37.9464 191.109 35.8563 192.266 33.9894C193.422 32.1023 194.924 30.6006 196.811 29.444C198.759 28.2873 200.849 27.7191 203.081 27.7191H231.633C233.926 27.7191 236.036 28.2873 237.903 29.444C239.79 30.6006 241.271 32.1023 242.367 33.9894C243.524 35.8766 244.092 37.9667 244.092 40.2597V83.7662ZM203.528 68.5268H231.085C231.389 68.5268 231.633 68.4456 231.815 68.263C232.059 68.0195 232.181 67.7557 232.181 67.4513V40.7062C232.181 40.4018 232.059 40.1583 231.815 39.9756C231.633 39.7321 231.389 39.6104 231.085 39.6104H203.528C203.224 39.6104 202.96 39.7321 202.716 39.9756C202.534 40.1583 202.452 40.4018 202.452 40.7062V67.431C202.452 67.7354 202.554 67.9992 202.716 68.2427C202.96 68.4456 203.224 68.5268 203.528 68.5268Z" fill="white"/>
<path d="M256.328 80.4383V27.6989H268.24V80.4383H256.328Z" fill="white"/>
<path d="M255.496 0L268.686 3.9164C270.939 4.58604 272.217 6.96023 271.547 9.21266L268.524 19.3182L255.354 15.3815C253.102 14.7119 251.823 12.3377 252.493 10.0852L255.496 0Z" fill="white"/>
<path d="M293.077 80.4383C290.764 80.4383 288.694 79.8701 286.807 78.7135C284.92 77.5568 283.418 76.0552 282.262 74.168C281.105 72.2808 280.537 70.1907 280.537 67.8977V11.526H292.448V27.6989H313.004V39.6104H292.448V67.431C292.448 67.7354 292.55 67.9992 292.712 68.2427C292.956 68.4253 293.219 68.5065 293.524 68.5065H312.984V80.418H293.077V80.4383Z" fill="white"/>
</svg>
