<?xml version="1.0" encoding="UTF-8"?> <svg xmlns="http://www.w3.org/2000/svg" width="101" height="101" viewBox="0 0 101 101" fill="none"> <path d="M85.976 34L84.476 34.251L85.843 33.634C79.632 19.871 66.669 11.655 51.169 11.655C30.071 11.655 12.906 28.819 12.906 49.916C12.906 71.013 30.071 88.177 51.169 88.177C59.186 88.177 66.861 85.724 73.365 81.083L71.623 78.641C65.63 82.917 58.558 85.177 51.169 85.177C31.725 85.177 15.906 69.359 15.906 49.916C15.906 30.473 31.725 14.655 51.169 14.655C65.566 14.655 77.137 21.924 82.976 34.6L82.983 55.019C82.983 59.53 79.314 63.199 74.805 63.199C70.405 63.199 66.4 59.177 66.244 54.692C66.703 53.179 66.955 51.577 66.955 49.917C66.955 40.823 59.558 33.424 50.465 33.424C41.37 33.424 33.971 40.822 33.971 49.917C33.971 59.011 41.37 66.409 50.465 66.409C56.203 66.409 61.261 63.459 64.215 58.999C66.047 63.147 70.214 66.199 74.805 66.199C80.969 66.199 85.983 61.183 85.983 55.018L85.976 34ZM50.464 63.408C43.023 63.408 36.97 57.355 36.97 49.916C36.97 42.476 43.023 36.423 50.464 36.423C57.902 36.423 63.954 42.476 63.954 49.916C63.954 57.355 57.902 63.408 50.464 63.408Z" fill="url(#paint0_linear_4_28)"></path> <defs> <linearGradient id="paint0_linear_4_28" x1="12.906" y1="88.177" x2="89.3469" y2="15.1775" gradientUnits="userSpaceOnUse"> <stop offset="0.0833333" stop-color="#FDCF2D"></stop> <stop offset="0.5" stop-color="#47B972"></stop> <stop offset="0.916667" stop-color="#05B0FD"></stop> </linearGradient> </defs> </svg> 