<?xml version="1.0" encoding="UTF-8"?> <svg xmlns="http://www.w3.org/2000/svg" width="128" height="128" viewBox="0 0 128 128" fill="none"> <path d="M112.382 20.8948L65.1422 0.17553C64.8812 0.0597934 64.5989 0 64.3134 0C64.0279 0 63.7456 0.0597934 63.4846 0.17553L16.2447 20.8948C15.863 21.057 15.5396 21.3315 15.3176 21.6819C15.0956 22.0322 14.9853 22.4418 15.0016 22.8562L17.1564 84.1438C17.7259 91.2952 20.2055 98.1624 24.3362 104.028C28.4668 109.893 34.0969 114.542 40.6382 117.488L63.4846 127.806C63.7521 127.934 64.0447 128 64.341 128C64.6374 128 64.93 127.934 65.1974 127.806L88.0439 117.488C94.5987 114.534 100.238 109.871 104.369 103.987C108.501 98.1029 110.973 91.2155 111.526 84.0471L113.681 22.8562C113.692 22.4354 113.574 22.0211 113.342 21.6701C113.109 21.319 112.774 21.0482 112.382 20.8948ZM107.34 83.8123C106.834 90.2225 104.616 96.3793 100.918 101.64C97.2203 106.9 92.1777 111.071 86.3173 113.717L64.3134 123.649L42.3096 113.717C36.4749 111.083 31.4504 106.936 27.7566 101.708C24.0627 96.4788 21.8336 90.3577 21.3002 83.978L19.1869 24.127L64.3134 4.36082L109.44 24.127L107.34 83.8123Z" fill="url(#paint0_linear_2146_6952)"></path> <path d="M49.81 37.6764V45.3011H35.3065C34.757 45.3011 34.23 45.5194 33.8414 45.908C33.4529 46.2965 33.2346 46.8235 33.2346 47.373V87.4303C33.2346 87.9798 33.4529 88.5068 33.8414 88.8953C34.23 89.2839 34.757 89.5022 35.3065 89.5022H93.3204C93.8699 89.5022 94.3969 89.2839 94.7855 88.8953C95.1741 88.5068 95.3924 87.9798 95.3924 87.4303V47.373C95.3924 46.8235 95.1741 46.2965 94.7855 45.908C94.3969 45.5194 93.8699 45.3011 93.3204 45.3011H78.8169V37.193C78.8148 35.2164 78.4095 33.2611 77.6257 31.4466C76.842 29.632 75.6963 27.9965 74.2587 26.64C72.8204 25.2726 71.1143 24.218 69.248 23.5428C67.3818 22.8677 65.3959 22.5865 63.4156 22.7171C59.6715 23.015 56.1813 24.7273 53.6542 27.5058C51.127 30.2844 49.7525 33.9209 49.81 37.6764ZM91.2485 85.3583H37.3784V49.445H91.2485V85.3583ZM71.4133 29.6512C72.4468 30.6159 73.2699 31.7838 73.8308 33.0816C74.3918 34.3794 74.6785 35.7791 74.6731 37.193V45.3011H53.9538V37.6764C53.8937 34.9823 54.8586 32.3657 56.6534 30.3556C58.4482 28.3454 60.9391 27.0915 63.6228 26.8471C65.0446 26.7512 66.4708 26.9509 67.8116 27.4335C69.1524 27.9161 70.3787 28.6712 71.4133 29.6512Z" fill="url(#paint1_linear_2146_6952)"></path> <path d="M64.3147 56.4222C62.6865 56.4512 61.121 57.0545 59.8945 58.1257C58.668 59.1968 57.8595 60.6669 57.6116 62.2763C57.3638 63.8857 57.6926 65.531 58.5399 66.9215C59.3873 68.312 60.6988 69.3584 62.2427 69.8759V76.3818C62.2427 76.9313 62.461 77.4583 62.8496 77.8469C63.2381 78.2354 63.7651 78.4537 64.3147 78.4537C64.8642 78.4537 65.3912 78.2354 65.7797 77.8469C66.1683 77.4583 66.3866 76.9313 66.3866 76.3818V69.8759C67.9305 69.3584 69.242 68.312 70.0894 66.9215C70.9368 65.531 71.2655 63.8857 71.0177 62.2763C70.7698 60.6669 69.9613 59.1968 68.7348 58.1257C67.5083 57.0545 65.9428 56.4512 64.3147 56.4222ZM64.3147 66.0912C63.7683 66.0912 63.2342 65.9292 62.7799 65.6256C62.3256 65.3221 61.9715 64.8906 61.7624 64.3858C61.5533 63.881 61.4986 63.3256 61.6052 62.7897C61.7118 62.2538 61.9749 61.7616 62.3612 61.3752C62.7476 60.9889 63.2398 60.7258 63.7757 60.6192C64.3116 60.5126 64.867 60.5673 65.3718 60.7764C65.8766 60.9855 66.3081 61.3395 66.6116 61.7938C66.9152 62.2481 67.0772 62.7823 67.0772 63.3286C67.0772 64.0613 66.7862 64.764 66.2681 65.2821C65.75 65.8002 65.0473 66.0912 64.3147 66.0912Z" fill="url(#paint2_linear_2146_6952)"></path> <defs> <linearGradient id="paint0_linear_2146_6952" x1="15.0737" y1="128.16" x2="141.384" y2="38.132" gradientUnits="userSpaceOnUse"> <stop stop-color="#FDCF2D"></stop> <stop offset="0.510417" stop-color="#47B972"></stop> <stop offset="1" stop-color="#05B0FD"></stop> </linearGradient> <linearGradient id="paint1_linear_2146_6952" x1="15.0737" y1="128.16" x2="141.384" y2="38.132" gradientUnits="userSpaceOnUse"> <stop stop-color="#FDCF2D"></stop> <stop offset="0.510417" stop-color="#47B972"></stop> <stop offset="1" stop-color="#05B0FD"></stop> </linearGradient> <linearGradient id="paint2_linear_2146_6952" x1="15.0737" y1="128.16" x2="141.384" y2="38.132" gradientUnits="userSpaceOnUse"> <stop stop-color="#FDCF2D"></stop> <stop offset="0.510417" stop-color="#47B972"></stop> <stop offset="1" stop-color="#05B0FD"></stop> </linearGradient> </defs> </svg> 