<?xml version="1.0" encoding="UTF-8"?> <svg xmlns="http://www.w3.org/2000/svg" width="101" height="101" viewBox="0 0 101 101" fill="none"> <path d="M57.373 77.658L60.142 87.081C59.398 87.957 58.931 89.075 58.931 90.311C58.931 93.08 61.187 95.332 63.96 95.332C66.419 95.332 68.459 93.543 68.879 91.197H78.59C78.876 93.695 80.979 95.649 83.553 95.649C86.324 95.649 88.578 93.397 88.578 90.629C88.578 87.857 86.324 85.601 83.553 85.601C81.67 85.601 80.046 86.657 79.187 88.197H68.487C67.688 86.485 65.966 85.289 63.96 85.289C63.554 85.289 63.165 85.35 62.787 85.441L61.173 79.949H86.245C86.968 79.949 87.587 79.435 87.72 78.725L92.258 54.424C92.34 53.986 92.222 53.533 91.938 53.191C91.653 52.847 91.23 52.649 90.784 52.649H52.168L50.518 47.715C50.313 47.104 49.741 46.691 49.096 46.691H42.953C42.124 46.691 41.453 47.362 41.453 48.191C41.453 49.02 42.124 49.691 42.953 49.691H48.016L57.373 77.658ZM88.978 55.649L84.999 76.95H60.299L60.236 76.762L60.108 76.328C60.083 76.242 60.048 76.162 60.009 76.085L53.171 55.649H88.978ZM83.553 88.603C84.67 88.603 85.578 89.513 85.578 90.631C85.578 91.744 84.67 92.651 83.553 92.651C82.439 92.651 81.532 91.745 81.532 90.631C81.532 89.513 82.438 88.603 83.553 88.603ZM65.968 90.312C65.968 91.426 65.067 92.333 63.959 92.333C62.84 92.333 61.93 91.426 61.93 90.312C61.93 89.198 62.84 88.291 63.959 88.291C65.066 88.29 65.968 89.197 65.968 90.312Z" fill="url(#paint0_linear_4_30)"></path> <path d="M42.618 69.669H10.717V23.684H81.198V45.196C81.198 46.025 81.87 46.696 82.698 46.696C83.526 46.696 84.198 46.025 84.198 45.196V5.849C84.198 5.02 83.526 4.349 82.698 4.349H9.217C8.388 4.349 7.717 5.02 7.717 5.849V71.169C7.717 71.997 8.388 72.669 9.217 72.669H42.618C43.447 72.669 44.118 71.997 44.118 71.169C44.118 70.341 43.447 69.669 42.618 69.669ZM81.198 7.349V20.684H10.717V7.349H81.198Z" fill="url(#paint1_linear_4_30)"></path> <path d="M29.318 15.197H35.304C36.133 15.197 36.804 14.526 36.804 13.697C36.804 12.868 36.133 12.197 35.304 12.197H29.318C28.489 12.197 27.818 12.868 27.818 13.697C27.818 14.526 28.489 15.197 29.318 15.197Z" fill="url(#paint2_linear_4_30)"></path> <path d="M17.008 15.197H22.994C23.823 15.197 24.494 14.526 24.494 13.697C24.494 12.868 23.823 12.197 22.994 12.197H17.008C16.179 12.197 15.508 12.868 15.508 13.697C15.508 14.526 16.179 15.197 17.008 15.197Z" fill="url(#paint3_linear_4_30)"></path> <defs> <linearGradient id="paint0_linear_4_30" x1="7.717" y1="95.649" x2="98.7497" y2="11.3301" gradientUnits="userSpaceOnUse"> <stop offset="0.0833333" stop-color="#FDCF2D"></stop> <stop offset="0.5" stop-color="#47B972"></stop> <stop offset="0.916667" stop-color="#05B0FD"></stop> </linearGradient> <linearGradient id="paint1_linear_4_30" x1="7.717" y1="95.649" x2="98.7497" y2="11.3301" gradientUnits="userSpaceOnUse"> <stop offset="0.0833333" stop-color="#FDCF2D"></stop> <stop offset="0.5" stop-color="#47B972"></stop> <stop offset="0.916667" stop-color="#05B0FD"></stop> </linearGradient> <linearGradient id="paint2_linear_4_30" x1="7.717" y1="95.649" x2="98.7497" y2="11.3301" gradientUnits="userSpaceOnUse"> <stop offset="0.0833333" stop-color="#FDCF2D"></stop> <stop offset="0.5" stop-color="#47B972"></stop> <stop offset="0.916667" stop-color="#05B0FD"></stop> </linearGradient> <linearGradient id="paint3_linear_4_30" x1="7.717" y1="95.649" x2="98.7497" y2="11.3301" gradientUnits="userSpaceOnUse"> <stop offset="0.0833333" stop-color="#FDCF2D"></stop> <stop offset="0.5" stop-color="#47B972"></stop> <stop offset="0.916667" stop-color="#05B0FD"></stop> </linearGradient> </defs> </svg> 