<svg width="100" height="100" viewBox="0 0 100 100" fill="none" xmlns="http://www.w3.org/2000/svg">
<path d="M69.3 29.4C70.3 29.4 71 30.2 71 31.1V34.6C71 35.6 70.2 36.3 69.3 36.3H65.8C64.8 36.3 64.1 35.5 64.1 34.6V31.1C64.1 30.1 64.9 29.4 65.8 29.4H69.3ZM34.6 29.4C35.6 29.4 36.3 30.2 36.3 31.1V34.6C36.3 35.6 35.5 36.3 34.6 36.3H31.1C30.1 36.3 29.4 35.5 29.4 34.6V31.1C29.4 30.1 30.2 29.4 31.1 29.4H34.6ZM43.3 22.5H22.5V43.3H43.3V22.5ZM77.9 22.5H57.1V43.3H77.9V22.5ZM43.3 19C45.2 19 46.8 20.6 46.8 22.5V43.3C46.8 45.2 45.2 46.8 43.3 46.8H22.5C20.6 46.8 19 45.2 19 43.3V22.5C19 20.6 20.6 19 22.5 19H43.3ZM77.9 19C79.8 19 81.4 20.6 81.4 22.5V43.3C81.4 45.2 79.8 46.8 77.9 46.8H57.1C55.2 46.8 53.6 45.2 53.6 43.3V22.5C53.6 20.6 55.2 19 57.1 19H77.9ZM77.9 55.4C78.9 55.4 79.6 56.2 79.6 57.1V60.6C79.6 61.6 78.8 62.3 77.9 62.3H74.4C73.4 62.3 72.7 61.5 72.7 60.6V57.1C72.7 56.1 73.5 55.4 74.4 55.4H77.9ZM60.6 55.4C61.6 55.4 62.3 56.2 62.3 57.1V60.6C62.3 61.6 61.5 62.3 60.6 62.3H57.1C56.1 62.3 55.4 61.5 55.4 60.6V57.1C55.4 56.1 56.2 55.4 57.1 55.4H60.6ZM69.3 64.1C70.3 64.1 71 64.9 71 65.8V69.3C71 70.3 70.2 71 69.3 71H65.8C64.8 71 64.1 70.2 64.1 69.3V65.8C64.1 64.8 64.9 64.1 65.8 64.1H69.3V64.1ZM34.6 64.1C35.6 64.1 36.3 64.9 36.3 65.8V69.3C36.3 70.3 35.5 71 34.6 71H31.1C30.1 71 29.4 70.2 29.4 69.3V65.8C29.4 64.8 30.2 64.1 31.1 64.1H34.6V64.1ZM43.3 57.1H22.5V77.9H43.3V57.1ZM77.9 72.7C78.9 72.7 79.6 73.5 79.6 74.4V77.9C79.6 78.9 78.8 79.6 77.9 79.6H74.4C73.4 79.6 72.7 78.8 72.7 77.9V74.4C72.7 73.4 73.5 72.7 74.4 72.7H77.9ZM60.6 72.7C61.6 72.7 62.3 73.5 62.3 74.4V77.9C62.3 78.9 61.5 79.6 60.6 79.6H57.1C56.1 79.6 55.4 78.8 55.4 77.9V74.4C55.4 73.4 56.2 72.7 57.1 72.7H60.6ZM43.3 53.7C45.2 53.7 46.8 55.3 46.8 57.2V78C46.8 79.9 45.2 81.5 43.3 81.5H22.5C20.6 81.5 19 79.9 19 78V57.1C19 55.2 20.6 53.6 22.5 53.6H43.3V53.7Z" fill="url(#paint0_linear_3810_24652)"/>
<defs>
<linearGradient id="paint0_linear_3810_24652" x1="81.4" y1="19" x2="18.9001" y2="81.3999" gradientUnits="userSpaceOnUse">
<stop stop-color="#05B0FD"/>
<stop offset="0.5" stop-color="#47B972"/>
<stop offset="1" stop-color="#FDCF2D"/>
</linearGradient>
</defs>
</svg>
