<svg width="100" height="100" viewBox="0 0 100 100" fill="none" xmlns="http://www.w3.org/2000/svg">
<path d="M88.4469 38.7275H88.3491C87.5845 38.0736 86.6924 37.5931 85.7319 37.318C84.7715 37.0428 83.7648 36.9792 82.7784 37.1314C83.9769 33.0216 84.2112 28.6816 83.4626 24.4623C81.6057 15.0852 74.9599 9.09976 66.555 9.09976C62.3525 9.09976 57.8569 10.6959 53.4589 13.6886C49.061 10.5961 44.4676 9 40.1674 9C31.7625 9 25.1167 15.0852 23.3576 24.4623C21.9893 31.545 23.7485 39.326 28.0487 46.2092C27.4778 46.5752 26.9527 47.0106 26.485 47.5061L6.64544 71.0486C6.43983 71.238 6.27598 71.4697 6.16472 71.7285C6.05346 71.9873 5.99735 72.2673 6.0001 72.5499C6.00284 72.8325 6.06438 73.1113 6.18065 73.3679C6.29691 73.6244 6.46524 73.8527 6.67448 74.0378C6.88373 74.2229 7.12912 74.3606 7.3944 74.4416C7.65968 74.5226 7.93879 74.5451 8.21325 74.5077C8.48771 74.4703 8.75126 74.3739 8.98643 74.2247C9.2216 74.0755 9.42304 73.877 9.5774 73.6423L29.5147 50.1995C30.1421 49.5244 30.9635 49.0702 31.8602 48.9027L54.8272 43.017C55.5313 42.916 56.2479 43.0709 56.8513 43.4548C57.4548 43.8386 57.9068 44.4269 58.1282 45.1166C58.3495 45.8064 58.3262 46.5536 58.0622 47.2275C57.7982 47.9015 57.3103 48.4591 56.6841 48.8029L48.6701 52.0949C47.7931 52.4554 47.0145 53.0269 46.4006 53.7609C45.7868 54.4948 45.3559 55.3694 45.1447 56.31C44.9335 57.2507 44.9483 58.2295 45.1878 59.163C45.4272 60.0966 45.8843 60.9572 46.52 61.6715H46.6177C47.3206 62.4585 48.2165 63.0398 49.2129 63.3554C50.2094 63.671 51.2702 63.7096 52.2861 63.4671L66.4572 59.9757C66.882 59.872 67.2604 59.6262 67.5323 59.2774L79.7488 44.3139H79.8465L81.5079 42.219C82.0401 41.572 82.8018 41.1668 83.6261 41.092C84.4505 41.0172 85.2702 41.279 85.9058 41.8199H86.0036C86.3184 42.0638 86.5817 42.37 86.7776 42.7203C86.9735 43.0706 87.098 43.4577 87.1437 43.8584C87.1893 44.2591 87.1551 44.665 87.0432 45.0518C86.9313 45.4387 86.7439 45.7984 86.4922 46.1095L68.9983 68.2555C68.6527 68.6995 68.2242 69.0693 67.7378 69.3432C67.2513 69.6172 66.7164 69.79 66.164 69.8516L33.7171 74.0413C33.2069 74.1255 32.7501 74.4124 32.4466 74.8394L22.8689 87.8078C22.5579 88.2311 22.4243 88.7632 22.4976 89.287C22.5709 89.8108 22.8451 90.2835 23.2598 90.601C23.6746 90.9184 24.1958 91.0548 24.709 90.9799C25.2222 90.9051 25.6853 90.6252 25.9963 90.2019L35.0854 77.9319L66.7504 73.8418C68.8213 73.5745 70.7115 72.5026 72.028 70.8491L89.5219 48.5036C90.6427 47.059 91.1587 45.2208 90.9573 43.3895C90.7559 41.5583 89.8535 39.8825 88.4469 38.7275ZM76.6213 42.0195L64.8935 56.3844L51.4066 59.6764C51.0728 59.751 50.7257 59.735 50.3999 59.63C50.0741 59.5249 49.7809 59.3346 49.5497 59.0778H49.4519C49.2392 58.842 49.0852 58.5573 49.0032 58.2478C48.9211 57.9384 48.9133 57.6133 48.9804 57.3001C49.0475 56.9869 49.1876 56.6948 49.3887 56.4486C49.5899 56.2024 49.8463 56.0093 50.136 55.8856L58.15 52.5937C59.0228 52.2989 59.8301 51.8316 60.5259 51.2184C61.2217 50.6051 61.7923 49.858 62.2052 49.0197C62.6182 48.1814 62.8653 47.2683 62.9325 46.3325C62.9997 45.3967 62.8856 44.4565 62.5968 43.5657C62.3081 42.6749 61.8502 41.8508 61.2495 41.1406C60.6487 40.4304 59.9167 39.8479 59.0954 39.4265C58.2741 39.005 57.3795 38.7528 56.4627 38.6842C55.5459 38.6156 54.6249 38.732 53.7521 39.0268L31.7625 44.7129C27.6578 38.528 25.9963 31.545 27.1691 25.2603C28.3419 18.9757 33.6194 12.9903 40.1674 12.9903C43.979 12.9903 48.1814 14.6861 52.1884 17.7786C52.5268 18.0376 52.9383 18.1776 53.3612 18.1776C53.7841 18.1776 54.1956 18.0376 54.534 17.7786C58.6387 14.6861 62.7434 13.09 66.555 13.09C73.103 13.09 78.0873 17.7786 79.5533 25.1606C80.5304 30.9572 79.4934 36.9202 76.6213 42.0195Z" fill="url(#paint0_linear_5283_292)"/>
<defs>
<linearGradient id="paint0_linear_5283_292" x1="6" y1="91" x2="88.2087" y2="13.0271" gradientUnits="userSpaceOnUse">
<stop offset="0.15" stop-color="#FDCF2D"/>
<stop offset="0.5" stop-color="#47B972"/>
<stop offset="0.85" stop-color="#05B0FD"/>
</linearGradient>
</defs>
</svg>
