<svg width="100" height="100" viewBox="0 0 100 100" fill="none" xmlns="http://www.w3.org/2000/svg">
<path fill-rule="evenodd" clip-rule="evenodd" d="M75.0046 44.2308H71.1585V38.4614C71.1585 37.8133 71.1292 37.1719 71.0719 36.5385H28.9374C28.8801 37.1719 28.8508 37.8133 28.8508 38.4614V44.2308H25.0046V38.4614V36.5385H16.7413C15.7931 36.5385 14.9929 37.2183 14.8427 38.1555L7.95787 92.3078H92.0494L85.1552 38.0916C85.0144 37.2183 84.2161 36.5385 83.2679 36.5385H75.0046V38.4614V44.2308ZM29.6502 32.6924H70.359C67.8417 23.8229 59.6697 17.3076 50.0046 17.3076C40.3396 17.3076 32.1675 23.8229 29.6502 32.6924ZM70.6989 24.449C66.1977 17.8229 58.6008 13.4614 50.0046 13.4614C41.4085 13.4614 33.8115 17.8229 29.3104 24.449C31.3397 14.8877 39.8477 7.69235 50.0046 7.69235C60.1616 7.69235 68.6696 14.8877 70.6989 24.449ZM75.0046 28.8462V32.6924H83.2679C86.1131 32.6924 88.5094 34.7318 88.9619 37.5432L96.2354 94.7435L95.0898 96.1276L94.1452 96.1539H4.97383L3.7644 94.7774L3.88825 93.8383L11.0359 37.607C11.4981 34.7318 13.8944 32.6924 16.7413 32.6924H25.0046V28.8462C25.0046 15.0616 36.22 3.84619 50.0046 3.84619C63.7893 3.84619 75.0046 15.0616 75.0046 28.8462Z" fill="url(#paint0_linear_5281_5269)"/>
<defs>
<linearGradient id="paint0_linear_5281_5269" x1="3.76441" y1="96.1539" x2="96.0864" y2="11.5299" gradientUnits="userSpaceOnUse">
<stop offset="0.1" stop-color="#FDCF2D"/>
<stop offset="0.5" stop-color="#47B972"/>
<stop offset="0.9" stop-color="#05B0FD"/>
</linearGradient>
</defs>
</svg>
