<?xml version="1.0" encoding="UTF-8"?> <svg xmlns="http://www.w3.org/2000/svg" width="101" height="101" viewBox="0 0 101 101" fill="none"> <path d="M90.298 49.0136C92.588 47.5396 94.093 45.0986 94.093 42.3376C94.093 37.8596 90.122 34.2176 85.241 34.2176H61.655C62.77 32.1276 63.899 28.7026 63.641 23.6026C63.134 13.1476 56.79 7.72362 53.121 6.16662C50.957 5.24862 48.602 5.46662 46.823 6.74962C45.037 8.03762 43.021 10.9956 43.56 17.7756C44.118 24.8216 35.149 32.4646 30.779 35.7486V33.0666C30.779 32.2376 30.108 31.5666 29.279 31.5666H9.41602C8.58702 31.5666 7.91602 32.2376 7.91602 33.0666V87.2486C7.91602 88.0766 8.58702 88.7486 9.41602 88.7486H29.279C30.108 88.7486 30.779 88.0766 30.779 87.2486V84.5116C36.433 86.5446 52.332 92.0226 60.189 92.2796L75.966 92.3896C80.841 92.3896 84.807 88.5846 84.807 83.9086C84.807 81.7556 83.963 79.7936 82.584 78.2946C86.792 77.6396 90.018 74.1466 90.018 69.9356C90.018 67.6926 89.097 65.6556 87.607 64.1376C91.342 63.1416 94.094 59.8596 94.094 55.9656C94.093 53.0896 92.589 50.5476 90.298 49.0136ZM10.916 85.7476V34.5656H27.779V38.5856C27.777 38.6256 27.778 38.6656 27.779 38.7056V82.3396C27.778 82.3806 27.776 82.4216 27.779 82.4626V85.7486H10.916V85.7476ZM85.241 61.4536H77.552C77.549 61.4536 77.546 61.4546 77.542 61.4546H75.966C75.138 61.4546 74.466 62.1266 74.466 62.9546C74.466 63.7826 75.138 64.4546 75.966 64.4546H81.161C84.39 64.4546 87.017 66.9136 87.017 69.9346C87.017 72.9556 84.39 75.4136 81.161 75.4136H75.986C75.979 75.4136 75.973 75.4126 75.966 75.4126H70.452C69.624 75.4126 68.952 76.0846 68.952 76.9126C68.952 77.7406 69.624 78.4126 70.452 78.4126H75.956C75.959 78.4126 75.962 78.4136 75.966 78.4136H75.986C79.197 78.4246 81.806 80.8836 81.806 83.9076C81.806 86.9296 79.186 89.3886 75.976 89.3886L60.248 89.2796C52.426 89.0226 35.079 82.8826 30.779 81.3186V39.4556C34.028 37.2206 47.335 27.4306 46.55 17.5386C46.216 13.3336 46.936 10.3666 48.577 9.18362C49.942 8.20062 51.503 8.74162 51.95 8.92962C54.974 10.2136 60.21 14.7796 60.645 23.7526C61.04 31.5506 57.882 34.4676 57.761 34.5756C57.282 34.9836 57.108 35.6456 57.324 36.2366C57.542 36.8266 58.103 37.2186 58.732 37.2186H85.24C88.467 37.2186 91.092 39.5156 91.092 42.3386C91.092 45.1756 88.467 47.4846 85.24 47.4846H78.827C77.999 47.4846 77.327 48.1556 77.327 48.9846C77.327 49.8136 77.999 50.4846 78.827 50.4846H85.24C88.467 50.4846 91.092 52.9426 91.092 55.9656C91.093 58.9906 88.468 61.4536 85.241 61.4536Z" fill="url(#paint0_linear_60_79)"></path> <defs> <linearGradient id="paint0_linear_60_79" x1="7.91602" y1="92.3896" x2="94.698" y2="6.21374" gradientUnits="userSpaceOnUse"> <stop offset="0.0833333" stop-color="#FDCF2D"></stop> <stop offset="0.5" stop-color="#47B972"></stop> <stop offset="0.916667" stop-color="#05B0FD"></stop> </linearGradient> </defs> </svg> 