<?xml version="1.0" encoding="UTF-8"?> <svg xmlns="http://www.w3.org/2000/svg" width="128" height="128" viewBox="0 0 128 128" fill="none"> <g clip-path="url(#clip0_2146_6750)"> <path fill-rule="evenodd" clip-rule="evenodd" d="M69.5483 6.93072C68.7338 4.35961 66.4892 3.06027 64.2785 3.00209C62.0608 2.94373 59.7177 4.10861 58.5483 6.4474L58.5447 6.4546L42.172 39.7549L5.52664 45.0296L5.50031 45.034C0.0974107 45.9344 -1.75912 52.3368 1.89907 55.995L1.90812 56.004L28.2796 81.8203L22.1759 118.443C21.2646 123.541 26.7244 127.628 31.3612 125.31L31.3683 125.306L64.9762 108.363L96.8998 125.297L96.9257 125.31C101.472 127.583 107.026 123.931 106.114 118.458L106.112 118.448L99.7299 82.098L126.092 56.2909L126.101 56.2819C129.759 52.6237 127.903 46.2214 122.5 45.3209L122.473 45.3165L85.828 40.0418L69.5483 6.93072ZM62.8551 8.59372C62.8542 8.59561 62.8532 8.5975 62.8522 8.5994L45.3703 44.1561L6.26995 49.7842C4.8074 50.0429 4.37565 51.6558 5.2946 52.5852L33.4386 80.1367L26.9169 119.267L26.9138 119.284C26.8124 119.842 27.0429 120.409 27.5683 120.803C28.0927 121.196 28.7003 121.259 29.2064 121.007C29.2074 121.007 29.2083 121.006 29.2092 121.006L65.0324 102.946L99.0985 121.016C100.283 121.59 101.596 120.658 101.368 119.258C101.368 119.255 101.368 119.252 101.367 119.249L94.5519 80.4329L122.705 52.8722C123.624 51.9428 123.193 50.3299 121.73 50.0712L82.6297 44.4431L65.0391 8.66541L64.9785 8.4434C64.904 8.17026 64.7861 8.04493 64.6892 7.97421C64.5748 7.89079 64.3951 7.81884 64.1519 7.81244C63.6455 7.79912 63.1213 8.06693 62.8551 8.59372Z" fill="url(#paint0_linear_2146_6750)"></path> </g> <defs> <linearGradient id="paint0_linear_2146_6750" x1="0.0955374" y1="126.15" x2="128.398" y2="2.70705" gradientUnits="userSpaceOnUse"> <stop stop-color="#FDCF2D"></stop> <stop offset="0.510417" stop-color="#47B972"></stop> <stop offset="1" stop-color="#05B0FD"></stop> </linearGradient> <clipPath id="clip0_2146_6750"> <rect width="128" height="128" fill="white"></rect> </clipPath> </defs> </svg> 