<?xml version="1.0" encoding="UTF-8"?> <svg xmlns="http://www.w3.org/2000/svg" width="128" height="128" viewBox="0 0 128 128" fill="none"> <path d="M84.515 92.9264C83.206 92.9264 82.1437 93.9887 82.1437 95.2976V116.971H4.74253V14.8517H82.1437V32.8733C82.1437 34.1823 83.206 35.2446 84.515 35.2446C85.8239 35.2446 86.8862 34.1823 86.8862 32.8733V12.4805C86.8862 11.1699 85.8239 10.1092 84.515 10.1092H2.37126C1.06233 10.1092 0 11.1699 0 12.4805V119.342C0 120.653 1.06233 121.713 2.37126 121.713H84.515C85.8239 121.713 86.8862 120.653 86.8862 119.342V95.2976C86.8862 93.9887 85.8239 92.9264 84.515 92.9264Z" fill="url(#paint0_linear_2655_1145)"></path> <path d="M127.952 16.7454C127.825 16.1288 127.459 15.5882 126.934 15.242L115.028 7.39151C114.504 7.04531 113.866 6.922 113.244 7.04847C112.627 7.17494 112.088 7.54169 111.742 8.06811L103.027 21.3108C103.027 21.3108 103.027 21.3108 103.025 21.3124L56.8755 91.2868C56.8344 91.3485 56.8075 91.4164 56.7743 91.4797C56.738 91.5461 56.6985 91.6093 56.6684 91.6789C56.6194 91.7974 56.5846 91.9207 56.5546 92.044C56.5483 92.0709 56.5372 92.093 56.5309 92.1199L56.5293 92.1294C56.5277 92.1357 56.5262 92.1436 56.5246 92.1515L52.7527 110.785C52.5598 111.733 52.9629 112.702 53.7707 113.235C54.1675 113.498 54.6228 113.627 55.0765 113.627C55.5476 113.627 56.0187 113.487 56.425 113.207L72.1006 102.381C72.1528 102.345 72.1939 102.301 72.2429 102.261C72.2919 102.221 72.3409 102.184 72.3867 102.139C72.5053 102.027 72.6096 101.905 72.6998 101.774C72.7092 101.76 72.7235 101.75 72.7329 101.736L72.7472 101.714C72.7503 101.709 72.7551 101.703 72.7582 101.697L118.868 31.7618C118.87 31.7602 118.87 31.7602 118.871 31.7586L127.607 18.527C127.953 18.0021 128.078 17.3619 127.952 16.7454ZM60.483 96.5036L66.5123 100.478L58.567 105.965L60.483 96.5036ZM70.0787 97.147L62.1413 91.916L105.681 25.8969L113.607 31.1247L70.0787 97.147ZM116.219 27.1679L108.291 21.9368L114.399 12.6557L122.341 17.8931L116.219 27.1679Z" fill="url(#paint1_linear_2655_1145)"></path> <path d="M58.8474 40.0711C60.1563 40.0711 61.2187 39.0104 61.2187 37.6998C61.2187 36.3909 60.1563 35.3286 58.8474 35.3286H14.7324C13.4235 35.3286 12.3611 36.3909 12.3611 37.6998C12.3611 39.0104 13.4235 40.0711 14.7324 40.0711H58.8474Z" fill="url(#paint2_linear_2655_1145)"></path> <path d="M15.2835 59.6062H59.3874C60.6964 59.6062 61.7587 58.5439 61.7587 57.235C61.7587 55.9244 60.6964 54.8637 59.3874 54.8637H15.2835C13.9746 54.8637 12.9123 55.9244 12.9123 57.235C12.9123 58.5439 13.9746 59.6062 15.2835 59.6062Z" fill="url(#paint3_linear_2655_1145)"></path> <defs> <linearGradient id="paint0_linear_2655_1145" x1="0.0955358" y1="121.857" x2="119.789" y2="-1.61831" gradientUnits="userSpaceOnUse"> <stop stop-color="#FDCF2D"></stop> <stop offset="0.510417" stop-color="#47B972"></stop> <stop offset="1" stop-color="#05B0FD"></stop> </linearGradient> <linearGradient id="paint1_linear_2655_1145" x1="0.0955358" y1="121.857" x2="119.789" y2="-1.61831" gradientUnits="userSpaceOnUse"> <stop stop-color="#FDCF2D"></stop> <stop offset="0.510417" stop-color="#47B972"></stop> <stop offset="1" stop-color="#05B0FD"></stop> </linearGradient> <linearGradient id="paint2_linear_2655_1145" x1="0.0955358" y1="121.857" x2="119.789" y2="-1.61831" gradientUnits="userSpaceOnUse"> <stop stop-color="#FDCF2D"></stop> <stop offset="0.510417" stop-color="#47B972"></stop> <stop offset="1" stop-color="#05B0FD"></stop> </linearGradient> <linearGradient id="paint3_linear_2655_1145" x1="0.0955358" y1="121.857" x2="119.789" y2="-1.61831" gradientUnits="userSpaceOnUse"> <stop stop-color="#FDCF2D"></stop> <stop offset="0.510417" stop-color="#47B972"></stop> <stop offset="1" stop-color="#05B0FD"></stop> </linearGradient> </defs> </svg> 