<?xml version="1.0" encoding="UTF-8"?> <svg xmlns="http://www.w3.org/2000/svg" width="128" height="128" viewBox="0 0 128 128" fill="none"> <path d="M116.255 12H46.6123C40.14 12 34.8736 17.2637 34.8736 23.7334V36.4699C34.8736 37.5553 35.7522 38.4339 36.8377 38.4339C37.9232 38.4339 38.8018 37.5553 38.8018 36.4699V23.7334C38.8018 19.4295 42.3057 15.9282 46.6123 15.9282H116.255C120.565 15.9282 124.072 19.4295 124.072 23.7334V71.6689C124.072 75.9728 120.565 79.4741 116.255 79.4741H90.16C90.1272 79.4741 90.0958 79.482 90.0631 79.4833C90.0303 79.482 90.0002 79.4741 89.9662 79.4741H72.8917C71.8076 79.4741 70.9276 80.354 70.9276 81.4382V101.727H52.1798C51.0943 101.727 50.2157 102.607 50.2157 103.691C50.2157 104.775 51.0943 105.655 52.1798 105.655H110.698C111.782 105.655 112.662 104.775 112.662 103.691C112.662 102.607 111.782 101.727 110.698 101.727H91.9316V83.4023H116.255C122.731 83.4023 128 78.1386 128 71.6689V23.7334C128 17.2637 122.731 12 116.255 12ZM74.8571 101.727V83.4023H88.0034V101.727H74.8571Z" fill="url(#paint0_linear_2655_1156)"></path> <path d="M40.7384 96.6887C48.0526 96.6887 55.3367 93.6823 60.5599 87.794C70.2481 76.8671 69.2451 60.0978 58.3222 50.4109C47.3966 40.7267 30.6286 41.731 20.9417 52.6487C11.6961 63.078 12.2133 78.8155 21.7745 88.6516L18.5547 92.2852L17.811 91.6266C17.0004 90.909 15.7657 90.9824 15.0468 91.7863L0.50083 108.029C0.152532 108.418 -0.0268538 108.929 0.00326211 109.449C0.0320687 109.968 0.266449 110.458 0.655338 110.804L5.22904 114.89C5.60352 115.226 6.07097 115.391 6.53711 115.391C7.07658 115.391 7.61343 115.169 8.00101 114.736L22.5614 98.4668C22.9097 98.0779 23.0891 97.566 23.059 97.0435C23.0289 96.5224 22.7906 96.034 22.4004 95.687L21.4982 94.8883L24.7101 91.2639C29.4567 94.8883 35.1028 96.6887 40.7384 96.6887ZM6.38261 110.655L4.73801 109.185L16.5317 96.0183C16.6351 96.3456 16.8184 96.6533 17.0947 96.8969C17.4352 97.198 17.8529 97.3421 18.2745 97.3682L6.38261 110.655ZM23.8813 55.2557C28.3306 50.2407 34.5319 47.6822 40.7632 47.6822C46.0859 47.6822 51.4295 49.5507 55.7165 53.3492C65.0184 61.5984 65.8734 75.8812 57.6216 85.187C49.3725 94.4876 35.0884 95.3426 25.7851 87.0909C16.4859 78.843 15.6321 64.5615 23.8813 55.2557Z" fill="url(#paint1_linear_2655_1156)"></path> <path d="M81.5821 30.3262C82.8766 30.3262 83.926 29.2769 83.926 27.9824C83.926 26.688 82.8766 25.6386 81.5821 25.6386C80.2877 25.6386 79.2383 26.688 79.2383 27.9824C79.2383 29.2769 80.2877 30.3262 81.5821 30.3262Z" fill="url(#paint2_linear_2655_1156)"></path> <defs> <linearGradient id="paint0_linear_2655_1156" x1="0.0955359" y1="115.52" x2="107.05" y2="-6.89734" gradientUnits="userSpaceOnUse"> <stop stop-color="#FDCF2D"></stop> <stop offset="0.510417" stop-color="#47B972"></stop> <stop offset="1" stop-color="#05B0FD"></stop> </linearGradient> <linearGradient id="paint1_linear_2655_1156" x1="0.0955359" y1="115.52" x2="107.05" y2="-6.89734" gradientUnits="userSpaceOnUse"> <stop stop-color="#FDCF2D"></stop> <stop offset="0.510417" stop-color="#47B972"></stop> <stop offset="1" stop-color="#05B0FD"></stop> </linearGradient> <linearGradient id="paint2_linear_2655_1156" x1="0.0955359" y1="115.52" x2="107.05" y2="-6.89734" gradientUnits="userSpaceOnUse"> <stop stop-color="#FDCF2D"></stop> <stop offset="0.510417" stop-color="#47B972"></stop> <stop offset="1" stop-color="#05B0FD"></stop> </linearGradient> </defs> </svg> 