<?xml version="1.0" encoding="UTF-8"?> <svg xmlns="http://www.w3.org/2000/svg" width="128" height="128" viewBox="0 0 128 128" fill="none"> <path d="M120.979 18H71.4837C67.6093 18 64.4577 21.1516 64.4577 25.0261V30.9306H9.02362C4.04802 30.9306 0 34.9786 0 39.9556V81.6196C0 86.5939 4.04802 90.6405 9.02362 90.6405H17.6906V108.113C17.6906 108.918 18.1652 109.647 18.9016 109.973C19.166 110.09 19.4454 110.147 19.7234 110.147C20.2197 110.147 20.7106 109.965 21.0917 109.618L41.98 90.6405H78.3294C83.3037 90.6405 87.3517 86.5939 87.3517 81.6196V61.8067H97.2147L111.965 75.2065C112.348 75.5537 112.837 75.7354 113.334 75.7354C113.612 75.7354 113.892 75.6784 114.157 75.5618C114.893 75.2364 115.368 74.5068 115.368 73.7012V61.8067H120.978C124.85 61.8067 128 58.6537 128 54.7793V25.0261C128.001 21.1516 124.852 18 120.979 18ZM83.2847 81.6183C83.2847 84.3495 81.062 86.5708 78.3308 86.5708H41.1948C40.689 86.5708 40.2021 86.7593 39.8265 87.0997L21.7576 103.516V88.605C21.7576 87.4807 20.8476 86.5708 19.7234 86.5708H9.02226C6.28968 86.5708 4.067 84.3495 4.067 81.6183V39.9542C4.067 37.2216 6.28968 34.9976 9.02226 34.9976H66.4715C66.4783 34.9976 66.4851 34.999 66.4919 34.999C66.4987 34.999 66.5054 34.9976 66.5122 34.9976H78.3308C81.0634 34.9976 83.2847 37.2216 83.2847 39.9542V81.6183ZM123.933 54.7793C123.933 56.4107 122.608 57.7384 120.979 57.7384H113.335C112.212 57.7384 111.301 58.6483 111.301 59.7725V69.1053L99.3696 58.2672C98.9953 57.9282 98.5071 57.7384 98.0013 57.7384H87.3517V39.9556C87.3517 34.98 83.3037 30.9306 78.3294 30.9306H68.526V25.0261C68.526 23.3946 69.8537 22.0684 71.4837 22.0684H120.979C122.608 22.0684 123.933 23.3946 123.933 25.0261V54.7793Z" fill="url(#paint0_linear_2655_1149)"></path> <defs> <linearGradient id="paint0_linear_2655_1149" x1="0.0955359" y1="110.262" x2="93.3561" y2="-9.50577" gradientUnits="userSpaceOnUse"> <stop stop-color="#FDCF2D"></stop> <stop offset="0.510417" stop-color="#47B972"></stop> <stop offset="1" stop-color="#05B0FD"></stop> </linearGradient> </defs> </svg> 