<?xml version="1.0" encoding="UTF-8"?> <svg xmlns="http://www.w3.org/2000/svg" width="100" height="100" viewBox="0 0 100 100" fill="none"> <path d="M89.81 73H74V32C74 28.8174 72.7357 25.7652 70.4853 23.5147C68.2348 21.2643 65.1826 20 62 20H18.5C18.27 20 18.04 19.94 17.8 19.92C16.1365 19.8148 14.4691 20.0496 12.8994 20.6101C11.3297 21.1706 9.89061 22.045 8.67 23.18C7.53747 24.2288 6.63396 25.5004 6.01618 26.9149C5.39839 28.3295 5.07966 29.8564 5.08 31.4C5.08 31.7978 5.23804 32.1794 5.51934 32.4607C5.80065 32.742 6.18218 32.9 6.58 32.9H26V73.71C25.95 76.7981 27.0799 79.789 29.1592 82.0728C31.2385 84.3565 34.1107 85.7611 37.19 86H79.35C80.8931 86.0332 82.4277 85.762 83.866 85.202C85.3043 84.6419 86.6181 83.804 87.7325 82.7361C88.8469 81.6681 89.7399 80.3911 90.3606 78.9779C90.9813 77.5648 91.3175 76.0431 91.35 74.5C91.3501 74.2996 91.31 74.1012 91.2321 73.9166C91.1542 73.7319 91.0402 73.5648 90.8966 73.4249C90.7531 73.2851 90.5829 73.1755 90.3963 73.1025C90.2097 73.0295 90.0103 72.9947 89.81 73ZM8.22 29.9C8.5521 28.1609 9.4316 26.5736 10.73 25.37C12.2253 24.003 14.1311 23.1696 16.15 23C16.2663 23.0138 16.3837 23.0138 16.5 23H18.4C20.1677 23.2951 21.808 24.1084 23.1129 25.3368C24.4179 26.5652 25.3287 28.1534 25.73 29.9H8.22ZM37.37 83C35.0547 82.8071 32.9001 81.7388 31.345 80.0128C29.7899 78.2867 28.9513 76.0328 29 73.71V32.19C29.0065 30.4646 28.6542 28.7567 27.9656 27.1747C27.277 25.5927 26.2671 24.171 25 23H62C64.387 23 66.6761 23.9482 68.364 25.636C70.0518 27.3239 71 29.6131 71 32V73H48.42C48.0222 73 47.6406 73.158 47.3593 73.4393C47.078 73.7206 46.92 74.1022 46.92 74.5C46.9132 75.6283 46.6744 76.7432 46.2186 77.7754C45.7627 78.8076 45.0994 79.735 44.27 80.5C43.351 81.3649 42.2648 82.0328 41.0782 82.4627C39.8917 82.8927 38.6298 83.0755 37.37 83ZM79.37 83H46L46.31 82.72C48.2229 80.9541 49.4636 78.5789 49.82 76H88.17C87.7391 78.0083 86.6239 79.8045 85.015 81.0813C83.4062 82.3582 81.4037 83.0364 79.35 83H79.37Z" fill="url(#paint0_linear_4_36)"></path> <path d="M36.5 42H63.5C63.8978 42 64.2794 41.842 64.5607 41.5607C64.842 41.2794 65 40.8978 65 40.5C65 40.1022 64.842 39.7206 64.5607 39.4393C64.2794 39.158 63.8978 39 63.5 39H36.5C36.1022 39 35.7206 39.158 35.4393 39.4393C35.158 39.7206 35 40.1022 35 40.5C35 40.8978 35.158 41.2794 35.4393 41.5607C35.7206 41.842 36.1022 42 36.5 42Z" fill="url(#paint1_linear_4_36)"></path> <path d="M36.5 51H63.5C63.8978 51 64.2794 50.842 64.5607 50.5607C64.842 50.2794 65 49.8978 65 49.5C65 49.1022 64.842 48.7206 64.5607 48.4393C64.2794 48.158 63.8978 48 63.5 48H36.5C36.1022 48 35.7206 48.158 35.4393 48.4393C35.158 48.7206 35 49.1022 35 49.5C35 49.8978 35.158 50.2794 35.4393 50.5607C35.7206 50.842 36.1022 51 36.5 51Z" fill="url(#paint2_linear_4_36)"></path> <path d="M52 58.5C52 58.1022 51.842 57.7206 51.5607 57.4393C51.2794 57.158 50.8978 57 50.5 57H36.5C36.1022 57 35.7206 57.158 35.4393 57.4393C35.158 57.7206 35 58.1022 35 58.5C35 58.8978 35.158 59.2794 35.4393 59.5607C35.7206 59.842 36.1022 60 36.5 60H50.5C50.8978 60 51.2794 59.842 51.5607 59.5607C51.842 59.2794 52 58.8978 52 58.5Z" fill="url(#paint3_linear_4_36)"></path> <defs> <linearGradient id="paint0_linear_4_36" x1="5.08" y1="86.0027" x2="68.9121" y2="2.70175" gradientUnits="userSpaceOnUse"> <stop offset="0.0833333" stop-color="#FDCF2D"></stop> <stop offset="0.5" stop-color="#47B972"></stop> <stop offset="0.916667" stop-color="#05B0FD"></stop> </linearGradient> <linearGradient id="paint1_linear_4_36" x1="5.08" y1="86.0027" x2="68.9121" y2="2.70175" gradientUnits="userSpaceOnUse"> <stop offset="0.0833333" stop-color="#FDCF2D"></stop> <stop offset="0.5" stop-color="#47B972"></stop> <stop offset="0.916667" stop-color="#05B0FD"></stop> </linearGradient> <linearGradient id="paint2_linear_4_36" x1="5.08" y1="86.0027" x2="68.9121" y2="2.70175" gradientUnits="userSpaceOnUse"> <stop offset="0.0833333" stop-color="#FDCF2D"></stop> <stop offset="0.5" stop-color="#47B972"></stop> <stop offset="0.916667" stop-color="#05B0FD"></stop> </linearGradient> <linearGradient id="paint3_linear_4_36" x1="5.08" y1="86.0027" x2="68.9121" y2="2.70175" gradientUnits="userSpaceOnUse"> <stop offset="0.0833333" stop-color="#FDCF2D"></stop> <stop offset="0.5" stop-color="#47B972"></stop> <stop offset="0.916667" stop-color="#05B0FD"></stop> </linearGradient> </defs> </svg> 