<?xml version="1.0" encoding="UTF-8"?> <svg xmlns="http://www.w3.org/2000/svg" width="101" height="101" viewBox="0 0 101 101" fill="none"> <path d="M91.44 22.74C91.2637 22.5993 91.058 22.5001 90.8381 22.4499C90.6182 22.3997 90.3899 22.3997 90.17 22.45L50.17 31.45C50.08 31.4782 49.9929 31.515 49.91 31.56H49.79L10.79 22.62C10.58 22.5782 10.3635 22.5819 10.155 22.6307C9.94655 22.6796 9.75095 22.7725 9.58138 22.9032C9.41181 23.0339 9.27219 23.1995 9.17191 23.3886C9.07163 23.5778 9.01301 23.7863 9 24V75.91C9.00086 76.2303 9.10422 76.5419 9.29496 76.7992C9.48569 77.0565 9.75379 77.246 10.06 77.34L49 89.43C49.2797 89.5196 49.5803 89.5196 49.86 89.43C50.0235 89.5152 50.2023 89.567 50.386 89.5825C50.5697 89.5979 50.7546 89.5767 50.93 89.52L90.93 77.4C91.2332 77.3094 91.5 77.1251 91.6922 76.8737C91.8844 76.6222 91.9922 76.3164 92 76V23.91C92.0002 23.6855 91.9499 23.4638 91.853 23.2613C91.7561 23.0588 91.6149 22.8807 91.44 22.74ZM12 25.88L49 34.37V86.29L12 74.81V25.88ZM89 74.88L52 86.07V34.07L89 25.78V74.88Z" fill="url(#paint0_linear_4_41)"></path> <path d="M58.15 49.13C58.2921 49.13 58.4335 49.1098 58.57 49.07L82.69 42.13C83.0566 42.007 83.3615 41.7473 83.5411 41.4049C83.7208 41.0625 83.7613 40.664 83.6543 40.2925C83.5472 39.921 83.3008 39.6052 82.9665 39.4109C82.6322 39.2167 82.2358 39.159 81.86 39.25L57.74 46.19C57.3942 46.2908 57.0962 46.5128 56.9005 46.8152C56.7048 47.1177 56.6245 47.4804 56.6743 47.8372C56.724 48.194 56.9005 48.5209 57.1715 48.7583C57.4424 48.9957 57.7898 49.1276 58.15 49.13Z" fill="url(#paint1_linear_4_41)"></path> <path d="M58.15 58.19C58.2921 58.19 58.4335 58.1698 58.57 58.13L82.69 51.19C83.0566 51.067 83.3615 50.8073 83.5411 50.4649C83.7208 50.1225 83.7613 49.724 83.6543 49.3525C83.5472 48.981 83.3008 48.6652 82.9665 48.4709C82.6322 48.2767 82.2358 48.219 81.86 48.31L57.74 55.24C57.3942 55.3408 57.0962 55.5628 56.9005 55.8652C56.7048 56.1677 56.6245 56.5304 56.6743 56.8872C56.724 57.244 56.9005 57.571 57.1715 57.8083C57.4424 58.0457 57.7898 58.1776 58.15 58.18V58.19Z" fill="url(#paint2_linear_4_41)"></path> <path d="M58.15 67.24C58.2921 67.24 58.4335 67.2198 58.57 67.18L82.69 60.24C83.0566 60.117 83.3615 59.8573 83.5411 59.5149C83.7208 59.1725 83.7613 58.774 83.6543 58.4025C83.5472 58.031 83.3008 57.7152 82.9665 57.5209C82.6322 57.3267 82.2358 57.269 81.86 57.36L57.74 64.3C57.3942 64.4008 57.0962 64.6228 56.9005 64.9252C56.7048 65.2277 56.6245 65.5904 56.6743 65.9472C56.724 66.304 56.9005 66.631 57.1715 66.8683C57.4424 67.1057 57.7898 67.2376 58.15 67.24Z" fill="url(#paint3_linear_4_41)"></path> <defs> <linearGradient id="paint0_linear_4_41" x1="9" y1="89.5874" x2="74.6996" y2="8.41044" gradientUnits="userSpaceOnUse"> <stop offset="0.0833333" stop-color="#FDCF2D"></stop> <stop offset="0.5" stop-color="#47B972"></stop> <stop offset="0.916667" stop-color="#05B0FD"></stop> </linearGradient> <linearGradient id="paint1_linear_4_41" x1="9" y1="89.5874" x2="74.6996" y2="8.41044" gradientUnits="userSpaceOnUse"> <stop offset="0.0833333" stop-color="#FDCF2D"></stop> <stop offset="0.5" stop-color="#47B972"></stop> <stop offset="0.916667" stop-color="#05B0FD"></stop> </linearGradient> <linearGradient id="paint2_linear_4_41" x1="9" y1="89.5874" x2="74.6996" y2="8.41044" gradientUnits="userSpaceOnUse"> <stop offset="0.0833333" stop-color="#FDCF2D"></stop> <stop offset="0.5" stop-color="#47B972"></stop> <stop offset="0.916667" stop-color="#05B0FD"></stop> </linearGradient> <linearGradient id="paint3_linear_4_41" x1="9" y1="89.5874" x2="74.6996" y2="8.41044" gradientUnits="userSpaceOnUse"> <stop offset="0.0833333" stop-color="#FDCF2D"></stop> <stop offset="0.5" stop-color="#47B972"></stop> <stop offset="0.916667" stop-color="#05B0FD"></stop> </linearGradient> </defs> </svg> 