<?xml version="1.0" encoding="UTF-8"?> <svg xmlns="http://www.w3.org/2000/svg" width="101" height="101" viewBox="0 0 101 101" fill="none"> <path d="M51.9512 53.4414C31.8942 53.4414 15.5762 70.3704 15.5762 91.1774C15.5762 92.0054 16.2472 92.6774 17.0762 92.6774H86.8262C87.6542 92.6774 88.3262 92.0054 88.3262 91.1774C88.3262 70.3694 72.0092 53.4414 51.9512 53.4414ZM18.6072 89.6774C19.3642 71.2174 34.0312 56.4414 51.9512 56.4414C69.8712 56.4414 84.5382 71.2174 85.2962 89.6774H18.6072Z" fill="url(#paint0_linear_60_64)"></path> <path d="M51.3238 49.3186C62.8918 49.3186 72.3027 39.5786 72.3027 27.6056C72.3027 15.6326 62.8928 5.89258 51.3238 5.89258C39.7548 5.89258 30.3438 15.6336 30.3438 27.6056C30.3438 39.5776 39.7548 49.3186 51.3238 49.3186ZM51.3238 8.89258C61.2378 8.89258 69.3027 17.2876 69.3027 27.6056C69.3027 37.9236 61.2378 46.3186 51.3238 46.3186C41.4088 46.3186 33.3437 37.9236 33.3437 27.6056C33.3437 17.2876 41.4098 8.89258 51.3238 8.89258Z" fill="url(#paint1_linear_60_64)"></path> <defs> <linearGradient id="paint0_linear_60_64" x1="15.5762" y1="92.6774" x2="101.028" y2="21.0448" gradientUnits="userSpaceOnUse"> <stop offset="0.0833333" stop-color="#FDCF2D"></stop> <stop offset="0.5" stop-color="#47B972"></stop> <stop offset="0.916667" stop-color="#05B0FD"></stop> </linearGradient> <linearGradient id="paint1_linear_60_64" x1="15.5762" y1="92.6774" x2="101.028" y2="21.0448" gradientUnits="userSpaceOnUse"> <stop offset="0.0833333" stop-color="#FDCF2D"></stop> <stop offset="0.5" stop-color="#47B972"></stop> <stop offset="0.916667" stop-color="#05B0FD"></stop> </linearGradient> </defs> </svg> 