<svg width="1707" height="1707" viewBox="0 0 1707 1707" fill="none" xmlns="http://www.w3.org/2000/svg">
<path fill-rule="evenodd" clip-rule="evenodd" d="M301 1566C291 1566 281 1561 278 1550C274 1537 280 1523 294 1519C466 1458 557 1475 654 1494C812 1525 991 1559 1620 1196C1651 1178 1658 1152 1658 1134C1658 1104 1642 1075 1617 1061C1602 1052 1575 1045 1543 1064C1500 1089 1461 1113 1423 1136C1141 1304 972 1407 578 1215C566 1210 561 1195 567 1183C572 1171 588 1167 599 1172C742 1242 851 1271 948 1271H950C952 1269 955 1269 958 1269H959C986 1269 1001 1247 1005 1226C1007 1217 1009 1185 972 1172L696 1084C571 1043 507 1074 403 1125C376 1138 345 1153 310 1168C298 1174 284 1168 278 1156C273 1143 278 1129 291 1124C324 1110 353 1096 381 1082C489 1031 567 992 710 1038L987 1125C1043 1143 1061 1192 1054 1233C1052 1242 1050 1251 1045 1260C1159 1236 1263 1174 1396 1093C1435 1070 1474 1046 1518 1021C1559 998 1603 998 1640 1018C1681 1042 1707 1086 1707 1134C1707 1177 1683 1215 1643 1239C1000 1611 811 1575 645 1543C554 1525 468 1509 309 1566C306 1566 303 1566 301 1566Z" fill="url(#paint0_linear_3724_23567)"/>
<path fill-rule="evenodd" clip-rule="evenodd" d="M262 1605H64C27 1605 0 1577 0 1541V1146C0 1110 29 1082 64 1082H262C297 1082 326 1111 326 1146V1541C324 1576 297 1605 262 1605ZM64 1131C55 1131 48 1138 48 1146V1541C48 1550 55 1557 64 1557H262C269 1557 277 1550 277 1541V1146C277 1138 270 1131 262 1131H64Z" fill="url(#paint1_linear_3724_23567)"/>
<path fill-rule="evenodd" clip-rule="evenodd" d="M163 1326C122 1326 87 1292 87 1250C87 1208 122 1174 163 1174C205 1174 240 1208 240 1250C240 1292 205 1326 163 1326ZM163 1224C148 1224 136 1236 136 1251C136 1267 148 1279 163 1279C179 1279 191 1267 191 1251C191 1236 179 1224 163 1224Z" fill="url(#paint2_linear_3724_23567)"/>
<path fill-rule="evenodd" clip-rule="evenodd" d="M972 970C968 970 965 969 962 967C961 966 959 966 958 964C664 748 507 498 538 299C552 209 603 141 681 114C769 84.0001 873 111 969 193C1065 111 1170 82.0001 1260 114C1338 142 1392 210 1406 301C1437 501 1280 749 989 964C987 966 986 966 984 967C980 970 976 970 972 970ZM753 152C733 152 714 154 696 161C636 182 596 235 585 307C575 375 572 616 972 916C1369 618 1366 376 1356 310C1345 236 1303 182 1242 161C1165 134 1070 164 984 245C983 246 980 247 977 249C975 250 971 252 966 252C964 252 959 250 957 249C954 247 952 246 950 245C886 184 817 152 753 152Z" fill="url(#paint3_linear_3724_23567)"/>
<path fill-rule="evenodd" clip-rule="evenodd" d="M656 471C645 471 635 462 632 451C615 367 634 289 682 242C724 200 783 185 847 199C860 202 868 214 865 228C862 240 850 249 836 246C789 235 746 246 715 275C678 311 665 372 679 440C682 453 674 466 660 469C660 471 657 471 656 471Z" fill="url(#paint4_linear_3724_23567)"/>
<path fill-rule="evenodd" clip-rule="evenodd" d="M1051 797C1044 797 1037 794 1033 788C1025 779 1025 763 1036 754C1112 687 1170 619 1206 551C1213 540 1227 534 1240 541C1252 548 1256 562 1249 575C1210 647 1149 719 1068 790C1062 795 1057 797 1051 797Z" fill="url(#paint5_linear_3724_23567)"/>
<defs>
<linearGradient id="paint0_linear_3724_23567" x1="1709.79" y1="101.262" x2="352.008" y2="1876.34" gradientUnits="userSpaceOnUse">
<stop stop-color="#05B0FD"/>
<stop offset="0.5" stop-color="#47B972"/>
<stop offset="1" stop-color="#FDCF2D"/>
</linearGradient>
<linearGradient id="paint1_linear_3724_23567" x1="1709.79" y1="101.262" x2="352.008" y2="1876.34" gradientUnits="userSpaceOnUse">
<stop stop-color="#05B0FD"/>
<stop offset="0.5" stop-color="#47B972"/>
<stop offset="1" stop-color="#FDCF2D"/>
</linearGradient>
<linearGradient id="paint2_linear_3724_23567" x1="1709.79" y1="101.262" x2="352.008" y2="1876.34" gradientUnits="userSpaceOnUse">
<stop stop-color="#05B0FD"/>
<stop offset="0.5" stop-color="#47B972"/>
<stop offset="1" stop-color="#FDCF2D"/>
</linearGradient>
<linearGradient id="paint3_linear_3724_23567" x1="1709.79" y1="101.262" x2="352.008" y2="1876.34" gradientUnits="userSpaceOnUse">
<stop stop-color="#05B0FD"/>
<stop offset="0.5" stop-color="#47B972"/>
<stop offset="1" stop-color="#FDCF2D"/>
</linearGradient>
<linearGradient id="paint4_linear_3724_23567" x1="1709.79" y1="101.262" x2="352.008" y2="1876.34" gradientUnits="userSpaceOnUse">
<stop stop-color="#05B0FD"/>
<stop offset="0.5" stop-color="#47B972"/>
<stop offset="1" stop-color="#FDCF2D"/>
</linearGradient>
<linearGradient id="paint5_linear_3724_23567" x1="1709.79" y1="101.262" x2="352.008" y2="1876.34" gradientUnits="userSpaceOnUse">
<stop stop-color="#05B0FD"/>
<stop offset="0.5" stop-color="#47B972"/>
<stop offset="1" stop-color="#FDCF2D"/>
</linearGradient>
</defs>
</svg>
