<svg width="100" height="100" viewBox="0 0 100 100" fill="none" xmlns="http://www.w3.org/2000/svg">
<path d="M64.5996 77.2002H14.3996C9.29961 77.2002 5.09961 73.0002 5.09961 67.9002V32.0002C5.09961 26.9002 9.29961 22.7002 14.3996 22.7002H64.4996C69.5996 22.7002 73.7996 26.9002 73.7996 32.0002V38.6002L91.8996 29.2002C92.4996 28.9002 93.2996 28.9002 93.8996 29.3002C94.4996 29.7002 94.8996 30.3002 94.8996 31.0002V69.0002C94.8996 69.7002 94.4996 70.3002 93.8996 70.7002C93.2996 71.1002 92.5996 71.1002 91.8996 70.8002L73.7996 61.4002V68.0002C73.8996 73.1002 69.6996 77.2002 64.5996 77.2002V77.2002ZM14.3996 26.8002C11.4996 26.8002 9.09961 29.2002 9.09961 32.1002V68.0002C9.09961 70.9002 11.4996 73.3002 14.3996 73.3002H64.4996C67.3996 73.3002 69.7996 70.9002 69.7996 68.0002V58.0002C69.7996 57.3002 70.1996 56.7002 70.7996 56.3002C71.3996 55.9002 72.0996 55.9002 72.7996 56.2002L90.8996 65.6002V34.3002L72.7996 43.7002C72.1996 44.0002 71.3996 44.0002 70.7996 43.6002C70.1996 43.2002 69.7996 42.6002 69.7996 41.9002V32.0002C69.7996 29.1002 67.3996 26.7002 64.4996 26.7002H14.3996V26.8002Z" fill="url(#paint0_linear_3808_24627)"/>
<defs>
<linearGradient id="paint0_linear_3808_24627" x1="94.8996" y1="22.7002" x2="46.5542" y2="102.359" gradientUnits="userSpaceOnUse">
<stop stop-color="#05B0FD"/>
<stop offset="0.5" stop-color="#47B972"/>
<stop offset="1" stop-color="#FDCF2D"/>
</linearGradient>
</defs>
</svg>
