<svg width="64" height="64" viewBox="0 0 64 64" fill="none" xmlns="http://www.w3.org/2000/svg">
<path d="M32 44C21.14 44 12.57 33.08 12.21 32.61C12.0754 32.4351 12.0024 32.2207 12.0024 32C12.0024 31.7793 12.0754 31.5649 12.21 31.39C12.57 30.92 21.14 20 32 20C42.86 20 51.43 30.92 51.79 31.39C51.9246 31.5649 51.9976 31.7793 51.9976 32C51.9976 32.2207 51.9246 32.4351 51.79 32.61C51.43 33.08 42.86 44 32 44ZM14.3 32C16.24 34.26 23.53 42 32 42C40.47 42 47.76 34.26 49.7 32C47.76 29.74 40.47 22 32 22C23.53 22 16.24 29.74 14.3 32ZM32 25C31.5837 24.9993 31.1684 25.0395 30.76 25.12C31.15 25.4918 31.4609 25.9385 31.674 26.4334C31.887 26.9283 31.9979 27.4612 32 28C32 29.0609 31.5786 30.0783 30.8284 30.8284C30.0783 31.5786 29.0609 32 28 32C27.4612 31.9979 26.9283 31.887 26.4334 31.674C25.9385 31.4609 25.4918 31.15 25.12 30.76C25.0395 31.1684 24.9993 31.5837 25 32C25 33.3845 25.4105 34.7378 26.1797 35.889C26.9489 37.0401 28.0421 37.9373 29.3212 38.4672C30.6003 38.997 32.0078 39.1356 33.3656 38.8655C34.7235 38.5954 35.9708 37.9287 36.9497 36.9497C37.9287 35.9708 38.5954 34.7235 38.8655 33.3656C39.1356 32.0078 38.997 30.6003 38.4672 29.3212C37.9373 28.0421 37.0401 26.9489 35.889 26.1797C34.7378 25.4105 33.3845 25 32 25ZM58 21V12C58 10.4087 57.3679 8.88258 56.2426 7.75736C55.1174 6.63214 53.5913 6 52 6H43C42.7348 6 42.4804 6.10536 42.2929 6.29289C42.1054 6.48043 42 6.73478 42 7C42 7.26522 42.1054 7.51957 42.2929 7.70711C42.4804 7.89464 42.7348 8 43 8H52C53.0609 8 54.0783 8.42143 54.8284 9.17157C55.5786 9.92172 56 10.9391 56 12V21C56 21.2652 56.1054 21.5196 56.2929 21.7071C56.4804 21.8946 56.7348 22 57 22C57.2652 22 57.5196 21.8946 57.7071 21.7071C57.8946 21.5196 58 21.2652 58 21ZM8 21V12C8 10.9391 8.42143 9.92172 9.17157 9.17157C9.92172 8.42143 10.9391 8 12 8H21C21.2652 8 21.5196 7.89464 21.7071 7.70711C21.8946 7.51957 22 7.26522 22 7C22 6.73478 21.8946 6.48043 21.7071 6.29289C21.5196 6.10536 21.2652 6 21 6H12C10.4087 6 8.88258 6.63214 7.75736 7.75736C6.63214 8.88258 6 10.4087 6 12V21C6 21.2652 6.10536 21.5196 6.29289 21.7071C6.48043 21.8946 6.73478 22 7 22C7.26522 22 7.51957 21.8946 7.70711 21.7071C7.89464 21.5196 8 21.2652 8 21ZM58 52V43C58 42.7348 57.8946 42.4804 57.7071 42.2929C57.5196 42.1054 57.2652 42 57 42C56.7348 42 56.4804 42.1054 56.2929 42.2929C56.1054 42.4804 56 42.7348 56 43V52C56 53.0609 55.5786 54.0783 54.8284 54.8284C54.0783 55.5786 53.0609 56 52 56H43C42.7348 56 42.4804 56.1054 42.2929 56.2929C42.1054 56.4804 42 56.7348 42 57C42 57.2652 42.1054 57.5196 42.2929 57.7071C42.4804 57.8946 42.7348 58 43 58H52C53.5913 58 55.1174 57.3679 56.2426 56.2426C57.3679 55.1174 58 53.5913 58 52ZM22 57C22 56.7348 21.8946 56.4804 21.7071 56.2929C21.5196 56.1054 21.2652 56 21 56H12C10.9391 56 9.92172 55.5786 9.17157 54.8284C8.42143 54.0783 8 53.0609 8 52V43C8 42.7348 7.89464 42.4804 7.70711 42.2929C7.51957 42.1054 7.26522 42 7 42C6.73478 42 6.48043 42.1054 6.29289 42.2929C6.10536 42.4804 6 42.7348 6 43V52C6 53.5913 6.63214 55.1174 7.75736 56.2426C8.88258 57.3679 10.4087 58 12 58H21C21.2652 58 21.5196 57.8946 21.7071 57.7071C21.8946 57.5196 22 57.2652 22 57Z" fill="url(#paint0_linear_3724_23590)"/>
<defs>
<linearGradient id="paint0_linear_3724_23590" x1="58.0851" y1="6" x2="9.91709" y2="61.4731" gradientUnits="userSpaceOnUse">
<stop stop-color="#05B0FD"/>
<stop offset="0.5" stop-color="#47B972"/>
<stop offset="1" stop-color="#FDCF2D"/>
</linearGradient>
</defs>
</svg>
