<?xml version="1.0" encoding="UTF-8"?> <svg xmlns="http://www.w3.org/2000/svg" width="101" height="101" viewBox="0 0 101 101" fill="none"> <path d="M49.6954 10.7045C49.4614 10.6915 48.3654 10.7065 48.3044 10.7085C27.1214 11.1255 9.99237 28.3465 9.73037 49.5655C9.72737 49.8285 9.71937 50.7265 9.74237 51.0035C10.2424 72.0135 27.2734 88.9915 48.3044 89.4055C48.4574 89.4105 48.6094 89.4255 48.7634 89.4255C48.8034 89.4255 48.8434 89.4205 48.8834 89.4205C48.9524 89.4205 49.0194 89.4255 49.0884 89.4255C70.7964 89.4255 88.4574 71.7645 88.4574 50.0555C88.4574 28.5525 71.1234 11.0315 49.6954 10.7045ZM85.4244 48.7745H70.9764C70.7204 33.9525 66.0514 21.4415 59.1584 15.1185C73.9334 19.3835 84.8664 32.7785 85.4244 48.7745ZM47.5884 13.7635V48.7745H29.5504C29.8954 30.0545 37.7544 14.8905 47.5884 13.7635ZM47.5884 51.7745V86.3515C37.8304 85.2325 30.0144 70.2955 29.5564 51.7745H47.5884ZM50.5884 86.2575V51.7745H67.9714C67.5234 69.8825 60.0414 84.5665 50.5884 86.2575ZM50.5884 48.7745V13.8575C60.1174 15.5625 67.6394 30.4685 67.9774 48.7745H50.5884ZM38.0504 15.4055C31.3294 21.8185 26.8024 34.1795 26.5504 48.7735H12.7504C13.2964 33.1285 23.7664 19.9655 38.0504 15.4055ZM12.7624 51.7745H26.5574C26.8914 66.1805 31.3984 78.3595 38.0524 84.7085C23.8984 80.1905 13.4844 67.2295 12.7624 51.7745ZM59.1574 84.9965C65.9844 78.7345 70.6314 66.4065 70.9704 51.7745H85.4134C84.6744 67.5795 73.7994 80.7695 59.1574 84.9965Z" fill="url(#paint0_linear_60_81)"></path> <defs> <linearGradient id="paint0_linear_60_81" x1="9.72656" y1="89.4255" x2="88.4528" y2="10.6947" gradientUnits="userSpaceOnUse"> <stop offset="0.0833333" stop-color="#FDCF2D"></stop> <stop offset="0.5" stop-color="#47B972"></stop> <stop offset="0.916667" stop-color="#05B0FD"></stop> </linearGradient> </defs> </svg> 